font.ufo
<glyph name="exclam" format="1">
	<unicode hex="0021"/>
	<advance width="600"/>
	<outline>
		<contour>
			<point x="255" y="238" type="line"/>
			<point x="318" y="238" type="line"/>
			<point x="400" y="566" type="line"/>
			<point x="421" y="671" type="line"/>
			<point x="325" y="671" type="line"/>
			<point x="307" y="566" type="line"/>
		</contour>
		<contour>
			<point x="243" y="-12" type="curve" smooth="yes"/>
			<point x="293" y="-12"/>
			<point x="332" y="32"/>
			<point x="332" y="81" type="curve" smooth="yes"/>
			<point x="332" y="121"/>
			<point x="306" y="149"/>
			<point x="269" y="149" type="curve" smooth="yes"/>
			<point x="218" y="149"/>
			<point x="179" y="105"/>
			<point x="179" y="55" type="curve" smooth="yes"/>
			<point x="179" y="16"/>
			<point x="205" y="-12"/>
		</contour>
	</outline>
</glyph>
<glyph name="plus" format="1">
	<unicode hex="002B"/>
	<advance width="600"/>
	<outline>
		<contour>
			<point x="264" y="102" type="line"/>
			<point x="336" y="102" type="line"/>
			<point x="336" y="296" type="line"/>
			<point x="517" y="296" type="line"/>
			<point x="517" y="364" type="line"/>
			<point x="336" y="364" type="line"/>
			<point x="336" y="558" type="line"/>
			<point x="264" y="558" type="line"/>
			<point x="264" y="364" type="line"/>
			<point x="83" y="364" type="line"/>
			<point x="83" y="296" type="line"/>
			<point x="264" y="296" type="line"/>
		</contour>
	</outline>
</glyph>
<glyph name="one" format="1">
	<unicode hex="0031"/>
	<advance width="600"/>
	<outline>
		<contour>
			<point x="35" y="0" type="line"/>
			<point x="473" y="0" type="line"/>
			<point x="487" y="76" type="line"/>
			<point x="323" y="76" type="line"/>
			<point x="436" y="637" type="line"/>
			<point x="366" y="637" type="line"/>
			<point x="324" y="612"/>
			<point x="267" y="597"/>
			<point x="193" y="588" type="curve"/>
			<point x="181" y="530" type="line"/>
			<point x="322" y="530" type="line"/>
			<point x="231" y="76" type="line"/>
			<point x="50" y="76" type="line"/>
		</contour>
	</outline>
</glyph>
<glyph name="two" format="2">
	<unicode hex="0032"/>
	<advance width="600"/>
	<outline>
		<contour>
			<point x="32" y="0" type="line"/>
			<point x="485" y="0" type="line"/>
			<point x="500" y="78" type="line"/>
			<point x="303" y="78" type="line" smooth="yes"/>
			<point x="265" y="78"/>
			<point x="228" y="78"/>
			<point x="183" y="74" type="curve"/>
			<point x="378" y="246"/>
			<point x="503" y="352"/>
			<point x="503" y="487" type="curve" smooth="yes"/>
			<point x="503" y="585"/>
			<point x="437" y="649"/>
			<point x="327" y="649" type="curve" smooth="yes"/>
			<point x="240" y="649"/>
			<point x="171" y="606"/>
			<point x="114" y="548" type="curve"/>
			<point x="162" y="493" type="line"/>
			<point x="208" y="542"/>
			<point x="260" y="574"/>
			<point x="314" y="574" type="curve" smooth="yes"/>
			<point x="381" y="574"/>
			<point x="412" y="537"/>
			<point x="412" y="479" type="curve" smooth="yes"/>
			<point x="412" y="360"/>
			<point x="282" y="254"/>
			<point x="41" y="54" type="curve"/>
		</contour>
	</outline>
</glyph>
<glyph name="four" format="2">
	<unicode hex="0034"/>
	<advance width="600"/>
	<outline>
		<contour>
			<point x="311" y="0" type="line"/>
			<point x="396" y="0" type="line"/>
			<point x="523" y="637" type="line"/>
			<point x="420" y="637" type="line"/>
			<point x="29" y="234" type="line"/>
			<point x="17" y="172" type="line"/>
			<point x="524" y="172" type="line"/>
			<point x="540" y="245" type="line"/>
			<point x="134" y="245" type="line"/>
			<point x="338" y="452" type="line" smooth="yes"/>
			<point x="366" y="483"/>
			<point x="393" y="517"/>
			<point x="420" y="549" type="curve"/>
			<point x="423" y="549" type="line"/>
			<point x="414" y="514"/>
			<point x="404" y="471"/>
			<point x="396" y="431" type="curve" smooth="yes"/>
		</contour>
	</outline>
</glyph>
<glyph name="five" format="2">
	<unicode hex="0035"/>
	<advance width="600"/>
	<outline>
		<contour>
			<point x="241" y="-12" type="curve" smooth="yes"/>
			<point x="376" y="-12"/>
			<point x="501" y="79"/>
			<point x="501" y="235" type="curve" smooth="yes"/>
			<point x="501" y="351"/>
			<point x="424" y="404"/>
			<point x="322" y="404" type="curve" smooth="yes"/>
			<point x="274" y="404"/>
			<point x="240" y="392"/>
			<point x="203" y="377" type="curve"/>
			<point x="249" y="559" type="line"/>
			<point x="525" y="559" type="line"/>
			<point x="540" y="637" type="line"/>
			<point x="184" y="637" type="line"/>
			<point x="108" y="325" type="line"/>
			<point x="147" y="294" type="line"/>
			<point x="199" y="320"/>
			<point x="233" y="333"/>
			<point x="288" y="333" type="curve" smooth="yes"/>
			<point x="363" y="333"/>
			<point x="408" y="295"/>
			<point x="408" y="219" type="curve" smooth="yes"/>
			<point x="408" y="118"/>
			<point x="327" y="64"/>
			<point x="242" y="64" type="curve" smooth="yes"/>
			<point x="168" y="64"/>
			<point x="113" y="100"/>
			<point x="78" y="147" type="curve"/>
			<point x="19" y="98" type="line"/>
			<point x="67" y="31"/>
			<point x="144" y="-12"/>
		</contour>
	</outline>
</glyph>
<glyph name="six" format="2">
	<unicode hex="0036"/>
	<advance width="600"/>
	<outline>
		<contour>
			<point x="274" y="-12" type="curve" smooth="yes"/>
			<point x="411" y="-12"/>
			<point x="512" y="99"/>
			<point x="512" y="229" type="curve" smooth="yes"/>
			<point x="512" y="347"/>
			<point x="431" y="397"/>
			<point x="340" y="397" type="curve" smooth="yes"/>
			<point x="268" y="397"/>
			<point x="193" y="356"/>
			<point x="149" y="301" type="curve"/>
			<point x="143" y="231" type="line"/>
			<point x="196" y="300"/>
			<point x="256" y="331"/>
			<point x="317" y="331" type="curve" smooth="yes"/>
			<point x="377" y="331"/>
			<point x="426" y="296"/>
			<point x="426" y="219" type="curve" smooth="yes"/>
			<point x="426" y="140"/>
			<point x="369" y="59"/>
			<point x="279" y="59" type="curve" smooth="yes"/>
			<point x="204" y="59"/>
			<point x="149" y="113"/>
			<point x="149" y="214" type="curve" smooth="yes"/>
			<point x="149" y="463"/>
			<point x="270" y="574"/>
			<point x="385" y="574" type="curve" smooth="yes"/>
			<point x="434" y="574"/>
			<point x="471" y="556"/>
			<point x="502" y="514" type="curve"/>
			<point x="561" y="563" type="line"/>
			<point x="529" y="610"/>
			<point x="470" y="649"/>
			<point x="391" y="649" type="curve" smooth="yes"/>
			<point x="216" y="649"/>
			<point x="62" y="499"/>
			<point x="62" y="219" type="curve" smooth="yes"/>
			<point x="62" y="78"/>
			<point x="148" y="-12"/>
		</contour>
	</outline>
</glyph>
<glyph name="seven" format="2">
	<unicode hex="0037"/>
	<advance width="600"/>
	<outline>
		<contour>
			<point x="147" y="0" type="curve"/>
			<point x="246" y="0" type="line"/>
			<point x="307" y="256"/>
			<point x="363" y="388"/>
			<point x="569" y="579" type="curve"/>
			<point x="581" y="637" type="line"/>
			<point x="126" y="637" type="line"/>
			<point x="110" y="559" type="line"/>
			<point x="477" y="559" type="line"/>
			<point x="463" y="567" type="line"/>
			<point x="291" y="405"/>
			<point x="208" y="255"/>
		</contour>
	</outline>
</glyph>
<glyph name="nine" format="1">
	<unicode hex="0039"/>
	<advance width="600"/>
	<outline>
		<contour>
			<point x="210" y="-12" type="curve" smooth="yes"/>
			<point x="385" y="-12"/>
			<point x="539" y="139"/>
			<point x="539" y="418" type="curve" smooth="yes"/>
			<point x="539" y="559"/>
			<point x="453" y="649"/>
			<point x="327" y="649" type="curve" smooth="yes"/>
			<point x="190" y="649"/>
			<point x="89" y="538"/>
			<point x="89" y="408" type="curve" smooth="yes"/>
			<point x="89" y="290"/>
			<point x="170" y="240"/>
			<point x="261" y="240" type="curve" smooth="yes"/>
			<point x="333" y="240"/>
			<point x="408" y="281"/>
			<point x="452" y="336" type="curve"/>
			<point x="458" y="406" type="line"/>
			<point x="405" y="338"/>
			<point x="345" y="306"/>
			<point x="284" y="306" type="curve" smooth="yes"/>
			<point x="224" y="306"/>
			<point x="175" y="341"/>
			<point x="175" y="418" type="curve" smooth="yes"/>
			<point x="175" y="497"/>
			<point x="232" y="578"/>
			<point x="322" y="578" type="curve" smooth="yes"/>
			<point x="397" y="578"/>
			<point x="452" y="524"/>
			<point x="452" y="423" type="curve" smooth="yes"/>
			<point x="452" y="174"/>
			<point x="331" y="64"/>
			<point x="216" y="64" type="curve" smooth="yes"/>
			<point x="167" y="64"/>
			<point x="130" y="81"/>
			<point x="99" y="123" type="curve"/>
			<point x="40" y="74" type="line"/>
			<point x="72" y="27"/>
			<point x="131" y="-12"/>
		</contour>
	</outline>
</glyph>
<glyph name="question" format="1">
	<unicode hex="003F"/>
	<advance width="600"/>
	<outline>
		<contour>
			<point x="222" y="238" type="curve"/>
			<point x="300" y="238" type="line"/>
			<point x="304" y="304"/>
			<point x="342" y="332"/>
			<point x="395" y="374" type="curve" smooth="yes"/>
			<point x="459" y="423"/>
			<point x="523" y="466"/>
			<point x="523" y="555" type="curve" smooth="yes"/>
			<point x="523" y="634"/>
			<point x="461" y="682"/>
			<point x="367" y="682" type="curve" smooth="yes"/>
			<point x="282" y="682"/>
			<point x="220" y="645"/>
			<point x="171" y="586" type="curve"/>
			<point x="221" y="540" type="line"/>
			<point x="261" y="582"/>
			<point x="298" y="606"/>
			<point x="351" y="606" type="curve" smooth="yes"/>
			<point x="405" y="606"/>
			<point x="431" y="577"/>
			<point x="431" y="536" type="curve" smooth="yes"/>
			<point x="431" y="487"/>
			<point x="393" y="459"/>
			<point x="343" y="420" type="curve" smooth="yes"/>
			<point x="286" y="377"/>
			<point x="224" y="328"/>
		</contour>
		<contour>
			<point x="225" y="-12" type="curve" smooth="yes"/>
			<point x="275" y="-12"/>
			<point x="314" y="32"/>
			<point x="314" y="81" type="curve" smooth="yes"/>
			<point x="314" y="121"/>
			<point x="288" y="149"/>
			<point x="251" y="149" type="curve" smooth="yes"/>
			<point x="200" y="149"/>
			<point x="161" y="105"/>
			<point x="161" y="55" type="curve" smooth="yes"/>
			<point x="161" y="16"/>
			<point x="187" y="-12"/>
		</contour>
	</outline>
</glyph>
<glyph name="at" format="1">
	<unicode hex="0040"/>
	<advance width="600"/>
	<outline>
		<contour>
			<point x="275" y="-145" type="curve" smooth="yes"/>
			<point x="342" y="-145"/>
			<point x="399" y="-123"/>
			<point x="444" y="-89" type="curve"/>
			<point x="414" y="-38" type="line"/>
			<point x="376" y="-67"/>
			<point x="335" y="-85"/>
			<point x="285" y="-85" type="curve" smooth="yes"/>
			<point x="173" y="-85"/>
			<point x="92" y="3"/>
			<point x="92" y="160" type="curve" smooth="yes"/>
			<point x="92" y="418"/>
			<point x="244" y="579"/>
			<point x="384" y="579" type="curve" smooth="yes"/>
			<point x="479" y="579"/>
			<point x="511" y="529"/>
			<point x="511" y="457" type="curve" smooth="yes"/>
			<point x="511" y="439"/>
			<point x="508" y="419"/>
			<point x="501" y="388" type="curve"/>
			<point x="298" y="365"/>
			<point x="204" y="306"/>
			<point x="204" y="192" type="curve" smooth="yes"/>
			<point x="204" y="125"/>
			<point x="255" y="88"/>
			<point x="315" y="88" type="curve" smooth="yes"/>
			<point x="372" y="88"/>
			<point x="417" y="117"/>
			<point x="454" y="157" type="curve"/>
			<point x="458" y="157" type="line"/>
			<point x="454" y="100" type="line"/>
			<point x="506" y="100" type="line"/>
			<point x="565" y="395" type="line" smooth="yes"/>
			<point x="570" y="420"/>
			<point x="573" y="443"/>
			<point x="573" y="467" type="curve" smooth="yes"/>
			<point x="573" y="572"/>
			<point x="517" y="637"/>
			<point x="392" y="637" type="curve" smooth="yes"/>
			<point x="198" y="637"/>
			<point x="22" y="451"/>
			<point x="22" y="151" type="curve" smooth="yes"/>
			<point x="22" y="-41"/>
			<point x="126" y="-145"/>
		</contour>
		<contour>
			<point x="341" y="149" type="curve" smooth="yes"/>
			<point x="304" y="149"/>
			<point x="276" y="168"/>
			<point x="276" y="208" type="curve" smooth="yes"/>
			<point x="276" y="272"/>
			<point x="334" y="313"/>
			<point x="485" y="335" type="curve"/>
			<point x="460" y="210" type="line"/>
			<point x="416" y="169"/>
			<point x="378" y="149"/>
		</contour>
	</outline>
</glyph>
<glyph name="A" format="2">
	<unicode hex="0041"/>
	<advance width="600"/>
	<outline>
		<contour>
			<point x="-28" y="0" type="line"/>
			<point x="74" y="0" type="line"/>
			<point x="259" y="373" type="line" smooth="yes"/>
			<point x="293" y="443"/>
			<point x="324" y="510"/>
			<point x="358" y="580" type="curve"/>
			<point x="363" y="580" type="line"/>
			<point x="369" y="510"/>
			<point x="374" y="439"/>
			<point x="380" y="371" type="curve" smooth="yes"/>
			<point x="411" y="0" type="line"/>
			<point x="508" y="0" type="line"/>
			<point x="431" y="655" type="line"/>
			<point x="322" y="655" type="line"/>
		</contour>
		<contour>
			<point x="133" y="194" type="line"/>
			<point x="427" y="194" type="line"/>
			<point x="441" y="266" type="line"/>
			<point x="150" y="266" type="line"/>
		</contour>
	</outline>
	<anchor name="aboveUC" x="372" y="675"/>
	<anchor name="baseLC" x="462" y="0"/>
	<anchor name="belowLC" x="250" y="-20"/>
	<anchor name="ogonekUC" x="444" y="0"/>
</glyph>
<glyph name="D" format="1">
	<unicode hex="0044"/>
	<advance width="600"/>
	<outline>
		<contour>
			<point x="19" y="0" type="line"/>
			<point x="203" y="0" type="line" smooth="yes"/>
			<point x="422" y="0"/>
			<point x="559" y="156"/>
			<point x="559" y="399" type="curve" smooth="yes"/>
			<point x="559" y="564"/>
			<point x="462" y="655"/>
			<point x="285" y="655" type="curve" smooth="yes"/>
			<point x="150" y="655" type="line"/>
		</contour>
		<contour>
			<point x="127" y="76" type="line"/>
			<point x="228" y="580" type="line"/>
			<point x="282" y="580" type="line" smooth="yes"/>
			<point x="398" y="580"/>
			<point x="464" y="514"/>
			<point x="464" y="393" type="curve" smooth="yes"/>
			<point x="464" y="193"/>
			<point x="361" y="76"/>
			<point x="203" y="76" type="curve" smooth="yes"/>
		</contour>
		<contour>
			<point name="aboveUC" x="365" y="675" type="move"/>
		</contour>
		<contour>
			<point name="baseLC" x="225" y="0" type="move"/>
		</contour>
		<contour>
			<point name="belowLC" x="230" y="-20" type="move"/>
		</contour>
	</outline>
</glyph>
<glyph name="F" format="2">
	<unicode hex="0046"/>
	<advance width="600"/>
	<outline>
		<contour>
			<point x="73" y="0" type="line"/>
			<point x="166" y="0" type="line"/>
			<point x="224" y="288" type="line"/>
			<point x="483" y="288" type="line"/>
			<point x="499" y="367" type="line"/>
			<point x="239" y="367" type="line"/>
			<point x="280" y="577" type="line"/>
			<point x="592" y="577" type="line"/>
			<point x="608" y="655" type="line"/>
			<point x="204" y="655" type="line"/>
		</contour>
	</outline>
	<anchor name="aboveUC" x="413" y="675"/>
	<anchor name="baseLC" x="122" y="0"/>
	<anchor name="belowLC" x="125" y="-20"/>
</glyph>
<glyph name="G" format="2">
	<unicode hex="0047"/>
	<advance width="600"/>
	<outline>
		<contour>
			<point x="298" y="-12" type="curve" smooth="yes"/>
			<point x="375" y="-12"/>
			<point x="441" y="16"/>
			<point x="489" y="55" type="curve"/>
			<point x="547" y="346" type="line"/>
			<point x="335" y="346" type="line"/>
			<point x="320" y="270" type="line"/>
			<point x="448" y="270" type="line"/>
			<point x="414" y="103" type="line"/>
			<point x="390" y="83"/>
			<point x="355" y="67"/>
			<point x="313" y="67" type="curve" smooth="yes"/>
			<point x="197" y="67"/>
			<point x="153" y="150"/>
			<point x="153" y="263" type="curve" smooth="yes"/>
			<point x="153" y="418"/>
			<point x="248" y="587"/>
			<point x="397" y="587" type="curve" smooth="yes"/>
			<point x="448" y="587"/>
			<point x="482" y="560"/>
			<point x="507" y="519" type="curve"/>
			<point x="572" y="568" type="line"/>
			<point x="538" y="626"/>
			<point x="482" y="667"/>
			<point x="402" y="667" type="curve" smooth="yes"/>
			<point x="194" y="667"/>
			<point x="57" y="468"/>
			<point x="57" y="255" type="curve" smooth="yes"/>
			<point x="57" y="92"/>
			<point x="143" y="-12"/>
		</contour>
	</outline>
	<anchor name="aboveUC" x="394" y="675"/>
	<anchor name="belowLC" x="297" y="-20"/>
</glyph>
<glyph name="H" format="2">
	<unicode hex="0048"/>
	<advance width="600"/>
	<outline>
		<contour>
			<point x="14" y="0" type="line"/>
			<point x="108" y="0" type="line"/>
			<point x="168" y="303" type="line"/>
			<point x="429" y="303" type="line"/>
			<point x="367" y="0" type="line"/>
			<point x="461" y="0" type="line"/>
			<point x="592" y="655" type="line"/>
			<point x="498" y="655" type="line"/>
			<point x="444" y="384" type="line"/>
			<point x="184" y="384" type="line"/>
			<point x="239" y="655" type="line"/>
			<point x="145" y="655" type="line"/>
		</contour>
	</outline>
	<anchor name="aboveUC" x="372" y="675"/>
	<anchor name="baseLC" x="64" y="0"/>
	<anchor name="belowLC" x="234" y="-20"/>
</glyph>
<glyph name="I" format="2">
	<unicode hex="0049"/>
	<advance width="600"/>
	<outline>
		<contour>
			<point x="30" y="0" type="line"/>
			<point x="444" y="0" type="line"/>
			<point x="461" y="78" type="line"/>
			<point x="299" y="78" type="line"/>
			<point x="399" y="577" type="line"/>
			<point x="561" y="577" type="line"/>
			<point x="577" y="655" type="line"/>
			<point x="162" y="655" type="line"/>
			<point x="145" y="577" type="line"/>
			<point x="306" y="577" type="line"/>
			<point x="206" y="78" type="line"/>
			<point x="46" y="78" type="line"/>
		</contour>
	</outline>
	<anchor name="aboveUC" x="372" y="675"/>
	<anchor name="baseLC" x="238" y="0"/>
	<anchor name="belowLC" x="234" y="-20"/>
	<anchor name="ogonekUC" x="238" y="0"/>
</glyph>
<glyph name="K" format="2">
	<unicode hex="004B"/>
	<advance width="600"/>
	<outline>
		<contour>
			<point x="623" y="655" type="line"/>
			<point x="519" y="655" type="line"/>
			<point x="197" y="331" type="line"/>
			<point x="193" y="331" type="line"/>
			<point x="259" y="655" type="line"/>
			<point x="166" y="655" type="line"/>
			<point x="35" y="0" type="line"/>
			<point x="127" y="0" type="line"/>
			<point x="168" y="204" type="line"/>
		</contour>
		<contour>
			<point x="278" y="339" type="line"/>
			<point x="418" y="0" type="line"/>
			<point x="523" y="0" type="line"/>
			<point x="346" y="411" type="line"/>
		</contour>
	</outline>
	<anchor name="aboveUC" x="385" y="675"/>
	<anchor name="belowLC" x="283" y="-20"/>
</glyph>
<glyph name="L" format="1">
	<unicode hex="004C"/>
	<advance width="600"/>
	<outline>
		<contour>
			<point x="90" y="0" type="line"/>
			<point x="500" y="0" type="line"/>
			<point x="516" y="78" type="line"/>
			<point x="199" y="78" type="line"/>
			<point x="314" y="655" type="line"/>
			<point x="221" y="655" type="line"/>
		</contour>
		<contour>
			<point name="aboveUC" x="273" y="675" type="move"/>
		</contour>
		<contour>
			<point name="center" x="203" y="340" type="move"/>
		</contour>
		<contour>
			<point name="baseLC" x="311" y="0" type="move"/>
		</contour>
		<contour>
			<point name="belowLC" x="301" y="-20" type="move"/>
		</contour>
	</outline>
</glyph>
<glyph name="M" format="2">
	<unicode hex="004D"/>
	<advance width="600"/>
	<outline>
		<contour>
			<point x="11" y="0" type="line"/>
			<point x="93" y="0" type="line"/>
			<point x="167" y="360" type="line" smooth="yes"/>
			<point x="175" y="402"/>
			<point x="185" y="491"/>
			<point x="191" y="555" type="curve"/>
			<point x="195" y="555" type="line"/>
			<point x="199" y="527"/>
			<point x="205" y="437"/>
			<point x="208" y="410" type="curve" smooth="yes"/>
			<point x="238" y="177" type="line"/>
			<point x="306" y="177" type="line"/>
			<point x="432" y="417" type="line" smooth="yes"/>
			<point x="452" y="454"/>
			<point x="488" y="528"/>
			<point x="501" y="555" type="curve"/>
			<point x="505" y="555" type="line"/>
			<point x="488" y="499"/>
			<point x="460" y="403"/>
			<point x="449" y="349" type="curve" smooth="yes"/>
			<point x="379" y="0" type="line"/>
			<point x="463" y="0" type="line"/>
			<point x="593" y="655" type="line"/>
			<point x="487" y="655" type="line"/>
			<point x="334" y="372" type="line"/>
			<point x="291" y="276" type="line"/>
			<point x="287" y="276" type="line"/>
			<point x="282" y="374" type="line"/>
			<point x="249" y="655" type="line"/>
			<point x="142" y="655" type="line"/>
		</contour>
	</outline>
</glyph>
<glyph name="N" format="1">
	<unicode hex="004E"/>
	<advance width="600"/>
	<outline>
		<contour>
			<point x="21" y="0" type="line"/>
			<point x="110" y="0" type="line"/>
			<point x="173" y="323" type="line" smooth="yes"/>
			<point x="185" y="386"/>
			<point x="195" y="471"/>
			<point x="204" y="539" type="curve"/>
			<point x="208" y="539" type="line"/>
			<point x="242" y="401" type="line"/>
			<point x="363" y="0" type="line"/>
			<point x="456" y="0" type="line"/>
			<point x="587" y="655" type="line"/>
			<point x="498" y="655" type="line"/>
			<point x="433" y="327" type="line" smooth="yes"/>
			<point x="423" y="273"/>
			<point x="412" y="183"/>
			<point x="404" y="117" type="curve"/>
			<point x="400" y="117" type="line"/>
			<point x="366" y="254" type="line"/>
			<point x="246" y="655" type="line"/>
			<point x="152" y="655" type="line"/>
		</contour>
		<contour>
			<point name="aboveUC" x="371" y="675" type="move"/>
		</contour>
		<contour>
			<point name="baseLC" x="413" y="0" type="move"/>
		</contour>
		<contour>
			<point name="belowLC" x="249" y="-20" type="move"/>
		</contour>
	</outline>
</glyph>
<glyph name="O" format="2">
	<unicode hex="004F"/>
	<advance width="600"/>
	<outline>
		<contour>
			<point x="253" y="-12" type="curve" smooth="yes"/>
			<point x="447" y="-12"/>
			<point x="570" y="194"/>
			<point x="570" y="406" type="curve" smooth="yes"/>
			<point x="570" y="564"/>
			<point x="489" y="667"/>
			<point x="356" y="667" type="curve" smooth="yes"/>
			<point x="161" y="667"/>
			<point x="38" y="461"/>
			<point x="38" y="249" type="curve" smooth="yes"/>
			<point x="38" y="91"/>
			<point x="119" y="-12"/>
		</contour>
		<contour>
			<point x="262" y="68" type="curve" smooth="yes"/>
			<point x="175" y="68"/>
			<point x="133" y="134"/>
			<point x="133" y="243" type="curve" smooth="yes"/>
			<point x="133" y="412"/>
			<point x="215" y="587"/>
			<point x="347" y="587" type="curve" smooth="yes"/>
			<point x="434" y="587"/>
			<point x="475" y="521"/>
			<point x="475" y="412" type="curve" smooth="yes"/>
			<point x="475" y="243"/>
			<point x="394" y="68"/>
		</contour>
	</outline>
	<anchor name="aboveUC" x="372" y="675"/>
	<anchor name="baseLC" x="238" y="0"/>
	<anchor name="belowLC" x="232" y="-20"/>
	<anchor name="hornLC" x="366" y="645"/>
	<anchor name="ogonekUC" x="238" y="0"/>
</glyph>
<glyph name="P" format="1">
	<unicode hex="0050"/>
	<advance width="600"/>
	<outline>
		<contour>
			<point x="46" y="0" type="line"/>
			<point x="139" y="0" type="line"/>
			<point x="190" y="254" type="line"/>
			<point x="287" y="254" type="line" smooth="yes"/>
			<point x="453" y="254"/>
			<point x="577" y="325"/>
			<point x="577" y="492" type="curve" smooth="yes"/>
			<point x="577" y="608"/>
			<point x="490" y="655"/>
			<point x="365" y="655" type="curve" smooth="yes"/>
			<point x="177" y="655" type="line"/>
		</contour>
		<contour>
			<point x="205" y="329" type="line"/>
			<point x="254" y="581" type="line"/>
			<point x="344" y="581" type="line" smooth="yes"/>
			<point x="435" y="581"/>
			<point x="483" y="550"/>
			<point x="483" y="479" type="curve" smooth="yes"/>
			<point x="483" y="380"/>
			<point x="416" y="329"/>
			<point x="290" y="329" type="curve" smooth="yes"/>
		</contour>
		<contour>
			<point name="aboveUC" x="385" y="675" type="move"/>
		</contour>
		<contour>
			<point name="belowLC" x="100" y="-20" type="move"/>
		</contour>
	</outline>
</glyph>
<glyph name="R" format="2">
	<unicode hex="0052"/>
	<advance width="600"/>
	<outline>
		<contour>
			<point x="30" y="0" type="line"/>
			<point x="123" y="0" type="line"/>
			<point x="176" y="268" type="line"/>
			<point x="284" y="268" type="line" smooth="yes"/>
			<point x="427" y="268"/>
			<point x="556" y="345"/>
			<point x="556" y="495" type="curve" smooth="yes"/>
			<point x="556" y="611"/>
			<point x="468" y="655"/>
			<point x="344" y="655" type="curve" smooth="yes"/>
			<point x="161" y="655" type="line"/>
		</contour>
		<contour>
			<point x="192" y="343" type="line"/>
			<point x="238" y="581" type="line"/>
			<point x="325" y="581" type="line" smooth="yes"/>
			<point x="415" y="581"/>
			<point x="462" y="553"/>
			<point x="462" y="486" type="curve" smooth="yes"/>
			<point x="462" y="398"/>
			<point x="395" y="343"/>
			<point x="277" y="343" type="curve" smooth="yes"/>
		</contour>
		<contour>
			<point x="271" y="283" type="line"/>
			<point x="379" y="0" type="line"/>
			<point x="483" y="0" type="line"/>
			<point x="350" y="322" type="line"/>
		</contour>
	</outline>
	<anchor name="aboveUC" x="370" y="675"/>
	<anchor name="baseLC" x="80" y="0"/>
	<anchor name="belowLC" x="260" y="-20"/>
</glyph>
<glyph name="S" format="1">
	<unicode hex="0053"/>
	<advance width="600"/>
	<outline>
		<contour>
			<point x="262" y="-12" type="curve" smooth="yes"/>
			<point x="389" y="-12"/>
			<point x="489" y="61"/>
			<point x="489" y="185" type="curve" smooth="yes"/>
			<point x="489" y="266"/>
			<point x="443" y="312"/>
			<point x="381" y="351" type="curve" smooth="yes"/>
			<point x="304" y="398" type="line" smooth="yes"/>
			<point x="264" y="421"/>
			<point x="231" y="448"/>
			<point x="231" y="494" type="curve" smooth="yes"/>
			<point x="231" y="545"/>
			<point x="276" y="588"/>
			<point x="339" y="588" type="curve" smooth="yes"/>
			<point x="402" y="588"/>
			<point x="449" y="555"/>
			<point x="481" y="515" type="curve"/>
			<point x="542" y="567" type="line"/>
			<point x="502" y="623"/>
			<point x="429" y="667"/>
			<point x="342" y="667" type="curve" smooth="yes"/>
			<point x="223" y="667"/>
			<point x="136" y="591"/>
			<point x="136" y="487" type="curve" smooth="yes"/>
			<point x="136" y="409"/>
			<point x="186" y="358"/>
			<point x="243" y="324" type="curve" smooth="yes"/>
			<point x="315" y="281" type="line" smooth="yes"/>
			<point x="363" y="253"/>
			<point x="394" y="224"/>
			<point x="394" y="177" type="curve" smooth="yes"/>
			<point x="394" y="110"/>
			<point x="338" y="68"/>
			<point x="262" y="68" type="curve" smooth="yes"/>
			<point x="190" y="68"/>
			<point x="135" y="101"/>
			<point x="96" y="161" type="curve"/>
			<point x="34" y="108" type="line"/>
			<point x="79" y="36"/>
			<point x="155" y="-12"/>
		</contour>
		<contour>
			<point name="aboveUC" x="357" y="675" type="move"/>
		</contour>
		<contour>
			<point name="baseLC" x="260" y="0" type="move"/>
		</contour>
		<contour>
			<point name="belowLC" x="260" y="-20" type="move"/>
		</contour>
	</outline>
</glyph>
<glyph name="T" format="2">
	<unicode hex="0054"/>
	<advance width="600"/>
	<outline>
		<contour>
			<point x="191" y="0" type="line"/>
			<point x="284" y="0" type="line"/>
			<point x="398" y="576" type="line"/>
			<point x="611" y="576" type="line"/>
			<point x="627" y="655" type="line"/>
			<point x="108" y="655" type="line"/>
			<point x="93" y="576" type="line"/>
			<point x="305" y="576" type="line"/>
		</contour>
	</outline>
	<anchor name="aboveUC" x="372" y="675"/>
	<anchor name="baseLC" x="239" y="0"/>
	<anchor name="belowLC" x="235" y="-20"/>
</glyph>
<glyph name="V" format="1">
	<unicode hex="0056"/>
	<advance width="600"/>
	<outline>
		<contour>
			<point x="177" y="0" type="line"/>
			<point x="289" y="0" type="line"/>
			<point x="636" y="655" type="line"/>
			<point x="535" y="655" type="line"/>
			<point x="359" y="302" type="line" smooth="yes"/>
			<point x="329" y="242"/>
			<point x="287" y="156"/>
			<point x="255" y="88" type="curve"/>
			<point x="251" y="88" type="line"/>
			<point x="247" y="159"/>
			<point x="242" y="232"/>
			<point x="237" y="302" type="curve" smooth="yes"/>
			<point x="210" y="655" type="line"/>
			<point x="114" y="655" type="line"/>
		</contour>
		<contour>
			<point name="aboveUC" x="367" y="675" type="move"/>
		</contour>
		<contour>
			<point name="belowLC" x="232" y="-20" type="move"/>
		</contour>
	</outline>
</glyph>
<glyph name="X" format="1">
	<unicode hex="0058"/>
	<advance width="600"/>
	<outline>
		<contour>
			<point x="-11" y="0" type="line"/>
			<point x="92" y="0" type="line"/>
			<point x="218" y="170" type="line" smooth="yes"/>
			<point x="239" y="198"/>
			<point x="264" y="237"/>
			<point x="287" y="273" type="curve"/>
			<point x="291" y="273" type="line"/>
			<point x="302" y="243"/>
			<point x="318" y="195"/>
			<point x="327" y="171" type="curve" smooth="yes"/>
			<point x="393" y="0" type="line"/>
			<point x="494" y="0" type="line"/>
			<point x="360" y="329" type="line"/>
			<point x="609" y="656" type="line"/>
			<point x="507" y="656" type="line"/>
			<point x="386" y="494" type="line" smooth="yes"/>
			<point x="371" y="473"/>
			<point x="343" y="426"/>
			<point x="322" y="394" type="curve"/>
			<point x="318" y="394" type="line"/>
			<point x="308" y="424"/>
			<point x="296" y="466"/>
			<point x="285" y="494" type="curve" smooth="yes"/>
			<point x="224" y="656" type="line"/>
			<point x="122" y="656" type="line"/>
			<point x="248" y="344" type="line"/>
		</contour>
		<contour>
			<point name="aboveUC" x="367" y="675" type="move"/>
		</contour>
		<contour>
			<point name="baseLC" x="448" y="0" type="move"/>
		</contour>
		<contour>
			<point name="belowLC" x="242" y="-20" type="move"/>
		</contour>
	</outline>
</glyph>
<glyph name="Y" format="1">
	<unicode hex="0059"/>
	<advance width="600"/>
	<outline>
		<contour>
			<point x="191" y="0" type="line"/>
			<point x="284" y="0" type="line"/>
			<point x="327" y="214" type="line"/>
			<point x="631" y="656" type="line"/>
			<point x="533" y="656" type="line"/>
			<point x="402" y="462" type="line" smooth="yes"/>
			<point x="367" y="408"/>
			<point x="327" y="344"/>
			<point x="300" y="300" type="curve"/>
			<point x="296" y="300" type="line"/>
			<point x="286" y="346"/>
			<point x="270" y="409"/>
			<point x="255" y="462" type="curve" smooth="yes"/>
			<point x="200" y="656" type="line"/>
			<point x="104" y="656" type="line"/>
			<point x="237" y="224" type="line"/>
		</contour>
		<contour>
			<point name="aboveUC" x="360" y="675" type="move"/>
		</contour>
		<contour>
			<point name="ogonekUC" x="239" y="0" type="move"/>
		</contour>
		<contour>
			<point name="belowLC" x="234" y="-20" type="move"/>
		</contour>
	</outline>
</glyph>
<glyph name="Z" format="2">
	<unicode hex="005A"/>
	<advance width="600"/>
	<outline>
		<contour>
			<point x="132" y="52" type="line"/>
			<point x="577" y="600" type="line"/>
			<point x="589" y="656" type="line"/>
			<point x="139" y="656" type="line"/>
			<point x="123" y="578" type="line"/>
			<point x="511" y="578" type="line"/>
			<point x="477" y="612" type="line"/>
			<point x="26" y="55" type="line"/>
			<point x="14" y="0" type="line"/>
			<point x="485" y="0" type="line"/>
			<point x="502" y="78" type="line"/>
			<point x="107" y="78" type="line"/>
		</contour>
	</outline>
	<anchor name="aboveUC" x="360" y="675"/>
	<anchor name="baseLC" x="280" y="0"/>
	<anchor name="belowLC" x="265" y="-20"/>
</glyph>
<glyph name="bracketleft" format="1">
	<unicode hex="005B"/>
	<advance width="600"/>
	<outline>
		<contour>
			<point x="123" y="-152" type="line"/>
			<point x="400" y="-152" type="line"/>
			<point x="410" y="-100" type="line"/>
			<point x="204" y="-100" type="line"/>
			<point x="355" y="656" type="line"/>
			<point x="562" y="656" type="line"/>
			<point x="572" y="708" type="line"/>
			<point x="296" y="708" type="line"/>
		</contour>
	</outline>
</glyph>
<glyph name="asciicircum" format="2">
	<unicode hex="005E"/>
	<advance width="600"/>
	<outline>
		<contour>
			<point x="107" y="282" type="line"/>
			<point x="187" y="282" type="line"/>
			<point x="249" y="451" type="line"/>
			<point x="298" y="584" type="line"/>
			<point x="302" y="584" type="line"/>
			<point x="351" y="451" type="line"/>
			<point x="413" y="282" type="line"/>
			<point x="493" y="282" type="line"/>
			<point x="340" y="670" type="line"/>
			<point x="260" y="670" type="line"/>
		</contour>
	</outline>
</glyph>
<glyph name="underscore" format="1">
	<unicode hex="005F"/>
	<advance width="600"/>
	<outline>
		<contour>
			<point x="-29" y="-143" type="line"/>
			<point x="451" y="-143" type="line"/>
			<point x="466" y="-67" type="line"/>
			<point x="-14" y="-67" type="line"/>
		</contour>
	</outline>
</glyph>
<glyph name="c" format="1">
	<unicode hex="0063"/>
	<advance width="600"/>
	<outline>
		<contour>
			<point x="293" y="-12" type="curve" smooth="yes"/>
			<point x="367" y="-12"/>
			<point x="438" y="19"/>
			<point x="488" y="66" type="curve"/>
			<point x="452" y="129" type="line"/>
			<point x="409" y="91"/>
			<point x="360" y="65"/>
			<point x="305" y="65" type="curve" smooth="yes"/>
			<point x="222" y="65"/>
			<point x="158" y="113"/>
			<point x="158" y="213" type="curve" smooth="yes"/>
			<point x="158" y="331"/>
			<point x="256" y="424"/>
			<point x="351" y="424" type="curve" smooth="yes"/>
			<point x="409" y="424"/>
			<point x="453" y="403"/>
			<point x="488" y="361" type="curve"/>
			<point x="546" y="413" type="line"/>
			<point x="511" y="459"/>
			<point x="447" y="501"/>
			<point x="361" y="501" type="curve" smooth="yes"/>
			<point x="206" y="501"/>
			<point x="65" y="381"/>
			<point x="65" y="203" type="curve" smooth="yes"/>
			<point x="65" y="60"/>
			<point x="165" y="-12"/>
		</contour>
		<contour>
			<point name="aboveLC" x="367" y="510" type="move"/>
		</contour>
		<contour>
			<point name="baseLC" x="275" y="0" type="move"/>
		</contour>
		<contour>
			<point name="belowLC" x="273" y="-20" type="move"/>
		</contour>
	</outline>
</glyph>
<glyph name="d" format="2">
	<unicode hex="0064"/>
	<advance width="600"/>
	<outline>
		<contour>
			<point x="213" y="-12" type="curve" smooth="yes"/>
			<point x="274" y="-12"/>
			<point x="337" y="21"/>
			<point x="387" y="72" type="curve"/>
			<point x="391" y="72" type="line"/>
			<point x="385" y="0" type="line"/>
			<point x="460" y="0" type="line"/>
			<point x="604" y="709" type="line"/>
			<point x="511" y="709" type="line"/>
			<point x="475" y="527" type="line"/>
			<point x="460" y="432" type="line"/>
			<point x="457" y="432" type="line"/>
			<point x="430" y="474"/>
			<point x="383" y="501"/>
			<point x="315" y="501" type="curve" smooth="yes"/>
			<point x="168" y="501"/>
			<point x="48" y="352"/>
			<point x="48" y="176" type="curve" smooth="yes"/>
			<point x="48" y="54"/>
			<point x="113" y="-12"/>
		</contour>
		<contour>
			<point x="244" y="65" type="curve" smooth="yes"/>
			<point x="182" y="65"/>
			<point x="143" y="104"/>
			<point x="143" y="189" type="curve" smooth="yes"/>
			<point x="143" y="314"/>
			<point x="225" y="424"/>
			<point x="328" y="424" type="curve" smooth="yes"/>
			<point x="369" y="424"/>
			<point x="412" y="405"/>
			<point x="441" y="358" type="curve"/>
			<point x="399" y="154" type="line"/>
			<point x="350" y="95"/>
			<point x="292" y="65"/>
		</contour>
	</outline>
	<anchor name="aboveUC" x="555" y="735"/>
	<anchor name="baseLC" x="231" y="0"/>
	<anchor name="belowLC" x="249" y="-20"/>
</glyph>
<glyph name="e" format="2">
	<unicode hex="0065"/>
	<advance width="600"/>
	<outline>
		<contour>
			<point x="269" y="-12" type="curve" smooth="yes"/>
			<point x="355" y="-12"/>
			<point x="432" y="19"/>
			<point x="483" y="59" type="curve"/>
			<point x="450" y="121" type="line"/>
			<point x="405" y="86"/>
			<point x="351" y="60"/>
			<point x="289" y="60" type="curve" smooth="yes"/>
			<point x="207" y="60"/>
			<point x="150" y="109"/>
			<point x="150" y="205" type="curve" smooth="yes"/>
			<point x="150" y="342"/>
			<point x="248" y="428"/>
			<point x="335" y="428" type="curve" smooth="yes"/>
			<point x="401" y="428"/>
			<point x="442" y="386"/>
			<point x="442" y="315" type="curve" smooth="yes"/>
			<point x="442" y="300"/>
			<point x="440" y="285"/>
			<point x="436" y="271" type="curve"/>
			<point x="470" y="288" type="line"/>
			<point x="140" y="288" type="line"/>
			<point x="129" y="220" type="line"/>
			<point x="514" y="220" type="line"/>
			<point x="519" y="234"/>
			<point x="528" y="276"/>
			<point x="528" y="312" type="curve" smooth="yes"/>
			<point x="528" y="421"/>
			<point x="460" y="501"/>
			<point x="339" y="501" type="curve" smooth="yes"/>
			<point x="190" y="501"/>
			<point x="59" y="377"/>
			<point x="59" y="201" type="curve" smooth="yes"/>
			<point x="59" y="61"/>
			<point x="143" y="-12"/>
		</contour>
	</outline>
</glyph>
<glyph name="k" format="1">
	<unicode hex="006B"/>
	<advance width="600"/>
	<outline>
		<contour>
			<point x="42" y="0" type="line"/>
			<point x="134" y="0" type="line"/>
			<point x="159" y="125" type="line"/>
			<point x="334" y="266" type="line"/>
			<point x="591" y="489" type="line"/>
			<point x="481" y="489" type="line"/>
			<point x="187" y="244" type="line"/>
			<point x="183" y="244" type="line"/>
			<point x="276" y="709" type="line"/>
			<point x="184" y="709" type="line"/>
		</contour>
		<contour>
			<point x="292" y="250" type="line"/>
			<point x="417" y="0" type="line"/>
			<point x="513" y="0" type="line"/>
			<point x="353" y="312" type="line"/>
		</contour>
		<contour>
			<point name="aboveUC" x="229" y="730" type="move"/>
		</contour>
		<contour>
			<point name="belowLC" x="277" y="-20" type="move"/>
		</contour>
	</outline>
</glyph>
<glyph name="m" format="1">
	<unicode hex="006D"/>
	<advance width="600"/>
	<outline>
		<contour>
			<point x="-5" y="0" type="line"/>
			<point x="84" y="0" type="line"/>
			<point x="152" y="349" type="line"/>
			<point x="186" y="398"/>
			<point x="213" y="422"/>
			<point x="247" y="422" type="curve" smooth="yes"/>
			<point x="266" y="422"/>
			<point x="278" y="410"/>
			<point x="278" y="381" type="curve" smooth="yes"/>
			<point x="278" y="371"/>
			<point x="278" y="361"/>
			<point x="275" y="347" type="curve" smooth="yes"/>
			<point x="203" y="0" type="line"/>
			<point x="286" y="0" type="line"/>
			<point x="357" y="349" type="line"/>
			<point x="389" y="397"/>
			<point x="416" y="422"/>
			<point x="448" y="422" type="curve" smooth="yes"/>
			<point x="468" y="422"/>
			<point x="479" y="410"/>
			<point x="479" y="381" type="curve" smooth="yes"/>
			<point x="479" y="371"/>
			<point x="478" y="361"/>
			<point x="475" y="347" type="curve" smooth="yes"/>
			<point x="405" y="0" type="line"/>
			<point x="494" y="0" type="line"/>
			<point x="567" y="361" type="line" smooth="yes"/>
			<point x="572" y="384"/>
			<point x="573" y="397"/>
			<point x="573" y="415" type="curve" smooth="yes"/>
			<point x="573" y="473"/>
			<point x="544" y="501"/>
			<point x="496" y="501" type="curve" smooth="yes"/>
			<point x="447" y="501"/>
			<point x="397" y="474"/>
			<point x="350" y="408" type="curve"/>
			<point x="362" y="419" type="line"/>
			<point x="360" y="476"/>
			<point x="335" y="501"/>
			<point x="290" y="501" type="curve" smooth="yes"/>
			<point x="238" y="501"/>
			<point x="195" y="470"/>
			<point x="159" y="423" type="curve"/>
			<point x="156" y="423" type="line"/>
			<point x="161" y="489" type="line"/>
			<point x="92" y="489" type="line"/>
		</contour>
		<contour>
			<point name="aboveLC" x="350" y="509" type="move"/>
		</contour>
		<contour>
			<point name="baseLC" x="451" y="0" type="move"/>
		</contour>
		<contour>
			<point name="belowLC" x="245" y="-20" type="move"/>
		</contour>
	</outline>
</glyph>
<glyph name="p" format="2">
	<unicode hex="0070"/>
	<advance width="600"/>
	<outline>
		<contour>
			<point x="-9" y="-200" type="line"/>
			<point x="83" y="-200" type="line"/>
			<point x="112" y="-47" type="line"/>
			<point x="129" y="55" type="line"/>
			<point x="132" y="55" type="line"/>
			<point x="162" y="15"/>
			<point x="215" y="-12"/>
			<point x="274" y="-12" type="curve" smooth="yes"/>
			<point x="434" y="-12"/>
			<point x="541" y="130"/>
			<point x="541" y="308" type="curve" smooth="yes"/>
			<point x="541" y="432"/>
			<point x="477" y="501"/>
			<point x="376" y="501" type="curve" smooth="yes"/>
			<point x="310" y="501"/>
			<point x="251" y="462"/>
			<point x="201" y="415" type="curve"/>
			<point x="197" y="415" type="line"/>
			<point x="204" y="489" type="line"/>
			<point x="129" y="489" type="line"/>
		</contour>
		<contour>
			<point x="267" y="65" type="curve" smooth="yes"/>
			<point x="223" y="65"/>
			<point x="179" y="82"/>
			<point x="149" y="128" type="curve"/>
			<point x="191" y="334" type="line"/>
			<point x="239" y="392"/>
			<point x="297" y="424"/>
			<point x="343" y="424" type="curve" smooth="yes"/>
			<point x="405" y="424"/>
			<point x="446" y="382"/>
			<point x="446" y="295" type="curve" smooth="yes"/>
			<point x="446" y="168"/>
			<point x="369" y="65"/>
		</contour>
	</outline>
	<anchor name="aboveLC" x="364" y="510"/>
	<anchor name="belowLC" x="41" y="-215"/>
</glyph>
<glyph name="t" format="1">
	<unicode hex="0074"/>
	<advance width="600"/>
	<outline>
		<contour>
			<point x="308" y="-12" type="curve" smooth="yes"/>
			<point x="378" y="-12"/>
			<point x="442" y="7"/>
			<point x="484" y="34" type="curve"/>
			<point x="455" y="100" type="line"/>
			<point x="422" y="80"/>
			<point x="379" y="65"/>
			<point x="333" y="65" type="curve" smooth="yes"/>
			<point x="281" y="65"/>
			<point x="248" y="91"/>
			<point x="248" y="150" type="curve" smooth="yes"/>
			<point x="248" y="163"/>
			<point x="249" y="175"/>
			<point x="253" y="193" type="curve" smooth="yes"/>
			<point x="299" y="415" type="line"/>
			<point x="532" y="415" type="line"/>
			<point x="547" y="489" type="line"/>
			<point x="315" y="489" type="line"/>
			<point x="347" y="644" type="line"/>
			<point x="271" y="644" type="line"/>
			<point x="227" y="489" type="line"/>
			<point x="83" y="484" type="line"/>
			<point x="70" y="415" type="line"/>
			<point x="208" y="415" type="line"/>
			<point x="163" y="194" type="line" smooth="yes"/>
			<point x="158" y="170"/>
			<point x="155" y="151"/>
			<point x="155" y="130" type="curve" smooth="yes"/>
			<point x="155" y="45"/>
			<point x="201" y="-12"/>
		</contour>
		<contour>
			<point name="aboveLC" x="302" y="637" type="move"/>
		</contour>
		<contour>
			<point name="baseLC" x="307" y="0" type="move"/>
		</contour>
		<contour>
			<point name="belowLC" x="307" y="-20" type="move"/>
		</contour>
	</outline>
</glyph>
<glyph name="w" format="2">
	<unicode hex="0077"/>
	<advance width="600"/>
	<outline>
		<contour>
			<point x="51" y="0" type="line"/>
			<point x="167" y="0" type="line"/>
			<point x="262" y="232" type="line" smooth="yes"/>
			<point x="282" y="282"/>
			<point x="292" y="314"/>
			<point x="309" y="367" type="curve"/>
			<point x="313" y="367" type="line"/>
			<point x="312" y="316"/>
			<point x="310" y="278"/>
			<point x="311" y="232" type="curve" smooth="yes"/>
			<point x="314" y="0" type="line"/>
			<point x="426" y="0" type="line"/>
			<point x="623" y="489" type="line"/>
			<point x="535" y="489" type="line"/>
			<point x="430" y="214" type="line" smooth="yes"/>
			<point x="412" y="166"/>
			<point x="399" y="124"/>
			<point x="381" y="77" type="curve"/>
			<point x="377" y="77" type="line"/>
			<point x="378" y="124"/>
			<point x="379" y="167"/>
			<point x="378" y="214" type="curve" smooth="yes"/>
			<point x="370" y="454" type="line"/>
			<point x="286" y="454" type="line"/>
			<point x="185" y="214" type="line" smooth="yes"/>
			<point x="165" y="168"/>
			<point x="150" y="124"/>
			<point x="134" y="77" type="curve"/>
			<point x="130" y="77" type="line"/>
			<point x="131" y="124"/>
			<point x="133" y="167"/>
			<point x="134" y="214" type="curve" smooth="yes"/>
			<point x="137" y="489" type="line"/>
			<point x="46" y="489" type="line"/>
		</contour>
	</outline>
</glyph>
<glyph name="x" format="2">
	<unicode hex="0078"/>
	<advance width="600"/>
	<outline>
		<contour>
			<point x="4" y="0" type="line"/>
			<point x="110" y="0" type="line"/>
			<point x="208" y="113" type="line" smooth="yes"/>
			<point x="226" y="134"/>
			<point x="254" y="168"/>
			<point x="273" y="192" type="curve"/>
			<point x="279" y="192" type="line"/>
			<point x="291" y="168"/>
			<point x="308" y="133"/>
			<point x="320" y="109" type="curve" smooth="yes"/>
			<point x="379" y="0" type="line"/>
			<point x="476" y="0" type="line"/>
			<point x="340" y="246" type="line"/>
			<point x="561" y="489" type="line"/>
			<point x="455" y="489" type="line"/>
			<point x="365" y="384" type="line" smooth="yes"/>
			<point x="348" y="364"/>
			<point x="318" y="322"/>
			<point x="303" y="301" type="curve"/>
			<point x="299" y="301" type="line"/>
			<point x="289" y="323"/>
			<point x="273" y="361"/>
			<point x="261" y="384" type="curve" smooth="yes"/>
			<point x="207" y="489" type="line"/>
			<point x="113" y="489" type="line"/>
			<point x="236" y="254" type="line"/>
		</contour>
	</outline>
	<anchor name="aboveLC" x="330" y="510"/>
	<anchor name="baseLC" x="425" y="0"/>
	<anchor name="belowLC" x="243" y="-20"/>
</glyph>
<glyph name="z" format="2">
	<unicode hex="007A"/>
	<advance width="600"/>
	<outline>
		<contour>
			<point x="31" y="0" type="line"/>
			<point x="465" y="0" type="line"/>
			<point x="480" y="74" type="line"/>
			<point x="168" y="74" type="line"/>
			<point x="531" y="434" type="line"/>
			<point x="540" y="489" type="line"/>
			<point x="125" y="489" type="line"/>
			<point x="109" y="416" type="line"/>
			<point x="405" y="416" type="line"/>
			<point x="41" y="55" type="line"/>
		</contour>
	</outline>
	<anchor name="aboveLC" x="335" y="510"/>
	<anchor name="baseLC" x="280" y="0"/>
	<anchor name="belowLC" x="260" y="-20"/>
</glyph>
<glyph name="asciitilde" format="1">
	<unicode hex="007E"/>
	<advance width="600"/>
	<outline>
		<contour>
			<point x="387" y="254" type="curve" smooth="yes"/>
			<point x="440" y="254"/>
			<point x="492" y="287"/>
			<point x="528" y="381" type="curve"/>
			<point x="469" y="408" type="line"/>
			<point x="447" y="340"/>
			<point x="420" y="323"/>
			<point x="389" y="323" type="curve" smooth="yes"/>
			<point x="333" y="323"/>
			<point x="292" y="406"/>
			<point x="213" y="406" type="curve" smooth="yes"/>
			<point x="160" y="406"/>
			<point x="108" y="373"/>
			<point x="72" y="277" type="curve"/>
			<point x="131" y="252" type="line"/>
			<point x="153" y="318"/>
			<point x="180" y="337"/>
			<point x="211" y="337" type="curve" smooth="yes"/>
			<point x="267" y="337"/>
			<point x="308" y="254"/>
		</contour>
	</outline>
</glyph>
<glyph name="sterling" format="1">
	<unicode hex="00A3"/>
	<advance width="600"/>
	<outline>
		<contour>
			<point x="20" y="0" type="line"/>
			<point x="456" y="0" type="line"/>
			<point x="472" y="78" type="line"/>
			<point x="171" y="78" type="line"/>
			<point x="172" y="82" type="line"/>
			<point x="241" y="132"/>
			<point x="274" y="190"/>
			<point x="274" y="279" type="curve" smooth="yes"/>
			<point x="273" y="325"/>
			<point x="263" y="382"/>
			<point x="263" y="425" type="curve" smooth="yes"/>
			<point x="263" y="530"/>
			<point x="315" y="575"/>
			<point x="390" y="575" type="curve" smooth="yes"/>
			<point x="439" y="575"/>
			<point x="473" y="550"/>
			<point x="498" y="512" type="curve"/>
			<point x="559" y="561" type="line"/>
			<point x="524" y="611"/>
			<point x="467" y="649"/>
			<point x="391" y="649" type="curve" smooth="yes"/>
			<point x="265" y="649"/>
			<point x="177" y="572"/>
			<point x="177" y="435" type="curve" smooth="yes"/>
			<point x="177" y="386"/>
			<point x="190" y="318"/>
			<point x="190" y="267" type="curve" smooth="yes"/>
			<point x="190" y="178"/>
			<point x="138" y="102"/>
			<point x="31" y="56" type="curve"/>
		</contour>
		<contour>
			<point x="73" y="285" type="line"/>
			<point x="441" y="285" type="line"/>
			<point x="452" y="343" type="line"/>
			<point x="186" y="343" type="line"/>
			<point x="85" y="338" type="line"/>
		</contour>
	</outline>
</glyph>
<glyph name="copyright" format="1">
	<unicode hex="00A9"/>
	<advance width="600"/>
	<outline>
		<contour>
			<point x="235" y="-10" type="curve" smooth="yes"/>
			<point x="436" y="-10"/>
			<point x="583" y="159"/>
			<point x="583" y="399" type="curve" smooth="yes"/>
			<point x="583" y="556"/>
			<point x="499" y="653"/>
			<point x="370" y="654" type="curve" smooth="yes"/>
			<point x="176" y="655"/>
			<point x="23" y="489"/>
			<point x="23" y="247" type="curve" smooth="yes"/>
			<point x="23" y="90"/>
			<point x="107" y="-10"/>
		</contour>
		<contour>
			<point x="244" y="34" type="curve" smooth="yes"/>
			<point x="135" y="34"/>
			<point x="72" y="119"/>
			<point x="72" y="252" type="curve" smooth="yes"/>
			<point x="72" y="458"/>
			<point x="199" y="609"/>
			<point x="361" y="609" type="curve" smooth="yes"/>
			<point x="471" y="609"/>
			<point x="534" y="524"/>
			<point x="534" y="394" type="curve" smooth="yes"/>
			<point x="534" y="190"/>
			<point x="406" y="34"/>
		</contour>
		<contour>
			<point x="280" y="129" type="curve" smooth="yes"/>
			<point x="329" y="129"/>
			<point x="374" y="150"/>
			<point x="405" y="179" type="curve"/>
			<point x="377" y="225" type="line"/>
			<point x="352" y="204"/>
			<point x="328" y="189"/>
			<point x="293" y="189" type="curve" smooth="yes"/>
			<point x="248" y="190"/>
			<point x="223" y="224"/>
			<point x="223" y="284" type="curve" smooth="yes"/>
			<point x="223" y="382"/>
			<point x="284" y="456"/>
			<point x="351" y="456" type="curve" smooth="yes"/>
			<point x="380" y="456"/>
			<point x="396" y="446"/>
			<point x="414" y="421" type="curve"/>
			<point x="457" y="459" type="line"/>
			<point x="436" y="491"/>
			<point x="405" y="515"/>
			<point x="356" y="515" type="curve" smooth="yes"/>
			<point x="251" y="515"/>
			<point x="152" y="425"/>
			<point x="152" y="280" type="curve" smooth="yes"/>
			<point x="152" y="186"/>
			<point x="202" y="129"/>
		</contour>
	</outline>
</glyph>
<glyph name="registered" format="2">
	<unicode hex="00AE"/>
	<advance width="600"/>
	<outline>
		<contour>
			<point x="310" y="318" type="curve" smooth="yes"/>
			<point x="447" y="318"/>
			<point x="543" y="417"/>
			<point x="543" y="552" type="curve" smooth="yes"/>
			<point x="543" y="648"/>
			<point x="478" y="714"/>
			<point x="389" y="714" type="curve" smooth="yes"/>
			<point x="255" y="714"/>
			<point x="155" y="614"/>
			<point x="155" y="480" type="curve" smooth="yes"/>
			<point x="155" y="384"/>
			<point x="219" y="318"/>
		</contour>
		<contour>
			<point x="318" y="355" type="curve" smooth="yes"/>
			<point x="244" y="355"/>
			<point x="196" y="405"/>
			<point x="196" y="484" type="curve" smooth="yes"/>
			<point x="196" y="594"/>
			<point x="279" y="678"/>
			<point x="381" y="678" type="curve" smooth="yes"/>
			<point x="453" y="678"/>
			<point x="501" y="627"/>
			<point x="501" y="547" type="curve" smooth="yes"/>
			<point x="501" y="437"/>
			<point x="421" y="355"/>
		</contour>
		<contour>
			<point x="256" y="417" type="line"/>
			<point x="299" y="417" type="line"/>
			<point x="333" y="592" type="line"/>
			<point x="324" y="586" type="line"/>
			<point x="360" y="586" type="line" smooth="yes"/>
			<point x="384" y="586"/>
			<point x="394" y="574"/>
			<point x="394" y="558" type="curve" smooth="yes"/>
			<point x="394" y="533"/>
			<point x="375" y="517"/>
			<point x="344" y="517" type="curve" smooth="yes"/>
			<point x="306" y="517" type="line"/>
			<point x="300" y="485" type="line"/>
			<point x="342" y="485" type="line" smooth="yes"/>
			<point x="402" y="485"/>
			<point x="440" y="517"/>
			<point x="440" y="562" type="curve" smooth="yes"/>
			<point x="440" y="604"/>
			<point x="410" y="619"/>
			<point x="373" y="619" type="curve" smooth="yes"/>
			<point x="296" y="619" type="line"/>
		</contour>
		<contour>
			<point x="343" y="490" type="line"/>
			<point x="374" y="417" type="line"/>
			<point x="420" y="417" type="line"/>
			<point x="384" y="499" type="line"/>
		</contour>
	</outline>
</glyph>
<glyph name="mu.math" format="1">
	<unicode hex="00B5"/>
	<advance width="600"/>
	<outline>
		<contour>
			<point x="-16" y="-189" type="line"/>
			<point x="76" y="-189" type="line"/>
			<point x="86" y="-109"/>
			<point x="95" y="-59"/>
			<point x="115" y="40" type="curve"/>
			<point x="132" y="-1"/>
			<point x="164" y="-10"/>
			<point x="202" y="-10" type="curve" smooth="yes"/>
			<point x="275" y="-10"/>
			<point x="335" y="35"/>
			<point x="386" y="95" type="curve"/>
			<point x="390" y="95" type="line"/>
			<point x="382" y="20"/>
			<point x="400" y="-12"/>
			<point x="455" y="-12" type="curve" smooth="yes"/>
			<point x="477" y="-12"/>
			<point x="493" y="-8"/>
			<point x="507" y="-4" type="curve"/>
			<point x="509" y="65" type="line"/>
			<point x="499" y="63"/>
			<point x="495" y="63"/>
			<point x="490" y="63" type="curve" smooth="yes"/>
			<point x="477" y="63"/>
			<point x="467" y="71"/>
			<point x="467" y="89" type="curve" smooth="yes"/>
			<point x="467" y="102"/>
			<point x="517" y="329"/>
			<point x="552" y="489" type="curve"/>
			<point x="460" y="489" type="line"/>
			<point x="397" y="173" type="line"/>
			<point x="337" y="104"/>
			<point x="280" y="66"/>
			<point x="220" y="66" type="curve" smooth="yes"/>
			<point x="153" y="66"/>
			<point x="134" y="111"/>
			<point x="152" y="197" type="curve" smooth="yes"/>
			<point x="212" y="489" type="line"/>
			<point x="121" y="489" type="line"/>
		</contour>
	</outline>
</glyph>
<glyph name="AE" format="2">
	<unicode hex="00C6"/>
	<advance width="600"/>
	<outline>
		<contour>
			<point x="-62" y="0" type="line"/>
			<point x="33" y="0" type="line"/>
			<point x="247" y="375" type="line" smooth="yes"/>
			<point x="286" y="444"/>
			<point x="327" y="513"/>
			<point x="367" y="584" type="curve"/>
			<point x="372" y="584" type="line"/>
			<point x="255" y="0" type="line"/>
			<point x="528" y="0" type="line"/>
			<point x="543" y="78" type="line"/>
			<point x="353" y="78" type="line"/>
			<point x="398" y="305" type="line"/>
			<point x="543" y="305" type="line"/>
			<point x="559" y="383" type="line"/>
			<point x="414" y="383" type="line"/>
			<point x="453" y="577" type="line"/>
			<point x="633" y="577" type="line"/>
			<point x="649" y="655" type="line"/>
			<point x="324" y="655" type="line"/>
		</contour>
		<contour>
			<point x="106" y="187" type="line"/>
			<point x="333" y="187" type="line"/>
			<point x="347" y="259" type="line"/>
			<point x="121" y="259" type="line"/>
		</contour>
	</outline>
	<anchor name="aboveUC" x="481" y="675"/>
	<anchor name="baseLC" x="408" y="0"/>
	<anchor name="belowLC" x="290" y="-20"/>
</glyph>
<glyph name="Eth" format="2">
	<unicode hex="00D0"/>
	<advance width="600"/>
	<outline>
		<contour>
			<point x="322" y="314" type="line"/>
			<point x="336" y="374" type="line"/>
			<point x="110" y="374" type="line"/>
			<point x="33" y="370" type="line"/>
			<point x="19" y="314" type="line"/>
		</contour>
		<component base="D" xOffset="12"/>
	</outline>
</glyph>
<glyph name="multiply" format="2">
	<unicode hex="00D7"/>
	<advance width="600"/>
	<outline>
		<contour>
			<point x="148" y="124" type="line"/>
			<point x="300" y="281" type="line"/>
			<point x="452" y="124" type="line"/>
			<point x="501" y="174" type="line"/>
			<point x="349" y="330" type="line"/>
			<point x="501" y="485" type="line"/>
			<point x="452" y="536" type="line"/>
			<point x="300" y="378" type="line"/>
			<point x="148" y="536" type="line"/>
			<point x="99" y="485" type="line"/>
			<point x="251" y="330" type="line"/>
			<point x="99" y="174" type="line"/>
		</contour>
	</outline>
</glyph>
<glyph name="Oslash" format="2">
	<unicode hex="00D8"/>
	<advance width="600"/>
	<outline>
		<contour>
			<point x="253" y="-12" type="curve" smooth="yes"/>
			<point x="447" y="-12"/>
			<point x="569" y="194"/>
			<point x="569" y="406" type="curve" smooth="yes"/>
			<point x="569" y="564"/>
			<point x="490" y="667"/>
			<point x="356" y="667" type="curve" smooth="yes"/>
			<point x="162" y="667"/>
			<point x="38" y="462"/>
			<point x="38" y="249" type="curve" smooth="yes"/>
			<point x="38" y="91"/>
			<point x="119" y="-12"/>
		</contour>
		<contour>
			<point x="262" y="68" type="curve" smooth="yes"/>
			<point x="175" y="68"/>
			<point x="130" y="134"/>
			<point x="130" y="249" type="curve" smooth="yes"/>
			<point x="130" y="411"/>
			<point x="215" y="587"/>
			<point x="347" y="587" type="curve" smooth="yes"/>
			<point x="434" y="587"/>
			<point x="477" y="521"/>
			<point x="477" y="407" type="curve" smooth="yes"/>
			<point x="477" y="243"/>
			<point x="394" y="68"/>
		</contour>
		<contour>
			<point x="36" y="-36" type="line"/>
			<point x="627" y="648" type="line"/>
			<point x="574" y="691" type="line"/>
			<point x="-17" y="7" type="line"/>
		</contour>
	</outline>
</glyph>
<glyph name="Thorn" format="2">
	<unicode hex="00DE"/>
	<advance width="600"/>
	<outline>
		<contour>
			<point x="37" y="0" type="line"/>
			<point x="130" y="0" type="line"/>
			<point x="159" y="144" type="line"/>
			<point x="264" y="144" type="line" smooth="yes"/>
			<point x="430" y="144"/>
			<point x="555" y="215"/>
			<point x="555" y="381" type="curve" smooth="yes"/>
			<point x="555" y="498"/>
			<point x="472" y="545"/>
			<point x="353" y="545" type="curve" smooth="yes"/>
			<point x="239" y="545" type="line"/>
			<point x="262" y="655" type="line"/>
			<point x="168" y="655" type="line"/>
		</contour>
		<contour>
			<point x="174" y="218" type="line"/>
			<point x="224" y="470" type="line"/>
			<point x="329" y="470" type="line" smooth="yes"/>
			<point x="416" y="470"/>
			<point x="463" y="440"/>
			<point x="463" y="368" type="curve" smooth="yes"/>
			<point x="463" y="270"/>
			<point x="395" y="218"/>
			<point x="269" y="218" type="curve" smooth="yes"/>
		</contour>
	</outline>
</glyph>
<glyph name="ae" format="2">
	<unicode hex="00E6"/>
	<advance width="600"/>
	<outline>
		<contour>
			<point x="91" y="-12" type="curve" smooth="yes"/>
			<point x="152" y="-12"/>
			<point x="215" y="19"/>
			<point x="274" y="87" type="curve"/>
			<point x="249" y="135" type="line"/>
			<point x="211" y="90"/>
			<point x="157" y="60"/>
			<point x="118" y="60" type="curve" smooth="yes"/>
			<point x="86" y="60"/>
			<point x="64" y="79"/>
			<point x="64" y="118" type="curve" smooth="yes"/>
			<point x="64" y="191"/>
			<point x="133" y="229"/>
			<point x="270" y="252" type="curve"/>
			<point x="276" y="311" type="line"/>
			<point x="78" y="282"/>
			<point x="-21" y="221"/>
			<point x="-21" y="99" type="curve" smooth="yes"/>
			<point x="-21" y="31"/>
			<point x="20" y="-12"/>
		</contour>
		<contour>
			<point x="303" y="220" type="line"/>
			<point x="576" y="220" type="line"/>
			<point x="584" y="242"/>
			<point x="598" y="284"/>
			<point x="598" y="346" type="curve" smooth="yes"/>
			<point x="598" y="429"/>
			<point x="564" y="501"/>
			<point x="483" y="501" type="curve" smooth="yes"/>
			<point x="422" y="501"/>
			<point x="362" y="468"/>
			<point x="319" y="399" type="curve"/>
			<point x="332" y="395" type="line"/>
			<point x="327" y="458"/>
			<point x="285" y="501"/>
			<point x="221" y="501" type="curve" smooth="yes"/>
			<point x="151" y="501"/>
			<point x="91" y="471"/>
			<point x="50" y="441" type="curve"/>
			<point x="83" y="385" type="line"/>
			<point x="115" y="407"/>
			<point x="156" y="427"/>
			<point x="199" y="427" type="curve" smooth="yes"/>
			<point x="259" y="427"/>
			<point x="279" y="376"/>
			<point x="262" y="306" type="curve" smooth="yes"/>
			<point x="246" y="244"/>
			<point x="241" y="208"/>
			<point x="241" y="153" type="curve" smooth="yes"/>
			<point x="241" y="72"/>
			<point x="288" y="-12"/>
			<point x="396" y="-12" type="curve" smooth="yes"/>
			<point x="446" y="-12"/>
			<point x="502" y="8"/>
			<point x="538" y="37" type="curve"/>
			<point x="511" y="96" type="line"/>
			<point x="476" y="72"/>
			<point x="444" y="60"/>
			<point x="406" y="60" type="curve" smooth="yes"/>
			<point x="346" y="60"/>
			<point x="316" y="105"/>
			<point x="316" y="172" type="curve" smooth="yes"/>
			<point x="316" y="308"/>
			<point x="382" y="428"/>
			<point x="464" y="428" type="curve" smooth="yes"/>
			<point x="506" y="428"/>
			<point x="524" y="395"/>
			<point x="524" y="343" type="curve" smooth="yes"/>
			<point x="524" y="321"/>
			<point x="521" y="297"/>
			<point x="516" y="272" type="curve"/>
			<point x="532" y="287" type="line"/>
			<point x="307" y="287" type="line"/>
		</contour>
	</outline>
</glyph>
<glyph name="eth" format="1">
	<unicode hex="00F0"/>
	<advance width="600"/>
	<outline>
		<contour>
			<point x="240" y="-12" type="curve" smooth="yes"/>
			<point x="423" y="-12"/>
			<point x="543" y="121"/>
			<point x="543" y="339" type="curve" smooth="yes"/>
			<point x="543" y="534"/>
			<point x="435" y="668"/>
			<point x="283" y="738" type="curve"/>
			<point x="242" y="672" type="line"/>
			<point x="371" y="606"/>
			<point x="453" y="508"/>
			<point x="453" y="342" type="curve" smooth="yes"/>
			<point x="453" y="175"/>
			<point x="376" y="64"/>
			<point x="250" y="64" type="curve" smooth="yes"/>
			<point x="175" y="64"/>
			<point x="125" y="113"/>
			<point x="125" y="194" type="curve" smooth="yes"/>
			<point x="125" y="288"/>
			<point x="194" y="378"/>
			<point x="313" y="378" type="curve" smooth="yes"/>
			<point x="372" y="378"/>
			<point x="427" y="352"/>
			<point x="462" y="291" type="curve"/>
			<point x="470" y="350" type="line"/>
			<point x="446" y="401"/>
			<point x="387" y="448"/>
			<point x="299" y="448" type="curve" smooth="yes"/>
			<point x="155" y="448"/>
			<point x="36" y="344"/>
			<point x="36" y="187" type="curve" smooth="yes"/>
			<point x="36" y="59"/>
			<point x="126" y="-12"/>
		</contour>
		<contour>
			<point x="232" y="496" type="line"/>
			<point x="590" y="663" type="line"/>
			<point x="564" y="717" type="line"/>
			<point x="206" y="550" type="line"/>
		</contour>
		<contour>
			<point name="aboveUC" x="428" y="735" type="move"/>
		</contour>
		<contour>
			<point name="belowLC" x="247" y="-20" type="move"/>
		</contour>
	</outline>
</glyph>
<glyph name="divide" format="1">
	<unicode hex="00F7"/>
	<advance width="600"/>
	<outline>
		<contour>
			<point x="300" y="452" type="curve" smooth="yes"/>
			<point x="333" y="452"/>
			<point x="358" y="475"/>
			<point x="358" y="510" type="curve" smooth="yes"/>
			<point x="358" y="544"/>
			<point x="333" y="567"/>
			<point x="300" y="567" type="curve" smooth="yes"/>
			<point x="267" y="567"/>
			<point x="242" y="544"/>
			<point x="242" y="510" type="curve" smooth="yes"/>
			<point x="242" y="475"/>
			<point x="267" y="452"/>
		</contour>
		<contour>
			<point x="300" y="92" type="curve" smooth="yes"/>
			<point x="333" y="92"/>
			<point x="358" y="115"/>
			<point x="358" y="150" type="curve" smooth="yes"/>
			<point x="358" y="184"/>
			<point x="333" y="207"/>
			<point x="300" y="207" type="curve" smooth="yes"/>
			<point x="267" y="207"/>
			<point x="242" y="184"/>
			<point x="242" y="150" type="curve" smooth="yes"/>
			<point x="242" y="115"/>
			<point x="267" y="92"/>
		</contour>
		<contour>
			<point x="83" y="296" type="line"/>
			<point x="517" y="296" type="line"/>
			<point x="517" y="364" type="line"/>
			<point x="83" y="364" type="line"/>
		</contour>
	</outline>
</glyph>
<glyph name="oslash" format="2">
	<unicode hex="00F8"/>
	<advance width="600"/>
	<outline>
		<contour>
			<point x="251" y="-12" type="curve" smooth="yes"/>
			<point x="399" y="-12"/>
			<point x="533" y="113"/>
			<point x="533" y="286" type="curve" smooth="yes"/>
			<point x="533" y="413"/>
			<point x="455" y="501"/>
			<point x="325" y="501" type="curve" smooth="yes"/>
			<point x="176" y="501"/>
			<point x="43" y="375"/>
			<point x="43" y="203" type="curve" smooth="yes"/>
			<point x="43" y="75"/>
			<point x="121" y="-12"/>
		</contour>
		<contour>
			<point x="253" y="62" type="curve" smooth="yes"/>
			<point x="176" y="62"/>
			<point x="133" y="119"/>
			<point x="133" y="204" type="curve" smooth="yes"/>
			<point x="133" y="326"/>
			<point x="215" y="427"/>
			<point x="322" y="427" type="curve" smooth="yes"/>
			<point x="400" y="427"/>
			<point x="444" y="370"/>
			<point x="444" y="285" type="curve" smooth="yes"/>
			<point x="444" y="162"/>
			<point x="360" y="62"/>
		</contour>
		<contour>
			<point x="43" y="-29" type="line"/>
			<point x="576" y="473" type="line"/>
			<point x="532" y="518" type="line"/>
			<point x="0" y="15" type="line"/>
		</contour>
	</outline>
	<anchor name="aboveLC" x="339" y="509"/>
	<anchor name="baseLC" x="238" y="0"/>
	<anchor name="belowLC" x="234" y="-20"/>
</glyph>
<glyph name="Aogonek" format="2">
	<unicode hex="0104"/>
	<advance width="600"/>
	<outline>
		<contour>
			<point x="415" y="-226" type="curve" smooth="yes"/>
			<point x="450" y="-226"/>
			<point x="487" y="-214"/>
			<point x="512" y="-195" type="curve"/>
			<point x="491" y="-149" type="line"/>
			<point x="477" y="-158"/>
			<point x="464" y="-163"/>
			<point x="448" y="-163" type="curve" smooth="yes"/>
			<point x="418" y="-163"/>
			<point x="395" y="-149"/>
			<point x="395" y="-120" type="curve" smooth="yes"/>
			<point x="395" y="-75"/>
			<point x="449" y="-23"/>
			<point x="508" y="0" type="curve"/>
			<point x="431" y="655" type="line"/>
			<point x="322" y="655" type="line"/>
			<point x="-28" y="0" type="line"/>
			<point x="74" y="0" type="line"/>
			<point x="259" y="373" type="line" smooth="yes"/>
			<point x="293" y="443"/>
			<point x="324" y="508"/>
			<point x="358" y="580" type="curve"/>
			<point x="363" y="580" type="line"/>
			<point x="368" y="510"/>
			<point x="374" y="439"/>
			<point x="380" y="371" type="curve" smooth="yes"/>
			<point x="411" y="0" type="line"/>
			<point x="433" y="0" type="line"/>
			<point x="384" y="-27"/>
			<point x="321" y="-82"/>
			<point x="321" y="-149" type="curve" smooth="yes"/>
			<point x="321" y="-201"/>
			<point x="363" y="-226"/>
		</contour>
		<contour>
			<point x="133" y="194" type="line"/>
			<point x="427" y="194" type="line"/>
			<point x="441" y="266" type="line"/>
			<point x="150" y="266" type="line"/>
		</contour>
	</outline>
	<anchor name="aboveUC" x="372" y="675"/>
</glyph>
<glyph name="aogonek" format="2">
	<unicode hex="0105"/>
	<advance width="600"/>
	<outline>
		<contour>
			<point x="363" y="-226" type="curve" smooth="yes"/>
			<point x="403" y="-226"/>
			<point x="437" y="-212"/>
			<point x="462" y="-192" type="curve"/>
			<point x="443" y="-152" type="line"/>
			<point x="427" y="-162"/>
			<point x="413" y="-167"/>
			<point x="395" y="-167" type="curve" smooth="yes"/>
			<point x="364" y="-167"/>
			<point x="339" y="-152"/>
			<point x="339" y="-120" type="curve" smooth="yes"/>
			<point x="339" y="-78"/>
			<point x="377" y="-37"/>
			<point x="459" y="-4" type="curve"/>
			<point x="558" y="489" type="line"/>
			<point x="484" y="489" type="line"/>
			<point x="464" y="429" type="line"/>
			<point x="460" y="429" type="line"/>
			<point x="434" y="473"/>
			<point x="383" y="501"/>
			<point x="315" y="501" type="curve" smooth="yes"/>
			<point x="168" y="501"/>
			<point x="48" y="352"/>
			<point x="48" y="176" type="curve" smooth="yes"/>
			<point x="48" y="54"/>
			<point x="113" y="-12"/>
			<point x="213" y="-12" type="curve" smooth="yes"/>
			<point x="274" y="-12"/>
			<point x="337" y="21"/>
			<point x="387" y="72" type="curve"/>
			<point x="391" y="72" type="line"/>
			<point x="385" y="1" type="line"/>
			<point x="330" y="-28"/>
			<point x="270" y="-78"/>
			<point x="270" y="-146" type="curve" smooth="yes"/>
			<point x="270" y="-201"/>
			<point x="312" y="-226"/>
		</contour>
		<contour>
			<point x="244" y="65" type="curve" smooth="yes"/>
			<point x="182" y="65"/>
			<point x="143" y="103"/>
			<point x="143" y="189" type="curve" smooth="yes"/>
			<point x="143" y="314"/>
			<point x="225" y="424"/>
			<point x="328" y="424" type="curve" smooth="yes"/>
			<point x="369" y="424"/>
			<point x="412" y="405"/>
			<point x="442" y="358" type="curve"/>
			<point x="399" y="154" type="line"/>
			<point x="350" y="95"/>
			<point x="292" y="65"/>
		</contour>
	</outline>
	<anchor name="aboveLC" x="351" y="510"/>
</glyph>
<glyph name="Dcroat" format="1">
	<unicode hex="0110"/>
	<advance width="600"/>
	<outline>
		<component base="Eth"/>
		<contour>
			<point name="aboveUC" x="365" y="675" type="move"/>
		</contour>
		<contour>
			<point name="belowLC" x="225" y="-20" type="move"/>
		</contour>
	</outline>
</glyph>
<glyph name="dcroat" format="1">
	<unicode hex="0111"/>
	<advance width="600"/>
	<outline>
		<contour>
			<point x="207" y="-12" type="curve" smooth="yes"/>
			<point x="268" y="-12"/>
			<point x="331" y="21"/>
			<point x="381" y="73" type="curve"/>
			<point x="385" y="73" type="line"/>
			<point x="379" y="0" type="line"/>
			<point x="455" y="0" type="line"/>
			<point x="597" y="709" type="line"/>
			<point x="506" y="709" type="line"/>
			<point x="466" y="507" type="line"/>
			<point x="450" y="412" type="line"/>
			<point x="447" y="412" type="line"/>
			<point x="420" y="454"/>
			<point x="375" y="481"/>
			<point x="306" y="481" type="curve" smooth="yes"/>
			<point x="158" y="481"/>
			<point x="42" y="341"/>
			<point x="42" y="175" type="curve" smooth="yes"/>
			<point x="42" y="54"/>
			<point x="106" y="-12"/>
		</contour>
		<contour>
			<point x="238" y="64" type="curve" smooth="yes"/>
			<point x="176" y="64"/>
			<point x="136" y="104"/>
			<point x="136" y="189" type="curve" smooth="yes"/>
			<point x="136" y="303"/>
			<point x="215" y="404"/>
			<point x="320" y="404" type="curve" smooth="yes"/>
			<point x="362" y="404"/>
			<point x="402" y="385"/>
			<point x="432" y="339" type="curve"/>
			<point x="393" y="154" type="line"/>
			<point x="344" y="95"/>
			<point x="286" y="64"/>
		</contour>
		<contour>
			<point x="307" y="564" type="line"/>
			<point x="563" y="564" type="line"/>
			<point x="641" y="570" type="line"/>
			<point x="650" y="626" type="line"/>
			<point x="318" y="626" type="line"/>
		</contour>
		<contour>
			<point name="aboveUC" x="555" y="735" type="move"/>
		</contour>
		<contour>
			<point name="belowLC" x="249" y="-20" type="move"/>
		</contour>
	</outline>
</glyph>
<glyph name="eogonek" format="2">
	<unicode hex="0119"/>
	<advance width="600"/>
	<outline>
		<contour>
			<point x="334" y="-226" type="curve" smooth="yes"/>
			<point x="374" y="-226"/>
			<point x="407" y="-212"/>
			<point x="433" y="-192" type="curve"/>
			<point x="413" y="-152" type="line"/>
			<point x="397" y="-162"/>
			<point x="383" y="-167"/>
			<point x="365" y="-167" type="curve" smooth="yes"/>
			<point x="336" y="-167"/>
			<point x="310" y="-152"/>
			<point x="310" y="-120" type="curve" smooth="yes"/>
			<point x="310" y="-68"/>
			<point x="377" y="-10"/>
			<point x="483" y="59" type="curve"/>
			<point x="450" y="121" type="line"/>
			<point x="405" y="86"/>
			<point x="351" y="60"/>
			<point x="289" y="60" type="curve" smooth="yes"/>
			<point x="207" y="60"/>
			<point x="150" y="109"/>
			<point x="150" y="205" type="curve" smooth="yes"/>
			<point x="150" y="342"/>
			<point x="248" y="428"/>
			<point x="335" y="428" type="curve" smooth="yes"/>
			<point x="401" y="428"/>
			<point x="442" y="386"/>
			<point x="442" y="315" type="curve" smooth="yes"/>
			<point x="442" y="300"/>
			<point x="440" y="285"/>
			<point x="436" y="271" type="curve"/>
			<point x="470" y="288" type="line"/>
			<point x="140" y="288" type="line"/>
			<point x="129" y="220" type="line"/>
			<point x="514" y="220" type="line"/>
			<point x="519" y="234"/>
			<point x="528" y="276"/>
			<point x="528" y="312" type="curve" smooth="yes"/>
			<point x="528" y="421"/>
			<point x="460" y="501"/>
			<point x="339" y="501" type="curve" smooth="yes"/>
			<point x="190" y="501"/>
			<point x="59" y="377"/>
			<point x="59" y="201" type="curve" smooth="yes"/>
			<point x="59" y="61"/>
			<point x="143" y="-12"/>
			<point x="269" y="-12" type="curve" smooth="yes"/>
			<point x="291" y="-12"/>
			<point x="314" y="-8"/>
			<point x="333" y="-3" type="curve"/>
			<point x="285" y="-41"/>
			<point x="240" y="-87"/>
			<point x="240" y="-147" type="curve" smooth="yes"/>
			<point x="240" y="-201"/>
			<point x="283" y="-226"/>
		</contour>
	</outline>
</glyph>
<glyph name="hbar" format="1">
	<unicode hex="0127"/>
	<advance width="600"/>
	<outline>
		<contour>
			<point x="32" y="0" type="line"/>
			<point x="124" y="0" type="line"/>
			<point x="182" y="291" type="line"/>
			<point x="243" y="360"/>
			<point x="307" y="400"/>
			<point x="366" y="400" type="curve" smooth="yes"/>
			<point x="411" y="400"/>
			<point x="436" y="377"/>
			<point x="436" y="332" type="curve" smooth="yes"/>
			<point x="436" y="312"/>
			<point x="432" y="293"/>
			<point x="427" y="268" type="curve" smooth="yes"/>
			<point x="373" y="0" type="line"/>
			<point x="466" y="0" type="line"/>
			<point x="521" y="279" type="line" smooth="yes"/>
			<point x="527" y="305"/>
			<point x="531" y="330"/>
			<point x="531" y="357" type="curve" smooth="yes"/>
			<point x="531" y="433"/>
			<point x="489" y="479"/>
			<point x="405" y="479" type="curve" smooth="yes"/>
			<point x="324" y="479"/>
			<point x="255" y="432"/>
			<point x="198" y="374" type="curve"/>
			<point x="194" y="374" type="line"/>
			<point x="211" y="440" type="line"/>
			<point x="266" y="709" type="line"/>
			<point x="174" y="709" type="line"/>
		</contour>
		<contour>
			<point x="72" y="564" type="line"/>
			<point x="445" y="564" type="line"/>
			<point x="455" y="626" type="line"/>
			<point x="161" y="626" type="line"/>
			<point x="81" y="620" type="line"/>
		</contour>
	</outline>
</glyph>
<glyph name="dotlessi" format="2">
	<unicode hex="0131"/>
	<advance width="600"/>
	<outline>
		<contour>
			<point x="346" y="-12" type="curve" smooth="yes"/>
			<point x="401" y="-12"/>
			<point x="441" y="0"/>
			<point x="483" y="19" type="curve"/>
			<point x="462" y="89" type="line"/>
			<point x="428" y="74"/>
			<point x="402" y="65"/>
			<point x="373" y="65" type="curve" smooth="yes"/>
			<point x="331" y="65"/>
			<point x="302" y="84"/>
			<point x="302" y="133" type="curve" smooth="yes"/>
			<point x="302" y="142"/>
			<point x="304" y="152"/>
			<point x="306" y="163" type="curve" smooth="yes"/>
			<point x="379" y="489" type="line"/>
			<point x="113" y="489" type="line"/>
			<point x="98" y="415" type="line"/>
			<point x="272" y="415" type="line"/>
			<point x="216" y="170" type="line" smooth="yes"/>
			<point x="211" y="150"/>
			<point x="208" y="132"/>
			<point x="208" y="115" type="curve" smooth="yes"/>
			<point x="208" y="33"/>
			<point x="264" y="-12"/>
		</contour>
	</outline>
	<anchor name="aboveLC" x="320" y="510"/>
	<anchor name="baseLC" x="348" y="0"/>
	<anchor name="belowLC" x="328" y="-20"/>
	<anchor name="ogonekLC" x="359" y="0"/>
</glyph>
<glyph name="kgreenlandic" format="1">
	<unicode hex="0138"/>
	<advance width="600"/>
	<outline>
		<contour>
			<point x="42" y="0" type="line"/>
			<point x="134" y="0" type="line"/>
			<point x="159" y="125" type="line"/>
			<point x="334" y="266" type="line"/>
			<point x="591" y="489" type="line"/>
			<point x="481" y="489" type="line"/>
			<point x="187" y="244" type="line"/>
			<point x="183" y="244" type="line"/>
			<point x="231" y="489" type="line"/>
			<point x="139" y="489" type="line"/>
		</contour>
		<contour>
			<point x="293" y="250" type="line"/>
			<point x="418" y="0" type="line"/>
			<point x="513" y="0" type="line"/>
			<point x="353" y="312" type="line"/>
		</contour>
	</outline>
</glyph>
<glyph name="Lslash" format="1">
	<unicode hex="0141"/>
	<advance width="600"/>
	<outline>
		<contour>
			<point x="57" y="192" type="line"/>
			<point x="160" y="241" type="line"/>
			<point x="224" y="270" type="line"/>
			<point x="492" y="399" type="line"/>
			<point x="468" y="461" type="line"/>
			<point x="240" y="349" type="line"/>
			<point x="175" y="321" type="line"/>
			<point x="34" y="254" type="line"/>
		</contour>
		<component base="L"/>
		<contour>
			<point name="aboveUC" x="273" y="675" type="move"/>
		</contour>
		<contour>
			<point name="belowLC" x="301" y="-20" type="move"/>
		</contour>
	</outline>
</glyph>
<glyph name="lslash" format="1">
	<unicode hex="0142"/>
	<advance width="600"/>
	<outline>
		<contour>
			<point x="115" y="265" type="line"/>
			<point x="239" y="329" type="line"/>
			<point x="315" y="361" type="line"/>
			<point x="527" y="469" type="line"/>
			<point x="503" y="526" type="line"/>
			<point x="332" y="437" type="line"/>
			<point x="255" y="405" type="line"/>
			<point x="93" y="322" type="line"/>
		</contour>
		<component base="l"/>
		<contour>
			<point name="aboveUC" x="352" y="735" type="move"/>
		</contour>
		<contour>
			<point name="belowLC" x="320" y="-20" type="move"/>
		</contour>
	</outline>
</glyph>
<glyph name="napostrophe" format="2">
	<unicode hex="0149"/>
	<advance width="600"/>
	<outline>
		<contour>
			<point x="147" y="0" type="line"/>
			<point x="239" y="0" type="line"/>
			<point x="303" y="322" type="line"/>
			<point x="361" y="383"/>
			<point x="412" y="421"/>
			<point x="465" y="421" type="curve" smooth="yes"/>
			<point x="505" y="421"/>
			<point x="527" y="397"/>
			<point x="527" y="353" type="curve" smooth="yes"/>
			<point x="527" y="332"/>
			<point x="523" y="313"/>
			<point x="518" y="289" type="curve" smooth="yes"/>
			<point x="460" y="0" type="line"/>
			<point x="552" y="0" type="line"/>
			<point x="612" y="300" type="line" smooth="yes"/>
			<point x="618" y="326"/>
			<point x="621" y="351"/>
			<point x="621" y="378" type="curve" smooth="yes"/>
			<point x="621" y="454"/>
			<point x="588" y="501"/>
			<point x="509" y="501" type="curve" smooth="yes"/>
			<point x="430" y="501"/>
			<point x="370" y="453"/>
			<point x="315" y="401" type="curve"/>
			<point x="311" y="401" type="line"/>
			<point x="320" y="489" type="line"/>
			<point x="244" y="489" type="line"/>
		</contour>
		<component base="quoteright" xOffset="-232"/>
	</outline>
</glyph>
<glyph name="eng" format="2">
	<unicode hex="014B"/>
	<advance width="600"/>
	<outline>
		<contour>
			<point x="305" y="-184" type="curve" smooth="yes"/>
			<point x="397" y="-184"/>
			<point x="439" y="-120"/>
			<point x="459" y="-25" type="curve" smooth="yes"/>
			<point x="525" y="300" type="line" smooth="yes"/>
			<point x="530" y="326"/>
			<point x="534" y="351"/>
			<point x="534" y="378" type="curve" smooth="yes"/>
			<point x="534" y="454"/>
			<point x="493" y="501"/>
			<point x="408" y="501" type="curve" smooth="yes"/>
			<point x="325" y="501"/>
			<point x="252" y="449"/>
			<point x="196" y="393" type="curve"/>
			<point x="192" y="393" type="line"/>
			<point x="203" y="489" type="line"/>
			<point x="128" y="489" type="line"/>
			<point x="31" y="0" type="line"/>
			<point x="123" y="0" type="line"/>
			<point x="185" y="311" type="line"/>
			<point x="246" y="381"/>
			<point x="309" y="421"/>
			<point x="369" y="421" type="curve" smooth="yes"/>
			<point x="414" y="421"/>
			<point x="439" y="397"/>
			<point x="439" y="353" type="curve" smooth="yes"/>
			<point x="439" y="333"/>
			<point x="435" y="313"/>
			<point x="430" y="289" type="curve" smooth="yes"/>
			<point x="368" y="-22" type="line" smooth="yes"/>
			<point x="355" y="-82"/>
			<point x="337" y="-109"/>
			<point x="299" y="-109" type="curve" smooth="yes"/>
			<point x="279" y="-109"/>
			<point x="267" y="-104"/>
			<point x="254" y="-96" type="curve"/>
			<point x="224" y="-164" type="line"/>
			<point x="249" y="-177"/>
			<point x="273" y="-184"/>
		</contour>
	</outline>
	<anchor name="aboveLC" x="352" y="510"/>
</glyph>
<glyph name="Tbar" format="2">
	<unicode hex="0166"/>
	<advance width="600"/>
	<outline>
		<contour>
			<point x="119" y="317" type="line"/>
			<point x="480" y="317" type="line"/>
			<point x="493" y="377" type="line"/>
			<point x="205" y="377" type="line"/>
			<point x="130" y="371" type="line"/>
		</contour>
		<component base="T"/>
	</outline>
</glyph>
<glyph name="tbar" format="2">
	<unicode hex="0167"/>
	<advance width="600"/>
	<outline>
		<contour>
			<point x="36" y="223" type="line"/>
			<point x="483" y="223" type="line"/>
			<point x="496" y="286" type="line"/>
			<point x="185" y="286" type="line"/>
			<point x="49" y="281" type="line"/>
		</contour>
		<component base="t"/>
	</outline>
	<anchor name="aboveLC" x="302" y="637"/>
	<anchor name="belowLC" x="307" y="-20"/>
</glyph>
<glyph name="Uogonek" format="2">
	<unicode hex="0172"/>
	<advance width="600"/>
	<outline>
		<contour>
			<point x="213" y="-226" type="curve" smooth="yes"/>
			<point x="248" y="-226"/>
			<point x="284" y="-214"/>
			<point x="309" y="-195" type="curve"/>
			<point x="289" y="-149" type="line"/>
			<point x="274" y="-158"/>
			<point x="261" y="-163"/>
			<point x="245" y="-163" type="curve" smooth="yes"/>
			<point x="216" y="-163"/>
			<point x="193" y="-149"/>
			<point x="193" y="-120" type="curve" smooth="yes"/>
			<point x="193" y="-82"/>
			<point x="235" y="-31"/>
			<point x="318" y="-8" type="curve" smooth="yes"/>
			<point x="424" y="26"/>
			<point x="480" y="98"/>
			<point x="510" y="248" type="curve" smooth="yes"/>
			<point x="592" y="655" type="line"/>
			<point x="500" y="655" type="line"/>
			<point x="421" y="256" type="line" smooth="yes"/>
			<point x="393" y="115"/>
			<point x="337" y="68"/>
			<point x="266" y="68" type="curve" smooth="yes"/>
			<point x="191" y="68"/>
			<point x="153" y="115"/>
			<point x="153" y="198" type="curve" smooth="yes"/>
			<point x="153" y="223"/>
			<point x="157" y="249"/>
			<point x="164" y="279" type="curve" smooth="yes"/>
			<point x="239" y="655" type="line"/>
			<point x="145" y="655" type="line"/>
			<point x="71" y="284" type="line" smooth="yes"/>
			<point x="64" y="249"/>
			<point x="61" y="221"/>
			<point x="61" y="188" type="curve" smooth="yes"/>
			<point x="61" y="69"/>
			<point x="123" y="5"/>
			<point x="213" y="-9" type="curve"/>
			<point x="169" y="-37"/>
			<point x="118" y="-91"/>
			<point x="118" y="-149" type="curve" smooth="yes"/>
			<point x="118" y="-201"/>
			<point x="161" y="-226"/>
		</contour>
	</outline>
	<anchor name="aboveUC" x="372" y="677"/>
</glyph>
<glyph name="uogonek" format="2">
	<unicode hex="0173"/>
	<advance width="600"/>
	<outline>
		<contour>
			<point x="358" y="-226" type="curve" smooth="yes"/>
			<point x="398" y="-226"/>
			<point x="432" y="-212"/>
			<point x="457" y="-192" type="curve"/>
			<point x="438" y="-152" type="line"/>
			<point x="422" y="-162"/>
			<point x="408" y="-167"/>
			<point x="390" y="-167" type="curve" smooth="yes"/>
			<point x="359" y="-167"/>
			<point x="334" y="-152"/>
			<point x="334" y="-120" type="curve" smooth="yes"/>
			<point x="334" y="-78"/>
			<point x="372" y="-37"/>
			<point x="455" y="-4" type="curve"/>
			<point x="553" y="489" type="line"/>
			<point x="460" y="489" type="line"/>
			<point x="398" y="177" type="line"/>
			<point x="337" y="108"/>
			<point x="276" y="67"/>
			<point x="216" y="67" type="curve" smooth="yes"/>
			<point x="171" y="67"/>
			<point x="146" y="92"/>
			<point x="146" y="136" type="curve" smooth="yes"/>
			<point x="146" y="156"/>
			<point x="150" y="176"/>
			<point x="155" y="200" type="curve" smooth="yes"/>
			<point x="213" y="489" type="line"/>
			<point x="121" y="489" type="line"/>
			<point x="61" y="189" type="line" smooth="yes"/>
			<point x="55" y="163"/>
			<point x="52" y="138"/>
			<point x="52" y="111" type="curve" smooth="yes"/>
			<point x="52" y="35"/>
			<point x="92" y="-12"/>
			<point x="178" y="-12" type="curve" smooth="yes"/>
			<point x="260" y="-12"/>
			<point x="331" y="40"/>
			<point x="387" y="95" type="curve"/>
			<point x="391" y="95" type="line"/>
			<point x="380" y="1" type="line"/>
			<point x="326" y="-28"/>
			<point x="265" y="-78"/>
			<point x="265" y="-146" type="curve" smooth="yes"/>
			<point x="265" y="-201"/>
			<point x="307" y="-226"/>
		</contour>
	</outline>
	<anchor name="aboveLC" x="336" y="510"/>
</glyph>
<glyph name="longs" format="2">
	<unicode hex="017F"/>
	<advance width="600"/>
	<outline>
		<contour>
			<point x="163" y="0" type="line"/>
			<point x="255" y="0" type="line"/>
			<point x="361" y="532" type="line" smooth="yes"/>
			<point x="378" y="614"/>
			<point x="425" y="647"/>
			<point x="490" y="647" type="curve" smooth="yes"/>
			<point x="530" y="647"/>
			<point x="560" y="635"/>
			<point x="589" y="613" type="curve"/>
			<point x="633" y="671" type="line"/>
			<point x="600" y="699"/>
			<point x="550" y="721"/>
			<point x="487" y="721" type="curve" smooth="yes"/>
			<point x="372" y="721"/>
			<point x="296" y="663"/>
			<point x="270" y="534" type="curve" smooth="yes"/>
		</contour>
		<contour>
			<point x="108" y="415" type="line"/>
			<point x="294" y="415" type="line"/>
			<point x="309" y="489" type="line"/>
			<point x="262" y="489" type="line"/>
			<point x="122" y="484" type="line"/>
		</contour>
	</outline>
</glyph>
<glyph name="Dhook" format="1">
	<unicode hex="018A"/>
	<advance width="600"/>
	<outline>
		<contour>
			<point x="136" y="0" type="line"/>
			<point x="213" y="0" type="line" smooth="yes"/>
			<point x="443" y="0"/>
			<point x="589" y="171"/>
			<point x="589" y="419" type="curve" smooth="yes"/>
			<point x="589" y="579"/>
			<point x="495" y="668"/>
			<point x="329" y="668" type="curve" smooth="yes"/>
			<point x="136" y="668"/>
			<point x="31" y="532"/>
			<point x="31" y="397" type="curve" smooth="yes"/>
			<point x="31" y="331"/>
			<point x="60" y="287"/>
			<point x="108" y="262" type="curve"/>
			<point x="156" y="322" type="line"/>
			<point x="123" y="342"/>
			<point x="107" y="371"/>
			<point x="107" y="410" type="curve" smooth="yes"/>
			<point x="107" y="500"/>
			<point x="175" y="592"/>
			<point x="293" y="592" type="curve" smooth="yes"/>
			<point x="332" y="592" type="line" smooth="yes"/>
			<point x="444" y="592"/>
			<point x="493" y="527"/>
			<point x="493" y="413" type="curve" smooth="yes"/>
			<point x="493" y="208"/>
			<point x="379" y="76"/>
			<point x="246" y="76" type="curve" smooth="yes"/>
			<point x="239" y="76" type="line"/>
			<point x="346" y="614" type="line"/>
			<point x="258" y="614" type="line"/>
		</contour>
		<contour>
			<point name="aboveUC" x="385" y="675" type="move"/>
		</contour>
		<contour>
			<point name="belowLC" x="275" y="-20" type="move"/>
		</contour>
	</outline>
</glyph>
<glyph name="ohorn" format="2">
	<unicode hex="01A1"/>
	<advance width="600"/>
	<outline>
		<contour>
			<point x="464" y="438" type="line"/>
			<point x="542" y="456"/>
			<point x="605" y="498"/>
			<point x="605" y="592" type="curve" smooth="yes"/>
			<point x="605" y="616"/>
			<point x="602" y="635"/>
			<point x="593" y="661" type="curve"/>
			<point x="521" y="636" type="line"/>
			<point x="527" y="619"/>
			<point x="529" y="603"/>
			<point x="529" y="587" type="curve" smooth="yes"/>
			<point x="529" y="521"/>
			<point x="486" y="483"/>
			<point x="420" y="477" type="curve"/>
		</contour>
		<component base="o"/>
	</outline>
	<anchor name="aboveLC" x="339" y="510"/>
	<anchor name="belowLC" x="234" y="-20"/>
</glyph>
<glyph name="Oogonek" format="1">
	<unicode hex="01EA"/>
	<advance width="600"/>
	<outline>
		<contour>
			<point x="213" y="-226" type="curve" smooth="yes"/>
			<point x="248" y="-226"/>
			<point x="284" y="-214"/>
			<point x="309" y="-195" type="curve"/>
			<point x="289" y="-149" type="line"/>
			<point x="274" y="-158"/>
			<point x="261" y="-163"/>
			<point x="245" y="-163" type="curve" smooth="yes"/>
			<point x="216" y="-163"/>
			<point x="193" y="-149"/>
			<point x="193" y="-120" type="curve" smooth="yes"/>
			<point x="193" y="-89"/>
			<point x="227" y="-26"/>
			<point x="306" y="-8" type="curve" smooth="yes"/>
			<point x="474" y="30"/>
			<point x="570" y="217"/>
			<point x="570" y="406" type="curve" smooth="yes"/>
			<point x="570" y="564"/>
			<point x="489" y="667"/>
			<point x="356" y="667" type="curve" smooth="yes"/>
			<point x="161" y="667"/>
			<point x="38" y="461"/>
			<point x="38" y="249" type="curve" smooth="yes"/>
			<point x="38" y="95"/>
			<point x="113" y="8"/>
			<point x="215" y="-10" type="curve"/>
			<point x="167" y="-39"/>
			<point x="118" y="-92"/>
			<point x="118" y="-149" type="curve" smooth="yes"/>
			<point x="118" y="-201"/>
			<point x="161" y="-226"/>
		</contour>
		<contour>
			<point x="262" y="66" type="curve" smooth="yes"/>
			<point x="175" y="66"/>
			<point x="133" y="132"/>
			<point x="133" y="243" type="curve" smooth="yes"/>
			<point x="133" y="412"/>
			<point x="215" y="587"/>
			<point x="347" y="587" type="curve" smooth="yes"/>
			<point x="434" y="587"/>
			<point x="475" y="521"/>
			<point x="475" y="412" type="curve" smooth="yes"/>
			<point x="475" y="240"/>
			<point x="394" y="66"/>
		</contour>
		<contour>
			<point name="aboveUC" x="372" y="675" type="move"/>
		</contour>
	</outline>
</glyph>
<glyph name="oogonek" format="2">
	<unicode hex="01EB"/>
	<advance width="600"/>
	<outline>
		<contour>
			<point x="214" y="-226" type="curve" smooth="yes"/>
			<point x="254" y="-226"/>
			<point x="287" y="-212"/>
			<point x="312" y="-192" type="curve"/>
			<point x="293" y="-152" type="line"/>
			<point x="277" y="-162"/>
			<point x="263" y="-167"/>
			<point x="245" y="-167" type="curve" smooth="yes"/>
			<point x="215" y="-167"/>
			<point x="190" y="-152"/>
			<point x="190" y="-120" type="curve" smooth="yes"/>
			<point x="190" y="-85"/>
			<point x="226" y="-28"/>
			<point x="314" y="-6" type="curve" smooth="yes"/>
			<point x="430" y="24"/>
			<point x="533" y="128"/>
			<point x="533" y="286" type="curve" smooth="yes"/>
			<point x="533" y="414"/>
			<point x="455" y="501"/>
			<point x="325" y="501" type="curve" smooth="yes"/>
			<point x="176" y="501"/>
			<point x="43" y="375"/>
			<point x="43" y="203" type="curve" smooth="yes"/>
			<point x="43" y="83"/>
			<point x="112" y="4"/>
			<point x="211" y="-8" type="curve"/>
			<point x="169" y="-36"/>
			<point x="120" y="-88"/>
			<point x="120" y="-146" type="curve" smooth="yes"/>
			<point x="120" y="-201"/>
			<point x="163" y="-226"/>
		</contour>
		<contour>
			<point x="258" y="63" type="curve" smooth="yes"/>
			<point x="182" y="63"/>
			<point x="136" y="117"/>
			<point x="136" y="208" type="curve" smooth="yes"/>
			<point x="136" y="329"/>
			<point x="223" y="424"/>
			<point x="318" y="424" type="curve" smooth="yes"/>
			<point x="394" y="424"/>
			<point x="439" y="370"/>
			<point x="439" y="281" type="curve" smooth="yes"/>
			<point x="439" y="158"/>
			<point x="353" y="63"/>
		</contour>
	</outline>
	<anchor name="aboveLC" x="340" y="510"/>
</glyph>
<glyph name="aturned" format="1">
	<unicode hex="0250"/>
	<advance width="600"/>
	<outline>
		<component base="a.a" xScale="-1" yScale="-1" xOffset="580" yOffset="489"/>
		<contour>
			<point name="aboveLC" x="350" y="510" type="move"/>
		</contour>
		<contour>
			<point name="belowLC" x="245" y="-20" type="move"/>
		</contour>
	</outline>
</glyph>
<glyph name="bhook" format="1">
	<unicode hex="0253"/>
	<advance width="600"/>
	<outline>
		<contour>
			<point x="274" y="-12" type="curve" smooth="yes"/>
			<point x="422" y="-12"/>
			<point x="541" y="127"/>
			<point x="541" y="303" type="curve" smooth="yes"/>
			<point x="541" y="424"/>
			<point x="477" y="491"/>
			<point x="373" y="491" type="curve" smooth="yes"/>
			<point x="313" y="491"/>
			<point x="250" y="456"/>
			<point x="203" y="411" type="curve"/>
			<point x="200" y="411" type="line"/>
			<point x="228" y="524" type="line" smooth="yes"/>
			<point x="250" y="614"/>
			<point x="289" y="643"/>
			<point x="352" y="643" type="curve" smooth="yes"/>
			<point x="376" y="643"/>
			<point x="399" y="637"/>
			<point x="419" y="625" type="curve"/>
			<point x="452" y="697" type="line"/>
			<point x="427" y="711"/>
			<point x="393" y="721"/>
			<point x="353" y="721" type="curve" smooth="yes"/>
			<point x="228" y="721"/>
			<point x="160" y="647"/>
			<point x="136" y="523" type="curve" smooth="yes"/>
			<point x="31" y="0" type="line"/>
			<point x="107" y="0" type="line"/>
			<point x="126" y="59" type="line"/>
			<point x="129" y="59" type="line"/>
			<point x="158" y="17"/>
			<point x="213" y="-12"/>
		</contour>
		<contour>
			<point x="264" y="65" type="curve" smooth="yes"/>
			<point x="220" y="65"/>
			<point x="179" y="82"/>
			<point x="149" y="128" type="curve"/>
			<point x="188" y="324" type="line"/>
			<point x="236" y="382"/>
			<point x="295" y="414"/>
			<point x="341" y="414" type="curve" smooth="yes"/>
			<point x="404" y="414"/>
			<point x="445" y="374"/>
			<point x="445" y="290" type="curve" smooth="yes"/>
			<point x="445" y="166"/>
			<point x="366" y="65"/>
		</contour>
		<contour>
			<point name="aboveUC" x="355" y="735" type="move"/>
		</contour>
		<contour>
			<point name="belowLC" x="250" y="-20" type="move"/>
		</contour>
	</outline>
</glyph>
<glyph name="oopen" format="1">
	<unicode hex="0254"/>
	<advance width="600"/>
	<outline>
		<contour>
			<point x="210" y="-12" type="curve" smooth="yes"/>
			<point x="380" y="-12"/>
			<point x="516" y="106"/>
			<point x="516" y="291" type="curve" smooth="yes"/>
			<point x="516" y="428"/>
			<point x="418" y="501"/>
			<point x="295" y="501" type="curve" smooth="yes"/>
			<point x="210" y="501"/>
			<point x="146" y="467"/>
			<point x="99" y="426" type="curve"/>
			<point x="134" y="363" type="line"/>
			<point x="177" y="398"/>
			<point x="221" y="424"/>
			<point x="281" y="424" type="curve" smooth="yes"/>
			<point x="363" y="424"/>
			<point x="422" y="373"/>
			<point x="422" y="282" type="curve" smooth="yes"/>
			<point x="422" y="154"/>
			<point x="329" y="65"/>
			<point x="218" y="65" type="curve" smooth="yes"/>
			<point x="158" y="65"/>
			<point x="116" y="87"/>
			<point x="82" y="126" type="curve"/>
			<point x="26" y="73" type="line"/>
			<point x="63" y="27"/>
			<point x="126" y="-12"/>
		</contour>
		<contour>
			<point name="aboveLC" x="325" y="510" type="move"/>
		</contour>
		<contour>
			<point name="baseLC" x="245" y="0" type="move"/>
		</contour>
		<contour>
			<point name="belowLC" x="227" y="-20" type="move"/>
		</contour>
	</outline>
</glyph>
<glyph name="ccurl" format="1">
	<unicode hex="0255"/>
	<advance width="600"/>
	<outline>
		<contour>
			<point x="102" y="-99" type="line"/>
			<point x="185" y="62"/>
			<point x="290" y="159"/>
			<point x="376" y="159" type="curve" smooth="yes"/>
			<point x="413" y="159"/>
			<point x="427" y="143"/>
			<point x="427" y="125" type="curve" smooth="yes"/>
			<point x="427" y="91"/>
			<point x="385" y="61"/>
			<point x="319" y="61" type="curve" smooth="yes"/>
			<point x="231" y="61"/>
			<point x="154" y="110"/>
			<point x="154" y="213" type="curve" smooth="yes"/>
			<point x="154" y="332"/>
			<point x="256" y="428"/>
			<point x="352" y="428" type="curve" smooth="yes"/>
			<point x="410" y="428"/>
			<point x="455" y="406"/>
			<point x="490" y="364" type="curve"/>
			<point x="546" y="413" type="line"/>
			<point x="511" y="459"/>
			<point x="447" y="501"/>
			<point x="361" y="501" type="curve" smooth="yes"/>
			<point x="206" y="501"/>
			<point x="65" y="381"/>
			<point x="65" y="203" type="curve" smooth="yes"/>
			<point x="65" y="63"/>
			<point x="182" y="-12"/>
			<point x="306" y="-12" type="curve" smooth="yes"/>
			<point x="430" y="-12"/>
			<point x="502" y="54"/>
			<point x="502" y="138" type="curve" smooth="yes"/>
			<point x="502" y="191"/>
			<point x="464" y="227"/>
			<point x="389" y="227" type="curve" smooth="yes"/>
			<point x="271" y="227"/>
			<point x="138" y="123"/>
			<point x="32" y="-66" type="curve"/>
		</contour>
		<contour>
			<point name="aboveLC" x="375" y="510" type="move"/>
		</contour>
		<contour>
			<point name="belowLC" x="292" y="-20" type="move"/>
		</contour>
	</outline>
</glyph>
<glyph name="ereversed" format="2">
	<unicode hex="0258"/>
	<advance width="600"/>
	<outline>
		<contour>
			<point x="239" y="-12" type="curve" smooth="yes"/>
			<point x="406" y="-12"/>
			<point x="531" y="101"/>
			<point x="531" y="293" type="curve" smooth="yes"/>
			<point x="531" y="427"/>
			<point x="447" y="501"/>
			<point x="331" y="501" type="curve" smooth="yes"/>
			<point x="160" y="501"/>
			<point x="70" y="364"/>
			<point x="70" y="259" type="curve" smooth="yes"/>
			<point x="70" y="242"/>
			<point x="71" y="231"/>
			<point x="73" y="220" type="curve"/>
			<point x="469" y="220" type="line"/>
			<point x="471" y="288" type="line"/>
			<point x="138" y="288" type="line"/>
			<point x="153" y="270" type="line"/>
			<point x="158" y="357"/>
			<point x="233" y="428"/>
			<point x="317" y="428" type="curve" smooth="yes"/>
			<point x="387" y="428"/>
			<point x="438" y="385"/>
			<point x="438" y="289" type="curve" smooth="yes"/>
			<point x="438" y="145"/>
			<point x="351" y="60"/>
			<point x="245" y="60" type="curve" smooth="yes"/>
			<point x="184" y="60"/>
			<point x="141" y="82"/>
			<point x="105" y="116" type="curve"/>
			<point x="56" y="59" type="line"/>
			<point x="93" y="18"/>
			<point x="162" y="-12"/>
		</contour>
	</outline>
</glyph>
<glyph name="eopen" format="2">
	<unicode hex="025B"/>
	<advance width="600"/>
	<outline>
		<contour>
			<point x="255" y="-12" type="curve" smooth="yes"/>
			<point x="338" y="-12"/>
			<point x="397" y="-3"/>
			<point x="477" y="47" type="curve"/>
			<point x="450" y="112" type="line"/>
			<point x="386" y="73"/>
			<point x="338" y="60"/>
			<point x="278" y="60" type="curve" smooth="yes"/>
			<point x="202" y="60"/>
			<point x="147" y="95"/>
			<point x="147" y="142" type="curve" smooth="yes"/>
			<point x="147" y="197"/>
			<point x="198" y="220"/>
			<point x="295" y="220" type="curve"/>
			<point x="382" y="220" type="line"/>
			<point x="396" y="288" type="line"/>
			<point x="322" y="288" type="line"/>
			<point x="246" y="288"/>
			<point x="215" y="309"/>
			<point x="215" y="351" type="curve" smooth="yes"/>
			<point x="215" y="393"/>
			<point x="258" y="428"/>
			<point x="334" y="428" type="curve" smooth="yes"/>
			<point x="401" y="428"/>
			<point x="446" y="406"/>
			<point x="493" y="366" type="curve"/>
			<point x="543" y="428" type="line"/>
			<point x="494" y="473"/>
			<point x="423" y="501"/>
			<point x="340" y="501" type="curve" smooth="yes"/>
			<point x="218" y="501"/>
			<point x="119" y="447"/>
			<point x="119" y="358" type="curve" smooth="yes"/>
			<point x="119" y="316"/>
			<point x="142" y="283"/>
			<point x="196" y="263" type="curve"/>
			<point x="195" y="259" type="line"/>
			<point x="116" y="247"/>
			<point x="51" y="205"/>
			<point x="51" y="124" type="curve" smooth="yes"/>
			<point x="51" y="41"/>
			<point x="144" y="-12"/>
		</contour>
	</outline>
</glyph>
<glyph name="eopenreversed" format="2">
	<unicode hex="025C"/>
	<advance width="600"/>
	<outline>
		<contour>
			<point x="259" y="-12" type="curve" smooth="yes"/>
			<point x="393" y="-12"/>
			<point x="493" y="53"/>
			<point x="493" y="150" type="curve" smooth="yes"/>
			<point x="493" y="200"/>
			<point x="456" y="242"/>
			<point x="404" y="258" type="curve"/>
			<point x="405" y="262" type="line"/>
			<point x="466" y="278"/>
			<point x="513" y="316"/>
			<point x="513" y="381" type="curve" smooth="yes"/>
			<point x="513" y="460"/>
			<point x="428" y="501"/>
			<point x="326" y="501" type="curve" smooth="yes"/>
			<point x="259" y="501"/>
			<point x="189" y="486"/>
			<point x="120" y="446" type="curve"/>
			<point x="148" y="382" type="line"/>
			<point x="203" y="411"/>
			<point x="262" y="428"/>
			<point x="305" y="428" type="curve" smooth="yes"/>
			<point x="372" y="428"/>
			<point x="419" y="407"/>
			<point x="419" y="362" type="curve" smooth="yes"/>
			<point x="419" y="316"/>
			<point x="367" y="288"/>
			<point x="287" y="288" type="curve" smooth="yes"/>
			<point x="208" y="288" type="line"/>
			<point x="195" y="220" type="line"/>
			<point x="273" y="220" type="line" smooth="yes"/>
			<point x="357" y="220"/>
			<point x="397" y="195"/>
			<point x="397" y="151" type="curve" smooth="yes"/>
			<point x="397" y="102"/>
			<point x="346" y="62"/>
			<point x="264" y="62" type="curve" smooth="yes"/>
			<point x="197" y="62"/>
			<point x="142" y="84"/>
			<point x="91" y="125" type="curve"/>
			<point x="41" y="61" type="line"/>
			<point x="100" y="11"/>
			<point x="175" y="-12"/>
		</contour>
	</outline>
</glyph>
<glyph name="dotlessjstroke" format="1">
	<unicode hex="025F"/>
	<advance width="600"/>
	<outline>
		<contour>
			<point x="116" y="207" type="line"/>
			<point x="543" y="207" type="line"/>
			<point x="556" y="270" type="line"/>
			<point x="318" y="270" type="line"/>
			<point x="127" y="264" type="line"/>
		</contour>
		<component base="dotlessj"/>
		<contour>
			<point name="aboveLC" x="394" y="509" type="move"/>
		</contour>
		<contour>
			<point name="belowLC" x="150" y="-215" type="move"/>
		</contour>
	</outline>
</glyph>
<glyph name="ramshorn" format="2">
	<unicode hex="0264"/>
	<advance width="600"/>
	<outline>
		<contour>
			<point x="238" y="-12" type="curve" smooth="yes"/>
			<point x="367" y="-12"/>
			<point x="448" y="80"/>
			<point x="448" y="191" type="curve" smooth="yes"/>
			<point x="448" y="250"/>
			<point x="417" y="308"/>
			<point x="376" y="359" type="curve"/>
			<point x="418" y="400"/>
			<point x="454" y="425"/>
			<point x="489" y="425" type="curve" smooth="yes"/>
			<point x="507" y="425"/>
			<point x="522" y="419"/>
			<point x="532" y="410" type="curve"/>
			<point x="576" y="477" type="line"/>
			<point x="558" y="492"/>
			<point x="524" y="501"/>
			<point x="492" y="501" type="curve" smooth="yes"/>
			<point x="439" y="501"/>
			<point x="378" y="469"/>
			<point x="321" y="415" type="curve"/>
			<point x="286" y="469"/>
			<point x="236" y="501"/>
			<point x="184" y="501" type="curve" smooth="yes"/>
			<point x="153" y="501"/>
			<point x="116" y="493"/>
			<point x="93" y="478" type="curve"/>
			<point x="108" y="411" type="line"/>
			<point x="122" y="420"/>
			<point x="139" y="425"/>
			<point x="156" y="425" type="curve" smooth="yes"/>
			<point x="190" y="425"/>
			<point x="221" y="402"/>
			<point x="247" y="361" type="curve"/>
			<point x="158" y="286"/>
			<point x="93" y="206"/>
			<point x="93" y="118" type="curve" smooth="yes"/>
			<point x="93" y="36"/>
			<point x="147" y="-12"/>
		</contour>
		<contour>
			<point x="251" y="65" type="curve" smooth="yes"/>
			<point x="205" y="65"/>
			<point x="182" y="95"/>
			<point x="182" y="134" type="curve" smooth="yes"/>
			<point x="182" y="196"/>
			<point x="236" y="261"/>
			<point x="303" y="313" type="curve"/>
			<point x="335" y="275"/>
			<point x="359" y="229"/>
			<point x="359" y="183" type="curve" smooth="yes"/>
			<point x="359" y="120"/>
			<point x="319" y="65"/>
		</contour>
	</outline>
	<anchor name="aboveLC" x="337" y="510"/>
	<anchor name="belowLC" x="235" y="-20"/>
</glyph>
<glyph name="hturned" format="1">
	<unicode hex="0265"/>
	<advance width="600"/>
	<outline>
		<contour>
			<point x="324" y="-200" type="line"/>
			<point x="416" y="-200" type="line"/>
			<point x="554" y="489" type="line"/>
			<point x="462" y="489" type="line"/>
			<point x="400" y="177" type="line"/>
			<point x="339" y="108"/>
			<point x="276" y="67"/>
			<point x="216" y="67" type="curve" smooth="yes"/>
			<point x="171" y="67"/>
			<point x="146" y="91"/>
			<point x="146" y="136" type="curve" smooth="yes"/>
			<point x="146" y="156"/>
			<point x="150" y="176"/>
			<point x="155" y="200" type="curve" smooth="yes"/>
			<point x="213" y="489" type="line"/>
			<point x="121" y="489" type="line"/>
			<point x="61" y="189" type="line" smooth="yes"/>
			<point x="55" y="163"/>
			<point x="52" y="138"/>
			<point x="52" y="111" type="curve" smooth="yes"/>
			<point x="52" y="35"/>
			<point x="92" y="-12"/>
			<point x="177" y="-12" type="curve" smooth="yes"/>
			<point x="258" y="-12"/>
			<point x="327" y="36"/>
			<point x="384" y="93" type="curve"/>
			<point x="388" y="93" type="line"/>
			<point x="371" y="27" type="line"/>
		</contour>
		<contour>
			<point name="aboveLC" x="336" y="510" type="move"/>
		</contour>
		<contour>
			<point name="belowLC" x="237" y="-20" type="move"/>
		</contour>
	</outline>
</glyph>
<glyph name="hhook" format="1">
	<unicode hex="0266"/>
	<advance width="600"/>
	<outline>
		<contour>
			<point x="31" y="0" type="line"/>
			<point x="123" y="0" type="line"/>
			<point x="183" y="302" type="line"/>
			<point x="244" y="371"/>
			<point x="308" y="412"/>
			<point x="367" y="412" type="curve" smooth="yes"/>
			<point x="412" y="412"/>
			<point x="437" y="388"/>
			<point x="437" y="343" type="curve" smooth="yes"/>
			<point x="437" y="323"/>
			<point x="434" y="303"/>
			<point x="428" y="279" type="curve" smooth="yes"/>
			<point x="372" y="0" type="line"/>
			<point x="465" y="0" type="line"/>
			<point x="523" y="290" type="line" smooth="yes"/>
			<point x="528" y="316"/>
			<point x="532" y="341"/>
			<point x="532" y="368" type="curve" smooth="yes"/>
			<point x="532" y="444"/>
			<point x="491" y="491"/>
			<point x="406" y="491" type="curve" smooth="yes"/>
			<point x="325" y="491"/>
			<point x="256" y="443"/>
			<point x="199" y="385" type="curve"/>
			<point x="195" y="385" type="line"/>
			<point x="228" y="524" type="line"/>
			<point x="248" y="612"/>
			<point x="289" y="643"/>
			<point x="352" y="643" type="curve" smooth="yes"/>
			<point x="376" y="643"/>
			<point x="399" y="637"/>
			<point x="419" y="625" type="curve"/>
			<point x="452" y="697" type="line"/>
			<point x="427" y="711"/>
			<point x="393" y="721"/>
			<point x="353" y="721" type="curve" smooth="yes"/>
			<point x="228" y="721"/>
			<point x="161" y="647"/>
			<point x="136" y="523" type="curve"/>
		</contour>
		<contour>
			<point name="aboveUC" x="324" y="735" type="move"/>
		</contour>
		<contour>
			<point name="belowLC" x="259" y="-20" type="move"/>
		</contour>
	</outline>
</glyph>
<glyph name="henghook" format="2">
	<unicode hex="0267"/>
	<advance width="600"/>
	<outline>
		<contour>
			<point x="305" y="-184" type="curve" smooth="yes"/>
			<point x="397" y="-184"/>
			<point x="440" y="-120"/>
			<point x="459" y="-25" type="curve" smooth="yes"/>
			<point x="523" y="290" type="line" smooth="yes"/>
			<point x="528" y="316"/>
			<point x="532" y="341"/>
			<point x="532" y="368" type="curve" smooth="yes"/>
			<point x="532" y="444"/>
			<point x="491" y="491"/>
			<point x="406" y="491" type="curve" smooth="yes"/>
			<point x="325" y="491"/>
			<point x="256" y="443"/>
			<point x="199" y="385" type="curve"/>
			<point x="195" y="385" type="line"/>
			<point x="228" y="524" type="line"/>
			<point x="248" y="612"/>
			<point x="289" y="643"/>
			<point x="352" y="643" type="curve" smooth="yes"/>
			<point x="376" y="643"/>
			<point x="399" y="637"/>
			<point x="419" y="625" type="curve"/>
			<point x="452" y="697" type="line"/>
			<point x="427" y="711"/>
			<point x="393" y="721"/>
			<point x="353" y="721" type="curve" smooth="yes"/>
			<point x="228" y="721"/>
			<point x="161" y="647"/>
			<point x="136" y="523" type="curve"/>
			<point x="31" y="0" type="line"/>
			<point x="123" y="0" type="line"/>
			<point x="183" y="302" type="line"/>
			<point x="244" y="371"/>
			<point x="308" y="412"/>
			<point x="367" y="412" type="curve" smooth="yes"/>
			<point x="412" y="412"/>
			<point x="437" y="388"/>
			<point x="437" y="343" type="curve" smooth="yes"/>
			<point x="437" y="323"/>
			<point x="433" y="303"/>
			<point x="428" y="279" type="curve" smooth="yes"/>
			<point x="368" y="-22" type="line" smooth="yes"/>
			<point x="356" y="-82"/>
			<point x="337" y="-109"/>
			<point x="299" y="-109" type="curve" smooth="yes"/>
			<point x="279" y="-109"/>
			<point x="267" y="-104"/>
			<point x="254" y="-96" type="curve"/>
			<point x="224" y="-164" type="line"/>
			<point x="249" y="-177"/>
			<point x="273" y="-184"/>
		</contour>
	</outline>
	<anchor name="aboveUC" x="324" y="735"/>
</glyph>
<glyph name="ismall" format="2">
	<unicode hex="026A"/>
	<advance width="600"/>
	<outline>
		<contour>
			<point x="36" y="0" type="line"/>
			<point x="442" y="0" type="line"/>
			<point x="458" y="78" type="line"/>
			<point x="302" y="78" type="line"/>
			<point x="368" y="410" type="line"/>
			<point x="525" y="410" type="line"/>
			<point x="540" y="489" type="line"/>
			<point x="133" y="489" type="line"/>
			<point x="118" y="410" type="line"/>
			<point x="272" y="410" type="line"/>
			<point x="206" y="78" type="line"/>
			<point x="52" y="78" type="line"/>
		</contour>
	</outline>
	<anchor name="aboveLC" x="339" y="510"/>
	<anchor name="belowLC" x="234" y="-20"/>
</glyph>
<glyph name="lbelt" format="2">
	<unicode hex="026C"/>
	<advance width="600"/>
	<outline>
		<contour>
			<point x="209" y="298" type="curve" smooth="yes"/>
			<point x="451" y="298" type="line"/>
			<point x="466" y="362" type="line"/>
			<point x="202" y="362" type="line" smooth="yes"/>
			<point x="160" y="362"/>
			<point x="139" y="377"/>
			<point x="139" y="399" type="curve" smooth="yes"/>
			<point x="139" y="418"/>
			<point x="152" y="431"/>
			<point x="172" y="431" type="curve" smooth="yes"/>
			<point x="216" y="431"/>
			<point x="242" y="396"/>
			<point x="235" y="362" type="curve"/>
			<point x="270" y="348" type="line"/>
			<point x="272" y="424"/>
			<point x="239" y="489"/>
			<point x="166" y="489" type="curve" smooth="yes"/>
			<point x="112" y="489"/>
			<point x="75" y="452"/>
			<point x="75" y="399" type="curve" smooth="yes"/>
			<point x="75" y="339"/>
			<point x="119" y="298"/>
		</contour>
		<component base="l"/>
	</outline>
</glyph>
<glyph name="lretroflex" format="2">
	<unicode hex="026D"/>
	<advance width="600"/>
	<outline>
		<contour>
			<point x="289" y="-184" type="curve" smooth="yes"/>
			<point x="339" y="-184"/>
			<point x="384" y="-174"/>
			<point x="429" y="-152" type="curve"/>
			<point x="408" y="-82" type="line"/>
			<point x="373" y="-99"/>
			<point x="347" y="-107"/>
			<point x="315" y="-107" type="curve" smooth="yes"/>
			<point x="274" y="-107"/>
			<point x="246" y="-87"/>
			<point x="246" y="-41" type="curve" smooth="yes"/>
			<point x="246" y="-26"/>
			<point x="248" y="-12"/>
			<point x="251" y="1" type="curve" smooth="yes"/>
			<point x="400" y="709" type="line"/>
			<point x="153" y="709" type="line"/>
			<point x="137" y="636" type="line"/>
			<point x="294" y="636" type="line"/>
			<point x="161" y="8" type="line" smooth="yes"/>
			<point x="156" y="-13"/>
			<point x="154" y="-31"/>
			<point x="154" y="-48" type="curve" smooth="yes"/>
			<point x="154" y="-136"/>
			<point x="210" y="-184"/>
		</contour>
	</outline>
	<anchor name="aboveUC" x="352" y="735"/>
	<anchor name="belowLC" x="275" y="-190"/>
</glyph>
<glyph name="mhook" format="1">
	<unicode hex="0271"/>
	<advance width="600"/>
	<outline>
		<contour>
			<point x="352" y="-184" type="curve" smooth="yes"/>
			<point x="435" y="-184"/>
			<point x="470" y="-123"/>
			<point x="490" y="-20" type="curve" smooth="yes"/>
			<point x="567" y="361" type="line" smooth="yes"/>
			<point x="572" y="384"/>
			<point x="573" y="397"/>
			<point x="573" y="415" type="curve" smooth="yes"/>
			<point x="573" y="473"/>
			<point x="544" y="501"/>
			<point x="496" y="501" type="curve" smooth="yes"/>
			<point x="447" y="501"/>
			<point x="397" y="474"/>
			<point x="350" y="408" type="curve"/>
			<point x="362" y="419" type="line"/>
			<point x="360" y="476"/>
			<point x="335" y="501"/>
			<point x="290" y="501" type="curve" smooth="yes"/>
			<point x="238" y="501"/>
			<point x="195" y="470"/>
			<point x="159" y="423" type="curve"/>
			<point x="156" y="423" type="line"/>
			<point x="161" y="489" type="line"/>
			<point x="92" y="489" type="line"/>
			<point x="-5" y="0" type="line"/>
			<point x="84" y="0" type="line"/>
			<point x="152" y="349" type="line"/>
			<point x="186" y="398"/>
			<point x="213" y="422"/>
			<point x="247" y="422" type="curve" smooth="yes"/>
			<point x="266" y="422"/>
			<point x="278" y="410"/>
			<point x="278" y="381" type="curve" smooth="yes"/>
			<point x="278" y="371"/>
			<point x="278" y="361"/>
			<point x="275" y="347" type="curve" smooth="yes"/>
			<point x="203" y="0" type="line"/>
			<point x="286" y="0" type="line"/>
			<point x="357" y="349" type="line"/>
			<point x="389" y="397"/>
			<point x="416" y="422"/>
			<point x="448" y="422" type="curve" smooth="yes"/>
			<point x="468" y="422"/>
			<point x="479" y="410"/>
			<point x="479" y="381" type="curve" smooth="yes"/>
			<point x="479" y="371"/>
			<point x="478" y="361"/>
			<point x="475" y="347" type="curve" smooth="yes"/>
			<point x="402" y="-17" type="line" smooth="yes"/>
			<point x="389" y="-80"/>
			<point x="374" y="-109"/>
			<point x="344" y="-109" type="curve" smooth="yes"/>
			<point x="326" y="-109"/>
			<point x="316" y="-106"/>
			<point x="305" y="-98" type="curve"/>
			<point x="276" y="-166" type="line"/>
			<point x="298" y="-177"/>
			<point x="321" y="-184"/>
		</contour>
		<contour>
			<point name="aboveLC" x="350" y="509" type="move"/>
		</contour>
	</outline>
</glyph>
<glyph name="nsmall" format="2">
	<unicode hex="0274"/>
	<advance width="600"/>
	<outline>
		<contour>
			<point x="45" y="0" type="line"/>
			<point x="134" y="0" type="line"/>
			<point x="170" y="186" type="line" smooth="yes"/>
			<point x="180" y="238"/>
			<point x="189" y="299"/>
			<point x="196" y="362" type="curve"/>
			<point x="200" y="362" type="line"/>
			<point x="211" y="332"/>
			<point x="226" y="287"/>
			<point x="238" y="258" type="curve" smooth="yes"/>
			<point x="345" y="0" type="line"/>
			<point x="434" y="0" type="line"/>
			<point x="530" y="489" type="line"/>
			<point x="440" y="489" type="line"/>
			<point x="405" y="303" type="line" smooth="yes"/>
			<point x="394" y="251"/>
			<point x="386" y="190"/>
			<point x="379" y="127" type="curve"/>
			<point x="375" y="127" type="line"/>
			<point x="364" y="157"/>
			<point x="348" y="202"/>
			<point x="337" y="231" type="curve" smooth="yes"/>
			<point x="230" y="489" type="line"/>
			<point x="140" y="489" type="line"/>
		</contour>
	</outline>
	<anchor name="aboveLC" x="330" y="510"/>
	<anchor name="belowLC" x="245" y="-20"/>
</glyph>
<glyph name="obar" format="2">
	<unicode hex="0275"/>
	<advance width="600"/>
	<outline>
		<contour>
			<point x="251" y="-12" type="curve" smooth="yes"/>
			<point x="401" y="-12"/>
			<point x="533" y="113"/>
			<point x="533" y="286" type="curve" smooth="yes"/>
			<point x="533" y="413"/>
			<point x="455" y="501"/>
			<point x="325" y="501" type="curve" smooth="yes"/>
			<point x="176" y="501"/>
			<point x="43" y="375"/>
			<point x="43" y="203" type="curve" smooth="yes"/>
			<point x="43" y="75"/>
			<point x="122" y="-12"/>
		</contour>
		<contour>
			<point x="258" y="60" type="curve" smooth="yes"/>
			<point x="177" y="60"/>
			<point x="132" y="116"/>
			<point x="132" y="208" type="curve" smooth="yes"/>
			<point x="132" y="332"/>
			<point x="218" y="428"/>
			<point x="318" y="428" type="curve" smooth="yes"/>
			<point x="399" y="428"/>
			<point x="444" y="373"/>
			<point x="444" y="281" type="curve" smooth="yes"/>
			<point x="444" y="156"/>
			<point x="358" y="60"/>
		</contour>
		<contour>
			<point x="114" y="220" type="line"/>
			<point x="452" y="220" type="line"/>
			<point x="465" y="288" type="line"/>
			<point x="127" y="288" type="line"/>
		</contour>
	</outline>
</glyph>
<glyph name="philatin" format="1">
	<unicode hex="0278"/>
	<advance width="600"/>
	<outline>
		<contour>
			<point x="227" y="-9" type="curve"/>
			<point x="232" y="60" type="line"/>
			<point x="171" y="61"/>
			<point x="111" y="110"/>
			<point x="111" y="211" type="curve" smooth="yes"/>
			<point x="111" y="333"/>
			<point x="194" y="424"/>
			<point x="290" y="427" type="curve"/>
			<point x="308" y="497" type="line"/>
			<point x="157" y="495"/>
			<point x="19" y="387"/>
			<point x="19" y="202" type="curve" smooth="yes"/>
			<point x="19" y="60"/>
			<point x="126" y="-8"/>
		</contour>
		<contour>
			<point x="271" y="-9" type="line"/>
			<point x="423" y="-7"/>
			<point x="560" y="101"/>
			<point x="560" y="286" type="curve" smooth="yes"/>
			<point x="560" y="428"/>
			<point x="453" y="496"/>
			<point x="352" y="497" type="curve"/>
			<point x="347" y="427" type="line"/>
			<point x="409" y="427"/>
			<point x="468" y="377"/>
			<point x="468" y="277" type="curve" smooth="yes"/>
			<point x="468" y="155"/>
			<point x="385" y="64"/>
			<point x="289" y="60" type="curve"/>
		</contour>
		<contour>
			<point x="150" y="-200" type="line"/>
			<point x="242" y="-200" type="line"/>
			<point x="435" y="709" type="line"/>
			<point x="343" y="709" type="line"/>
		</contour>
		<contour>
			<point name="aboveUC" x="393" y="735" type="move"/>
		</contour>
		<contour>
			<point name="belowLC" x="190" y="-215" type="move"/>
		</contour>
	</outline>
</glyph>
<glyph name="rsmall" format="2">
	<unicode hex="0280"/>
	<advance width="600"/>
	<outline>
		<contour>
			<point x="64" y="0" type="line"/>
			<point x="156" y="0" type="line"/>
			<point x="193" y="184" type="line"/>
			<point x="312" y="184" type="line"/>
			<point x="435" y="184"/>
			<point x="527" y="259"/>
			<point x="527" y="365" type="curve" smooth="yes"/>
			<point x="527" y="453"/>
			<point x="462" y="489"/>
			<point x="370" y="489" type="curve" smooth="yes"/>
			<point x="161" y="489" type="line"/>
		</contour>
		<contour>
			<point x="207" y="253" type="line"/>
			<point x="238" y="416" type="line"/>
			<point x="341" y="416" type="line" smooth="yes"/>
			<point x="398" y="417"/>
			<point x="432" y="396"/>
			<point x="432" y="347" type="curve" smooth="yes"/>
			<point x="432" y="296"/>
			<point x="387" y="253"/>
			<point x="309" y="253" type="curve" smooth="yes"/>
		</contour>
		<contour>
			<point x="382" y="0" type="line"/>
			<point x="478" y="0" type="line"/>
			<point x="374" y="236" type="line"/>
			<point x="300" y="207" type="line"/>
		</contour>
	</outline>
	<anchor name="aboveLC" x="355" y="510"/>
	<anchor name="belowLC" x="275" y="-20"/>
</glyph>
<glyph name="rsmallinverted" format="2">
	<unicode hex="0281"/>
	<advance width="600"/>
	<outline>
		<contour>
			<point x="64" y="0" type="line"/>
			<point x="276" y="0" type="line" smooth="yes"/>
			<point x="400" y="0"/>
			<point x="492" y="75"/>
			<point x="492" y="181" type="curve" smooth="yes"/>
			<point x="492" y="269"/>
			<point x="427" y="305"/>
			<point x="335" y="305" type="curve" smooth="yes"/>
			<point x="218" y="305" type="line"/>
			<point x="253" y="489" type="line"/>
			<point x="161" y="489" type="line"/>
		</contour>
		<contour>
			<point x="171" y="73" type="line"/>
			<point x="203" y="236" type="line"/>
			<point x="305" y="236" type="line" smooth="yes"/>
			<point x="363" y="236"/>
			<point x="396" y="216"/>
			<point x="396" y="166" type="curve" smooth="yes"/>
			<point x="396" y="116"/>
			<point x="352" y="73"/>
			<point x="274" y="73" type="curve" smooth="yes"/>
		</contour>
		<contour>
			<point x="378" y="253" type="line"/>
			<point x="575" y="489" type="line"/>
			<point x="479" y="489" type="line"/>
			<point x="315" y="281" type="line"/>
		</contour>
	</outline>
	<anchor name="aboveLC" x="370" y="510"/>
	<anchor name="belowLC" x="255" y="-20"/>
</glyph>
<glyph name="shook" format="2">
	<unicode hex="0282"/>
	<advance width="600"/>
	<outline>
		<contour>
			<point x="129" y="-184" type="curve" smooth="yes"/>
			<point x="161" y="-184"/>
			<point x="180" y="-178"/>
			<point x="197" y="-171" type="curve"/>
			<point x="190" y="-99" type="line"/>
			<point x="178" y="-104"/>
			<point x="165" y="-107"/>
			<point x="151" y="-107" type="curve" smooth="yes"/>
			<point x="124" y="-107"/>
			<point x="110" y="-95"/>
			<point x="110" y="-62" type="curve" smooth="yes"/>
			<point x="110" y="-46"/>
			<point x="115" y="-14"/>
			<point x="133" y="67" type="curve"/>
			<point x="51" y="78" type="line"/>
			<point x="32" y="-6"/>
			<point x="23" y="-45"/>
			<point x="23" y="-79" type="curve" smooth="yes"/>
			<point x="23" y="-138"/>
			<point x="52" y="-184"/>
		</contour>
		<component base="s"/>
	</outline>
	<anchor name="aboveLC" x="340" y="510"/>
	<anchor name="belowLC" x="243" y="-215"/>
</glyph>
<glyph name="dotlessjstrokehook" format="2">
	<unicode hex="0284"/>
	<advance width="600"/>
	<outline>
		<contour>
			<point x="81" y="226" type="line"/>
			<point x="507" y="226" type="line"/>
			<point x="519" y="289" type="line"/>
			<point x="258" y="289" type="line"/>
			<point x="91" y="283" type="line"/>
		</contour>
		<component base="esh"/>
	</outline>
</glyph>
<glyph name="tretroflex" format="1">
	<unicode hex="0288"/>
	<advance width="600"/>
	<outline>
		<contour>
			<point x="273" y="-184" type="curve" smooth="yes"/>
			<point x="343" y="-184"/>
			<point x="407" y="-165"/>
			<point x="449" y="-138" type="curve"/>
			<point x="420" y="-72" type="line"/>
			<point x="387" y="-91"/>
			<point x="345" y="-107"/>
			<point x="298" y="-107" type="curve" smooth="yes"/>
			<point x="246" y="-107"/>
			<point x="213" y="-81"/>
			<point x="213" y="-22" type="curve" smooth="yes"/>
			<point x="213" y="-9"/>
			<point x="214" y="3"/>
			<point x="218" y="21" type="curve" smooth="yes"/>
			<point x="299" y="415" type="line"/>
			<point x="532" y="415" type="line"/>
			<point x="547" y="489" type="line"/>
			<point x="315" y="489" type="line"/>
			<point x="347" y="644" type="line"/>
			<point x="271" y="644" type="line"/>
			<point x="227" y="489" type="line"/>
			<point x="83" y="484" type="line"/>
			<point x="70" y="415" type="line"/>
			<point x="208" y="415" type="line"/>
			<point x="128" y="22" type="line" smooth="yes"/>
			<point x="123" y="-2"/>
			<point x="120" y="-21"/>
			<point x="120" y="-42" type="curve" smooth="yes"/>
			<point x="120" y="-127"/>
			<point x="166" y="-184"/>
		</contour>
		<contour>
			<point name="aboveLC" x="302" y="637" type="move"/>
		</contour>
		<contour>
			<point name="belowLC" x="267" y="-190" type="move"/>
		</contour>
	</outline>
</glyph>
<glyph name="ysmall" format="2">
	<unicode hex="028F"/>
	<advance width="600"/>
	<outline>
		<contour>
			<point x="193" y="0" type="line"/>
			<point x="289" y="0" type="line"/>
			<point x="320" y="160" type="line"/>
			<point x="572" y="489" type="line"/>
			<point x="472" y="489" type="line"/>
			<point x="373" y="359" type="line"/>
			<point x="348" y="320"/>
			<point x="316" y="285"/>
			<point x="291" y="245" type="curve"/>
			<point x="287" y="245" type="line"/>
			<point x="277" y="285"/>
			<point x="257" y="320"/>
			<point x="248" y="359" type="curve"/>
			<point x="200" y="489" type="line"/>
			<point x="98" y="489" type="line"/>
			<point x="224" y="160" type="line"/>
		</contour>
	</outline>
	<anchor name="aboveLC" x="335" y="510"/>
	<anchor name="belowLC" x="234" y="-20"/>
</glyph>
<glyph name="zretroflex" format="2">
	<unicode hex="0290"/>
	<advance width="600"/>
	<outline>
		<contour>
			<point x="465" y="-184" type="curve" smooth="yes"/>
			<point x="496" y="-184"/>
			<point x="516" y="-178"/>
			<point x="532" y="-171" type="curve"/>
			<point x="526" y="-97" type="line"/>
			<point x="515" y="-102"/>
			<point x="503" y="-105"/>
			<point x="492" y="-105" type="curve" smooth="yes"/>
			<point x="467" y="-105"/>
			<point x="455" y="-94"/>
			<point x="455" y="-62" type="curve" smooth="yes"/>
			<point x="455" y="-47"/>
			<point x="461" y="-11"/>
			<point x="480" y="74" type="curve"/>
			<point x="168" y="74" type="line"/>
			<point x="531" y="434" type="line"/>
			<point x="540" y="489" type="line"/>
			<point x="125" y="489" type="line"/>
			<point x="109" y="416" type="line"/>
			<point x="405" y="416" type="line"/>
			<point x="41" y="55" type="line"/>
			<point x="31" y="0" type="line"/>
			<point x="371" y="0" type="line"/>
			<point x="362" y="-46"/>
			<point x="359" y="-61"/>
			<point x="359" y="-79" type="curve" smooth="yes"/>
			<point x="359" y="-138"/>
			<point x="387" y="-184"/>
		</contour>
	</outline>
	<anchor name="aboveLC" x="344" y="510"/>
</glyph>
<glyph name="ezh" format="1">
	<unicode hex="0292"/>
	<advance width="600"/>
	<outline>
		<contour>
			<point x="192" y="-212" type="curve" smooth="yes"/>
			<point x="341" y="-212"/>
			<point x="467" y="-98"/>
			<point x="467" y="42" type="curve" smooth="yes"/>
			<point x="467" y="140"/>
			<point x="393" y="213"/>
			<point x="269" y="201" type="curve"/>
			<point x="527" y="435" type="line"/>
			<point x="537" y="489" type="line"/>
			<point x="143" y="489" type="line"/>
			<point x="129" y="415" type="line"/>
			<point x="404" y="415" type="line"/>
			<point x="132" y="170" type="line"/>
			<point x="156" y="120" type="line"/>
			<point x="189" y="135"/>
			<point x="208" y="140"/>
			<point x="244" y="140" type="curve" smooth="yes"/>
			<point x="325" y="140"/>
			<point x="374" y="104"/>
			<point x="374" y="26" type="curve" smooth="yes"/>
			<point x="374" y="-66"/>
			<point x="287" y="-137"/>
			<point x="196" y="-137" type="curve" smooth="yes"/>
			<point x="117" y="-137"/>
			<point x="68" y="-104"/>
			<point x="34" y="-68" type="curve"/>
			<point x="-16" y="-122" type="line"/>
			<point x="22" y="-168"/>
			<point x="88" y="-212"/>
		</contour>
		<contour>
			<point name="aboveLC" x="333" y="513" type="move"/>
		</contour>
		<contour>
			<point name="belowLC" x="195" y="-228" type="move"/>
		</contour>
	</outline>
</glyph>
<glyph name="clickbilabial" format="1">
	<unicode hex="0298"/>
	<advance width="600"/>
	<outline>
		<contour>
			<point x="250" y="-12" type="curve" smooth="yes"/>
			<point x="442" y="-12"/>
			<point x="556" y="223"/>
			<point x="556" y="479" type="curve" smooth="yes"/>
			<point x="556" y="631"/>
			<point x="482" y="721"/>
			<point x="367" y="721" type="curve" smooth="yes"/>
			<point x="175" y="721"/>
			<point x="61" y="487"/>
			<point x="61" y="230" type="curve" smooth="yes"/>
			<point x="61" y="79"/>
			<point x="135" y="-12"/>
		</contour>
		<contour>
			<point x="256" y="65" type="curve" smooth="yes"/>
			<point x="190" y="65"/>
			<point x="148" y="119"/>
			<point x="148" y="231" type="curve" smooth="yes"/>
			<point x="148" y="443"/>
			<point x="241" y="645"/>
			<point x="361" y="645" type="curve" smooth="yes"/>
			<point x="427" y="645"/>
			<point x="469" y="590"/>
			<point x="469" y="478" type="curve" smooth="yes"/>
			<point x="469" y="266"/>
			<point x="376" y="65"/>
		</contour>
		<contour>
			<point x="305" y="295" type="curve" smooth="yes"/>
			<point x="341" y="295"/>
			<point x="371" y="327"/>
			<point x="371" y="367" type="curve" smooth="yes"/>
			<point x="371" y="401"/>
			<point x="349" y="421"/>
			<point x="316" y="421" type="curve" smooth="yes"/>
			<point x="280" y="421"/>
			<point x="250" y="388"/>
			<point x="250" y="348" type="curve" smooth="yes"/>
			<point x="250" y="315"/>
			<point x="272" y="295"/>
		</contour>
	</outline>
</glyph>
<glyph name="hsmall" format="2">
	<unicode hex="029C"/>
	<advance width="600"/>
	<outline>
		<contour>
			<point x="31" y="0" type="line"/>
			<point x="123" y="0" type="line"/>
			<point x="165" y="212" type="line"/>
			<point x="399" y="212" type="line"/>
			<point x="356" y="0" type="line"/>
			<point x="448" y="0" type="line"/>
			<point x="545" y="489" type="line"/>
			<point x="453" y="489" type="line"/>
			<point x="415" y="293" type="line"/>
			<point x="182" y="293" type="line"/>
			<point x="220" y="489" type="line"/>
			<point x="128" y="489" type="line"/>
		</contour>
	</outline>
	<anchor name="aboveLC" x="335" y="510"/>
	<anchor name="belowLC" x="234" y="-20"/>
</glyph>
<glyph name="jcrossedtail" format="1">
	<unicode hex="029D"/>
	<advance width="600"/>
	<outline>
		<component base="jcrossedtail.d"/>
		<component base="dotaccentcmb" xOffset="55"/>
		<contour>
			<point name="belowLC" x="149" y="-215" type="move"/>
		</contour>
	</outline>
</glyph>
<glyph name="kturned" format="1">
	<unicode hex="029E"/>
	<advance width="600"/>
	<outline>
		<contour>
			<point x="308" y="-200" type="line"/>
			<point x="400" y="-200" type="line"/>
			<point x="538" y="489" type="line"/>
			<point x="446" y="489" type="line"/>
			<point x="421" y="363" type="line"/>
			<point x="246" y="223" type="line"/>
			<point x="-11" y="0" type="line"/>
			<point x="99" y="0" type="line"/>
			<point x="393" y="245" type="line"/>
			<point x="397" y="245" type="line"/>
		</contour>
		<contour>
			<point x="227" y="177" type="line"/>
			<point x="288" y="239" type="line"/>
			<point x="163" y="489" type="line"/>
			<point x="67" y="489" type="line"/>
		</contour>
		<contour>
			<point name="aboveLC" x="315" y="510" type="move"/>
		</contour>
		<contour>
			<point name="belowLC" x="350" y="-215" type="move"/>
		</contour>
	</outline>
</glyph>
<glyph name="lsmall" format="2">
	<unicode hex="029F"/>
	<advance width="600"/>
	<outline>
		<contour>
			<point x="98" y="0" type="line"/>
			<point x="481" y="0" type="line"/>
			<point x="497" y="74" type="line"/>
			<point x="205" y="74" type="line"/>
			<point x="287" y="489" type="line"/>
			<point x="195" y="489" type="line"/>
		</contour>
	</outline>
	<anchor name="aboveLC" x="240" y="510"/>
	<anchor name="belowLC" x="300" y="-20"/>
</glyph>
<glyph name="dezh" format="1">
	<unicode hex="02A4"/>
	<advance width="600"/>
	<outline>
		<contour>
			<point x="93" y="-12" type="curve" smooth="yes"/>
			<point x="139" y="-12"/>
			<point x="174" y="14"/>
			<point x="212" y="58" type="curve"/>
			<point x="215" y="58" type="line"/>
			<point x="212" y="0" type="line"/>
			<point x="277" y="0" type="line"/>
			<point x="420" y="709" type="line"/>
			<point x="336" y="709" type="line"/>
			<point x="301" y="532" type="line"/>
			<point x="288" y="439" type="line"/>
			<point x="285" y="439" type="line"/>
			<point x="269" y="481"/>
			<point x="232" y="501"/>
			<point x="195" y="501" type="curve" smooth="yes"/>
			<point x="82" y="501"/>
			<point x="-18" y="347"/>
			<point x="-18" y="173" type="curve" smooth="yes"/>
			<point x="-18" y="54"/>
			<point x="26" y="-12"/>
		</contour>
		<contour>
			<point x="127" y="64" type="curve" smooth="yes"/>
			<point x="92" y="64"/>
			<point x="71" y="100"/>
			<point x="71" y="177" type="curve" smooth="yes"/>
			<point x="71" y="309"/>
			<point x="136" y="424"/>
			<point x="203" y="424" type="curve" smooth="yes"/>
			<point x="228" y="424"/>
			<point x="250" y="412"/>
			<point x="267" y="362" type="curve"/>
			<point x="223" y="144" type="line"/>
			<point x="190" y="91"/>
			<point x="159" y="64"/>
		</contour>
		<contour>
			<point x="357" y="-212" type="curve" smooth="yes"/>
			<point x="486" y="-212"/>
			<point x="579" y="-87"/>
			<point x="579" y="55" type="curve" smooth="yes"/>
			<point x="579" y="145"/>
			<point x="526" y="214"/>
			<point x="417" y="188" type="curve"/>
			<point x="431" y="167" type="line"/>
			<point x="638" y="435" type="line"/>
			<point x="648" y="489" type="line"/>
			<point x="345" y="489" type="line"/>
			<point x="330" y="415" type="line"/>
			<point x="539" y="415" type="line"/>
			<point x="350" y="173" type="line"/>
			<point x="372" y="117" type="line"/>
			<point x="392" y="126"/>
			<point x="404" y="130"/>
			<point x="423" y="130" type="curve" smooth="yes"/>
			<point x="466" y="130"/>
			<point x="490" y="101"/>
			<point x="490" y="38" type="curve" smooth="yes"/>
			<point x="490" y="-58"/>
			<point x="428" y="-137"/>
			<point x="359" y="-137" type="curve" smooth="yes"/>
			<point x="319" y="-137"/>
			<point x="287" y="-113"/>
			<point x="264" y="-90" type="curve"/>
			<point x="214" y="-143" type="line"/>
			<point x="243" y="-177"/>
			<point x="288" y="-212"/>
		</contour>
		<contour>
			<point name="aboveUC" x="376" y="735" type="move"/>
		</contour>
		<contour>
			<point name="belowLC" x="245" y="-215" type="move"/>
		</contour>
	</outline>
</glyph>
<glyph name="ts" format="2">
	<unicode hex="02A6"/>
	<advance width="600"/>
	<outline>
		<contour>
			<point x="264" y="-12" type="curve" smooth="yes"/>
			<point x="461" y="-12"/>
			<point x="535" y="60"/>
			<point x="535" y="160" type="curve" smooth="yes"/>
			<point x="535" y="287"/>
			<point x="394" y="291"/>
			<point x="394" y="369" type="curve" smooth="yes"/>
			<point x="394" y="403"/>
			<point x="420" y="430"/>
			<point x="458" y="430" type="curve" smooth="yes"/>
			<point x="490" y="430"/>
			<point x="511" y="415"/>
			<point x="532" y="394" type="curve"/>
			<point x="578" y="446" type="line"/>
			<point x="547" y="478"/>
			<point x="509" y="501"/>
			<point x="460" y="501" type="curve" smooth="yes"/>
			<point x="376" y="501"/>
			<point x="306" y="443"/>
			<point x="306" y="359" type="curve" smooth="yes"/>
			<point x="306" y="239"/>
			<point x="448" y="246"/>
			<point x="448" y="148" type="curve" smooth="yes"/>
			<point x="448" y="101"/>
			<point x="408" y="60"/>
			<point x="285" y="60" type="curve" smooth="yes"/>
			<point x="192" y="60"/>
			<point x="155" y="89"/>
			<point x="155" y="145" type="curve" smooth="yes"/>
			<point x="155" y="164"/>
			<point x="158" y="177"/>
			<point x="162" y="194" type="curve" smooth="yes"/>
			<point x="207" y="415" type="line"/>
			<point x="395" y="415" type="line"/>
			<point x="410" y="489" type="line"/>
			<point x="223" y="489" type="line"/>
			<point x="255" y="644" type="line"/>
			<point x="179" y="644" type="line"/>
			<point x="135" y="489" type="line"/>
			<point x="59" y="484" type="line"/>
			<point x="46" y="415" type="line"/>
			<point x="116" y="415" type="line"/>
			<point x="70" y="198" type="line" smooth="yes"/>
			<point x="67" y="179"/>
			<point x="61" y="153"/>
			<point x="61" y="128" type="curve" smooth="yes"/>
			<point x="61" y="45"/>
			<point x="117" y="-12"/>
		</contour>
	</outline>
	<anchor name="aboveLC" x="367" y="637"/>
	<anchor name="belowLC" x="277" y="-20"/>
</glyph>
<glyph name="ringhalfrightmod" format="1">
	<unicode hex="02BE"/>
	<advance width="600"/>
	<outline>
		<contour>
			<point x="254" y="538" type="line"/>
			<point x="382" y="536"/>
			<point x="465" y="598"/>
			<point x="465" y="699" type="curve" smooth="yes"/>
			<point x="465" y="785"/>
			<point x="404" y="832"/>
			<point x="307" y="828" type="curve"/>
			<point x="296" y="775" type="line"/>
			<point x="357" y="775"/>
			<point x="392" y="748"/>
			<point x="392" y="694" type="curve" smooth="yes"/>
			<point x="392" y="636"/>
			<point x="342" y="594"/>
			<point x="265" y="591" type="curve"/>
		</contour>
	</outline>
</glyph>
<glyph name="ringhalfleftmod" format="1">
	<unicode hex="02BF"/>
	<advance width="600"/>
	<outline>
		<contour>
			<point x="439" y="539" type="curve"/>
			<point x="450" y="592" type="line"/>
			<point x="389" y="592"/>
			<point x="354" y="619"/>
			<point x="354" y="673" type="curve" smooth="yes"/>
			<point x="354" y="731"/>
			<point x="405" y="773"/>
			<point x="481" y="776" type="curve"/>
			<point x="492" y="829" type="line"/>
			<point x="364" y="831"/>
			<point x="281" y="769"/>
			<point x="281" y="668" type="curve" smooth="yes"/>
			<point x="281" y="582"/>
			<point x="342" y="535"/>
		</contour>
	</outline>
</glyph>
<glyph name="verticallinemod" format="1">
	<unicode hex="02C8"/>
	<advance width="600"/>
	<outline>
		<contour>
			<point x="289" y="394" type="line"/>
			<point x="349" y="394" type="line"/>
			<point x="439" y="719" type="line"/>
			<point x="330" y="719" type="line"/>
		</contour>
	</outline>
</glyph>
<glyph name="gravecmb" format="1">
	<unicode hex="0300"/>
	<advance width="600"/>
	<outline>
		<contour>
			<point x="388" y="570" type="line"/>
			<point x="446" y="614" type="line"/>
			<point x="330" y="795" type="line"/>
			<point x="251" y="736" type="line"/>
		</contour>
		<contour>
			<point name="_aboveLC" x="339" y="510" type="move"/>
		</contour>
		<contour>
			<point name="aboveLC" x="300" y="510" type="move"/>
		</contour>
	</outline>
</glyph>
<glyph name="acutecmb" format="1">
	<unicode hex="0301"/>
	<advance width="600"/>
	<outline>
		<contour>
			<point x="330" y="579" type="line"/>
			<point x="517" y="717" type="line"/>
			<point x="460" y="789" type="line"/>
			<point x="288" y="632" type="line"/>
		</contour>
		<contour>
			<point name="_aboveLC" x="339" y="510" type="move"/>
		</contour>
		<contour>
			<point name="aboveLC" x="300" y="510" type="move"/>
		</contour>
	</outline>
</glyph>
<glyph name="circumflexcmb" format="1">
	<unicode hex="0302"/>
	<advance width="600"/>
	<outline>
		<contour>
			<point x="229" y="566" type="line"/>
			<point x="372" y="677" type="line"/>
			<point x="376" y="677" type="line"/>
			<point x="474" y="566" type="line"/>
			<point x="518" y="603" type="line"/>
			<point x="430" y="741" type="line"/>
			<point x="330" y="741" type="line"/>
			<point x="194" y="606" type="line"/>
		</contour>
		<contour>
			<point name="_aboveLC" x="339" y="510" type="move"/>
		</contour>
		<contour>
			<point name="aboveLC" x="385" y="734" type="move"/>
		</contour>
	</outline>
</glyph>
<glyph name="tildecmb" format="1">
	<unicode hex="0303"/>
	<advance width="600"/>
	<outline>
		<contour>
			<point x="433" y="576" type="curve" smooth="yes"/>
			<point x="501" y="576"/>
			<point x="543" y="632"/>
			<point x="558" y="716" type="curve"/>
			<point x="495" y="720" type="line"/>
			<point x="485" y="675"/>
			<point x="466" y="646"/>
			<point x="439" y="646" type="curve" smooth="yes"/>
			<point x="390" y="646"/>
			<point x="379" y="725"/>
			<point x="311" y="725" type="curve" smooth="yes"/>
			<point x="243" y="725"/>
			<point x="202" y="671"/>
			<point x="186" y="586" type="curve"/>
			<point x="250" y="582" type="line"/>
			<point x="259" y="628"/>
			<point x="278" y="656"/>
			<point x="305" y="656" type="curve" smooth="yes"/>
			<point x="354" y="656"/>
			<point x="365" y="576"/>
		</contour>
		<contour>
			<point name="_aboveLC" x="339" y="510" type="move"/>
		</contour>
		<contour>
			<point name="aboveLC" x="340" y="613" type="move"/>
		</contour>
	</outline>
</glyph>
<glyph name="macroncmb" format="1">
	<unicode hex="0304"/>
	<advance width="600"/>
	<outline>
		<contour>
			<point x="227" y="599" type="line"/>
			<point x="490" y="599" type="line"/>
			<point x="501" y="661" type="line"/>
			<point x="239" y="661" type="line"/>
		</contour>
		<contour>
			<point name="_aboveLC" x="339" y="510" type="move"/>
		</contour>
		<contour>
			<point name="aboveLC" x="330" y="561" type="move"/>
		</contour>
	</outline>
</glyph>
<glyph name="brevecmb" format="1">
	<unicode hex="0306"/>
	<advance width="600"/>
	<outline>
		<contour>
			<point x="354" y="571" type="curve" smooth="yes"/>
			<point x="464" y="571"/>
			<point x="524" y="646"/>
			<point x="542" y="724" type="curve"/>
			<point x="484" y="734" type="line"/>
			<point x="466" y="684"/>
			<point x="428" y="636"/>
			<point x="367" y="636" type="curve" smooth="yes"/>
			<point x="305" y="636"/>
			<point x="281" y="684"/>
			<point x="284" y="734" type="curve"/>
			<point x="222" y="724" type="line"/>
			<point x="215" y="646"/>
			<point x="247" y="571"/>
		</contour>
		<contour>
			<point name="_aboveLC" x="339" y="510" type="move"/>
		</contour>
		<contour>
			<point name="aboveLC" x="300" y="510" type="move"/>
		</contour>
	</outline>
</glyph>
<glyph name="dotaccentcmb" format="2">
	<unicode hex="0307"/>
	<advance width="600"/>
	<outline>
		<contour>
			<point x="362" y="585" type="curve" smooth="yes"/>
			<point x="404" y="585"/>
			<point x="439" y="619"/>
			<point x="439" y="661" type="curve" smooth="yes"/>
			<point x="439" y="699"/>
			<point x="413" y="721"/>
			<point x="374" y="721" type="curve" smooth="yes"/>
			<point x="332" y="721"/>
			<point x="297" y="686"/>
			<point x="297" y="645" type="curve" smooth="yes"/>
			<point x="297" y="606"/>
			<point x="326" y="585"/>
		</contour>
	</outline>
	<anchor name="_aboveLC" x="339" y="510"/>
	<anchor name="aboveLC" x="380" y="716"/>
</glyph>
<glyph name="ringcmb" format="2">
	<unicode hex="030A"/>
	<advance width="600"/>
	<outline>
		<contour>
			<point x="357" y="559" type="curve" smooth="yes"/>
			<point x="430" y="559"/>
			<point x="482" y="609"/>
			<point x="482" y="671" type="curve" smooth="yes"/>
			<point x="482" y="724"/>
			<point x="439" y="754"/>
			<point x="382" y="754" type="curve" smooth="yes"/>
			<point x="309" y="754"/>
			<point x="257" y="704"/>
			<point x="257" y="642" type="curve" smooth="yes"/>
			<point x="257" y="589"/>
			<point x="300" y="559"/>
		</contour>
		<contour>
			<point x="363" y="599" type="curve" smooth="yes"/>
			<point x="334" y="599"/>
			<point x="318" y="618"/>
			<point x="318" y="645" type="curve" smooth="yes"/>
			<point x="318" y="683"/>
			<point x="344" y="714"/>
			<point x="376" y="714" type="curve" smooth="yes"/>
			<point x="405" y="714"/>
			<point x="421" y="694"/>
			<point x="421" y="668" type="curve" smooth="yes"/>
			<point x="421" y="630"/>
			<point x="395" y="599"/>
		</contour>
	</outline>
	<anchor name="_aboveLC" x="339" y="510"/>
	<anchor name="aboveLC" x="300" y="510"/>
</glyph>
<glyph name="hungarumlautcmb" format="2">
	<unicode hex="030B"/>
	<advance width="600"/>
	<outline>
		<contour>
			<point x="305" y="570" type="line"/>
			<point x="436" y="726" type="line"/>
			<point x="374" y="764" type="line"/>
			<point x="256" y="600" type="line"/>
		</contour>
		<contour>
			<point x="463" y="570" type="line"/>
			<point x="594" y="726" type="line"/>
			<point x="532" y="764" type="line"/>
			<point x="414" y="600" type="line"/>
		</contour>
	</outline>
	<anchor name="_aboveLC" x="339" y="510"/>
</glyph>
<glyph name="caroncmb" format="2">
	<unicode hex="030C"/>
	<advance width="600"/>
	<outline>
		<contour>
			<point x="308" y="576" type="line"/>
			<point x="408" y="576" type="line"/>
			<point x="544" y="711" type="line"/>
			<point x="509" y="751" type="line"/>
			<point x="366" y="640" type="line"/>
			<point x="362" y="640" type="line"/>
			<point x="264" y="751" type="line"/>
			<point x="220" y="714" type="line"/>
		</contour>
	</outline>
	<anchor name="_aboveLC" x="339" y="510"/>
</glyph>
<glyph name="dblgravecmb" format="2">
	<unicode hex="030F"/>
	<advance width="600"/>
	<outline>
		<contour>
			<point x="235" y="566" type="line"/>
			<point x="293" y="586" type="line"/>
			<point x="238" y="766" type="line"/>
			<point x="163" y="740" type="line"/>
		</contour>
		<contour>
			<point x="393" y="566" type="line"/>
			<point x="452" y="586" type="line"/>
			<point x="396" y="766" type="line"/>
			<point x="321" y="740" type="line"/>
		</contour>
	</outline>
	<anchor name="_aboveLC" x="339" y="510"/>
</glyph>
<glyph name="candrabinducmb" format="1">
	<unicode hex="0310"/>
	<advance width="600"/>
	<outline>
		<contour>
			<point x="353" y="571" type="curve" smooth="yes"/>
			<point x="469" y="571"/>
			<point x="532" y="646"/>
			<point x="551" y="724" type="curve"/>
			<point x="498" y="734" type="line"/>
			<point x="480" y="681"/>
			<point x="434" y="631"/>
			<point x="365" y="631" type="curve" smooth="yes"/>
			<point x="296" y="631"/>
			<point x="272" y="681"/>
			<point x="275" y="734" type="curve"/>
			<point x="219" y="724" type="line"/>
			<point x="210" y="646"/>
			<point x="242" y="571"/>
		</contour>
		<contour>
			<point x="382" y="701" type="curve" smooth="yes"/>
			<point x="418" y="701"/>
			<point x="451" y="734"/>
			<point x="451" y="772" type="curve" smooth="yes"/>
			<point x="451" y="805"/>
			<point x="429" y="822"/>
			<point x="399" y="822" type="curve" smooth="yes"/>
			<point x="363" y="822"/>
			<point x="329" y="789"/>
			<point x="329" y="751" type="curve" smooth="yes"/>
			<point x="329" y="718"/>
			<point x="352" y="701"/>
		</contour>
		<contour>
			<point name="_aboveLC" x="339" y="510" type="move"/>
		</contour>
	</outline>
</glyph>
<glyph name="breveinvertedcmb" format="2">
	<unicode hex="0311"/>
	<advance width="600"/>
	<outline>
		<contour>
			<point x="253" y="567" type="line"/>
			<point x="269" y="616"/>
			<point x="309" y="665"/>
			<point x="370" y="665" type="curve" smooth="yes"/>
			<point x="431" y="665"/>
			<point x="452" y="616"/>
			<point x="449" y="567" type="curve"/>
			<point x="509" y="577" type="line"/>
			<point x="519" y="654"/>
			<point x="489" y="730"/>
			<point x="383" y="730" type="curve" smooth="yes"/>
			<point x="276" y="730"/>
			<point x="217" y="654"/>
			<point x="197" y="577" type="curve"/>
		</contour>
	</outline>
	<anchor name="_aboveLC" x="339" y="510"/>
</glyph>
<glyph name="commaturnedabovecmb" format="1">
	<unicode hex="0312"/>
	<advance width="600"/>
	<outline>
		<contour>
			<point x="352" y="554" type="curve" smooth="yes"/>
			<point x="385" y="554"/>
			<point x="412" y="574"/>
			<point x="412" y="610" type="curve" smooth="yes"/>
			<point x="412" y="636"/>
			<point x="390" y="655"/>
			<point x="367" y="655" type="curve" smooth="yes"/>
			<point x="350" y="655"/>
			<point x="336" y="649"/>
			<point x="320" y="634" type="curve"/>
			<point x="347" y="596" type="line"/>
			<point x="351" y="645" type="line"/>
			<point x="359" y="678"/>
			<point x="381" y="699"/>
			<point x="430" y="716" type="curve"/>
			<point x="416" y="755" type="line"/>
			<point x="334" y="730"/>
			<point x="296" y="681"/>
			<point x="296" y="619" type="curve" smooth="yes"/>
			<point x="296" y="582"/>
			<point x="318" y="554"/>
		</contour>
		<contour>
			<point name="_aboveLC" x="339" y="510" type="move"/>
		</contour>
	</outline>
</glyph>
<glyph name="righttackbelowcmb" format="2">
	<unicode hex="0319"/>
	<advance width="600"/>
	<outline>
		<contour>
			<point x="102" y="-251" type="line"/>
			<point x="158" y="-251" type="line"/>
			<point x="171" y="-181" type="line"/>
			<point x="279" y="-181" type="line"/>
			<point x="290" y="-127" type="line"/>
			<point x="182" y="-127" type="line"/>
			<point x="196" y="-57" type="line"/>
			<point x="140" y="-57" type="line"/>
		</contour>
	</outline>
	<anchor name="_belowLC" x="234" y="-20"/>
</glyph>
<glyph name="leftangleabovecmb" format="1">
	<unicode hex="031A"/>
	<advance width="600"/>
	<outline>
		<contour>
			<point x="420" y="573" type="line"/>
			<point x="475" y="573" type="line"/>
			<point x="503" y="717" type="line"/>
			<point x="340" y="717" type="line"/>
			<point x="330" y="663" type="line"/>
			<point x="438" y="663" type="line"/>
		</contour>
		<contour>
			<point name="_aboverightLC" x="377" y="510" type="move"/>
		</contour>
	</outline>
</glyph>
<glyph name="horncmb" format="1">
	<unicode hex="031B"/>
	<advance width="600"/>
	<outline>
		<contour>
			<point x="327" y="434" type="line"/>
			<point x="454" y="447"/>
			<point x="505" y="496"/>
			<point x="505" y="582" type="curve" smooth="yes"/>
			<point x="505" y="607"/>
			<point x="501" y="624"/>
			<point x="493" y="646" type="curve"/>
			<point x="421" y="622" type="line"/>
			<point x="427" y="606"/>
			<point x="430" y="593"/>
			<point x="430" y="577" type="curve" smooth="yes"/>
			<point x="430" y="520"/>
			<point x="396" y="487"/>
			<point x="327" y="479" type="curve"/>
		</contour>
		<contour>
			<point name="_hornLC" x="240" y="489" type="move"/>
		</contour>
	</outline>
</glyph>
<glyph name="uptackbelowcmb" format="1">
	<unicode hex="031D"/>
	<advance width="600"/>
	<outline>
		<contour>
			<point x="99" y="-215" type="line"/>
			<point x="292" y="-215" type="line"/>
			<point x="302" y="-162" type="line"/>
			<point x="234" y="-162" type="line"/>
			<point x="255" y="-57" type="line"/>
			<point x="199" y="-57" type="line"/>
			<point x="178" y="-162" type="line"/>
			<point x="109" y="-162" type="line"/>
		</contour>
		<contour>
			<point name="_belowLC" x="234" y="-20" type="move"/>
		</contour>
	</outline>
</glyph>
<glyph name="downtackbelowcmb" format="2">
	<unicode hex="031E"/>
	<advance width="600"/>
	<outline>
		<contour>
			<point x="161" y="-251" type="line"/>
			<point x="216" y="-251" type="line"/>
			<point x="237" y="-146" type="line"/>
			<point x="306" y="-146" type="line"/>
			<point x="316" y="-92" type="line"/>
			<point x="123" y="-92" type="line"/>
			<point x="113" y="-146" type="line"/>
			<point x="182" y="-146" type="line"/>
		</contour>
	</outline>
	<anchor name="_belowLC" x="234" y="-20"/>
</glyph>
<glyph name="plusbelowcmb" format="2">
	<unicode hex="031F"/>
	<advance width="600"/>
	<outline>
		<contour>
			<point x="161" y="-251" type="line"/>
			<point x="216" y="-251" type="line"/>
			<point x="230" y="-181" type="line"/>
			<point x="299" y="-181" type="line"/>
			<point x="309" y="-127" type="line"/>
			<point x="241" y="-127" type="line"/>
			<point x="255" y="-57" type="line"/>
			<point x="199" y="-57" type="line"/>
			<point x="185" y="-127" type="line"/>
			<point x="116" y="-127" type="line"/>
			<point x="106" y="-181" type="line"/>
			<point x="175" y="-181" type="line"/>
		</contour>
	</outline>
	<anchor name="_belowLC" x="234" y="-20"/>
</glyph>
<glyph name="commabelowcmb" format="1">
	<unicode hex="0326"/>
	<advance width="600"/>
	<outline>
		<contour>
			<point x="104" y="-230" type="line"/>
			<point x="215" y="-227"/>
			<point x="295" y="-193"/>
			<point x="295" y="-124" type="curve" smooth="yes"/>
			<point x="295" y="-87"/>
			<point x="275" y="-63"/>
			<point x="184" y="-56" type="curve"/>
			<point x="158" y="-98" type="line"/>
			<point x="202" y="-100"/>
			<point x="219" y="-114"/>
			<point x="219" y="-135" type="curve" smooth="yes"/>
			<point x="219" y="-163"/>
			<point x="184" y="-182"/>
			<point x="104" y="-185" type="curve"/>
		</contour>
		<contour>
			<point name="_belowLC" x="234" y="-20" type="move"/>
		</contour>
	</outline>
</glyph>
<glyph name="verticallinebelowcmb" format="1">
	<unicode hex="0329"/>
	<advance width="600"/>
	<outline>
		<contour>
			<point x="147" y="-267" type="line"/>
			<point x="226" y="-267" type="line"/>
			<point x="256" y="-69" type="line"/>
			<point x="193" y="-69" type="line"/>
		</contour>
		<contour>
			<point name="_belowLC" x="234" y="-20" type="move"/>
		</contour>
	</outline>
</glyph>
<glyph name="bridgebelowcmb" format="2">
	<unicode hex="032A"/>
	<advance width="600"/>
	<outline>
		<contour>
			<point x="75" y="-224" type="line"/>
			<point x="126" y="-224" type="line"/>
			<point x="144" y="-134" type="line"/>
			<point x="281" y="-134" type="line"/>
			<point x="264" y="-224" type="line"/>
			<point x="315" y="-224" type="line"/>
			<point x="343" y="-81" type="line"/>
			<point x="103" y="-81" type="line"/>
		</contour>
	</outline>
	<anchor name="_belowLC" x="234" y="-20"/>
</glyph>
<glyph name="brevebelowcmb" format="1">
	<unicode hex="032E"/>
	<advance width="600"/>
	<outline>
		<component base="brevecmb" xOffset="-159" yOffset="-798"/>
		<contour>
			<point name="_belowLC" x="234" y="-20" type="move"/>
		</contour>
	</outline>
</glyph>
<glyph name="tildeoverlaycmb" format="1">
	<unicode hex="0334"/>
	<advance width="600"/>
	<outline>
		<contour>
			<point x="368" y="169" type="curve" smooth="yes"/>
			<point x="434" y="169"/>
			<point x="473" y="225"/>
			<point x="489" y="309" type="curve"/>
			<point x="425" y="313" type="line"/>
			<point x="416" y="268"/>
			<point x="397" y="239"/>
			<point x="370" y="239" type="curve" smooth="yes"/>
			<point x="311" y="239"/>
			<point x="288" y="319"/>
			<point x="207" y="319" type="curve" smooth="yes"/>
			<point x="142" y="319"/>
			<point x="103" y="263"/>
			<point x="87" y="179" type="curve"/>
			<point x="151" y="175" type="line"/>
			<point x="160" y="221"/>
			<point x="179" y="249"/>
			<point x="206" y="249" type="curve" smooth="yes"/>
			<point x="265" y="249"/>
			<point x="288" y="169"/>
		</contour>
		<contour>
			<point name="_center" x="287" y="245" type="move"/>
		</contour>
	</outline>
</glyph>
<glyph name="ringhalfrightbelowcmb" format="1">
	<unicode hex="0339"/>
	<advance width="600"/>
	<outline>
		<contour>
			<point x="134" y="-260" type="line"/>
			<point x="224" y="-260"/>
			<point x="282" y="-216"/>
			<point x="282" y="-150" type="curve" smooth="yes"/>
			<point x="282" y="-94"/>
			<point x="235" y="-62"/>
			<point x="172" y="-65" type="curve"/>
			<point x="164" y="-106" type="line"/>
			<point x="199" y="-106"/>
			<point x="221" y="-123"/>
			<point x="221" y="-155" type="curve" smooth="yes"/>
			<point x="221" y="-191"/>
			<point x="190" y="-218"/>
			<point x="142" y="-220" type="curve"/>
		</contour>
		<contour>
			<point name="_belowLC" x="234" y="-20" type="move"/>
		</contour>
	</outline>
</glyph>
<glyph name="bridgeinvertedbelowcmb" format="1">
	<unicode hex="033A"/>
	<advance width="600"/>
	<outline>
		<contour>
			<point x="75" y="-222" type="line"/>
			<point x="316" y="-222" type="line"/>
			<point x="344" y="-79" type="line"/>
			<point x="292" y="-79" type="line"/>
			<point x="274" y="-169" type="line"/>
			<point x="137" y="-169" type="line"/>
			<point x="155" y="-79" type="line"/>
			<point x="104" y="-79" type="line"/>
		</contour>
		<contour>
			<point name="_belowLC" x="234" y="-20" type="move"/>
		</contour>
	</outline>
</glyph>
<glyph name="squarebelowcmb" format="1">
	<unicode hex="033B"/>
	<advance width="600"/>
	<outline>
		<contour>
			<point x="71" y="-242" type="line"/>
			<point x="312" y="-242" type="line"/>
			<point x="344" y="-74" type="line"/>
			<point x="104" y="-74" type="line"/>
		</contour>
		<contour>
			<point x="131" y="-198" type="line"/>
			<point x="147" y="-117" type="line"/>
			<point x="285" y="-117" type="line"/>
			<point x="269" y="-198" type="line"/>
		</contour>
		<contour>
			<point name="_belowLC" x="234" y="-20" type="move"/>
		</contour>
	</outline>
</glyph>
<glyph name="xabovecmb" format="1">
	<unicode hex="033D"/>
	<advance width="600"/>
	<outline>
		<contour>
			<point x="299" y="551" type="line"/>
			<point x="359" y="602" type="line"/>
			<point x="399" y="551" type="line"/>
			<point x="442" y="589" type="line"/>
			<point x="402" y="640" type="line"/>
			<point x="462" y="691" type="line"/>
			<point x="434" y="728" type="line"/>
			<point x="373" y="677" type="line"/>
			<point x="334" y="728" type="line"/>
			<point x="290" y="691" type="line"/>
			<point x="330" y="640" type="line"/>
			<point x="269" y="589" type="line"/>
		</contour>
		<contour>
			<point name="_aboveLC" x="339" y="510" type="move"/>
		</contour>
	</outline>
</glyph>
<glyph name="tonoscmb" format="2">
	<unicode hex="0341"/>
	<advance width="600"/>
	<outline>
		<contour>
			<point x="330" y="579" type="line"/>
			<point x="517" y="717" type="line"/>
			<point x="460" y="789" type="line"/>
			<point x="288" y="632" type="line"/>
		</contour>
	</outline>
	<anchor name="_aboveLC" x="339" y="510"/>
</glyph>
<glyph name="macrondoublebelowcmb" format="1">
	<unicode hex="035F"/>
	<advance width="600"/>
	<outline>
		<contour>
			<point x="-287" y="-171" type="line"/>
			<point x="695" y="-171" type="line"/>
			<point x="707" y="-109" type="line"/>
			<point x="-275" y="-109" type="line"/>
		</contour>
	</outline>
</glyph>
<glyph name="breveinverteddoublecmb" format="2">
	<unicode hex="0361"/>
	<advance width="600"/>
	<outline>
		<contour>
			<point x="-62" y="596" type="line"/>
			<point x="79" y="673"/>
			<point x="242" y="704"/>
			<point x="379" y="704" type="curve" smooth="yes"/>
			<point x="516" y="704"/>
			<point x="667" y="673"/>
			<point x="777" y="596" type="curve"/>
			<point x="813" y="645" type="line"/>
			<point x="697" y="728"/>
			<point x="555" y="771"/>
			<point x="392" y="771" type="curve" smooth="yes"/>
			<point x="229" y="771"/>
			<point x="70" y="728"/>
			<point x="-79" y="645" type="curve"/>
		</contour>
	</outline>
</glyph>
<glyph name="m.sups" format="2">
	<unicode hex="1D50"/>
	<advance width="600"/>
	<outline>
		<contour>
			<point x="90" y="390" type="line"/>
			<point x="157" y="390" type="line"/>
			<point x="201" y="610" type="line"/>
			<point x="233" y="644"/>
			<point x="265" y="663"/>
			<point x="285" y="663" type="curve" smooth="yes"/>
			<point x="312" y="663"/>
			<point x="325" y="648"/>
			<point x="325" y="619" type="curve" smooth="yes"/>
			<point x="325" y="608"/>
			<point x="322" y="599"/>
			<point x="319" y="585" type="curve" smooth="yes"/>
			<point x="281" y="390" type="line"/>
			<point x="347" y="390" type="line"/>
			<point x="391" y="610" type="line"/>
			<point x="422" y="645"/>
			<point x="454" y="663"/>
			<point x="475" y="663" type="curve" smooth="yes"/>
			<point x="501" y="663"/>
			<point x="512" y="648"/>
			<point x="512" y="620" type="curve" smooth="yes"/>
			<point x="512" y="610"/>
			<point x="511" y="599"/>
			<point x="508" y="585" type="curve" smooth="yes"/>
			<point x="469" y="390" type="line"/>
			<point x="536" y="390" type="line"/>
			<point x="576" y="593" type="line" smooth="yes"/>
			<point x="580" y="610"/>
			<point x="582" y="625"/>
			<point x="582" y="638" type="curve" smooth="yes"/>
			<point x="582" y="691"/>
			<point x="561" y="721"/>
			<point x="505" y="721" type="curve" smooth="yes"/>
			<point x="467" y="721"/>
			<point x="429" y="695"/>
			<point x="391" y="662" type="curve"/>
			<point x="384" y="695"/>
			<point x="367" y="721"/>
			<point x="317" y="721" type="curve" smooth="yes"/>
			<point x="278" y="721"/>
			<point x="242" y="697"/>
			<point x="209" y="667" type="curve"/>
			<point x="205" y="667" type="line"/>
			<point x="209" y="713" type="line"/>
			<point x="154" y="713" type="line"/>
		</contour>
	</outline>
</glyph>
<glyph name="o.sups" format="2">
	<unicode hex="1D52"/>
	<advance width="600"/>
	<outline>
		<contour>
			<point x="312" y="382" type="curve" smooth="yes"/>
			<point x="415" y="382"/>
			<point x="507" y="454"/>
			<point x="507" y="584" type="curve" smooth="yes"/>
			<point x="507" y="671"/>
			<point x="452" y="720"/>
			<point x="376" y="720" type="curve" smooth="yes"/>
			<point x="275" y="720"/>
			<point x="180" y="647"/>
			<point x="180" y="517" type="curve" smooth="yes"/>
			<point x="180" y="431"/>
			<point x="237" y="382"/>
		</contour>
		<contour>
			<point x="321" y="439" type="curve" smooth="yes"/>
			<point x="277" y="439"/>
			<point x="252" y="470"/>
			<point x="252" y="521" type="curve" smooth="yes"/>
			<point x="252" y="595"/>
			<point x="301" y="664"/>
			<point x="368" y="664" type="curve" smooth="yes"/>
			<point x="411" y="664"/>
			<point x="435" y="632"/>
			<point x="435" y="581" type="curve" smooth="yes"/>
			<point x="435" y="506"/>
			<point x="390" y="439"/>
		</contour>
	</outline>
</glyph>
<glyph name="p.sups" format="2">
	<unicode hex="1D56"/>
	<advance width="600"/>
	<outline>
		<contour>
			<point x="156" y="258" type="line"/>
			<point x="226" y="258" type="line"/>
			<point x="246" y="364" type="line"/>
			<point x="254" y="418" type="line"/>
			<point x="279" y="395"/>
			<point x="306" y="382"/>
			<point x="341" y="382" type="curve" smooth="yes"/>
			<point x="436" y="382"/>
			<point x="525" y="460"/>
			<point x="525" y="595" type="curve" smooth="yes"/>
			<point x="525" y="672"/>
			<point x="489" y="720"/>
			<point x="418" y="720" type="curve" smooth="yes"/>
			<point x="373" y="720"/>
			<point x="337" y="700"/>
			<point x="304" y="677" type="curve"/>
			<point x="302" y="677" type="line"/>
			<point x="303" y="712" type="line"/>
			<point x="246" y="712" type="line"/>
		</contour>
		<contour>
			<point x="336" y="438" type="curve" smooth="yes"/>
			<point x="311" y="438"/>
			<point x="289" y="446"/>
			<point x="267" y="468" type="curve"/>
			<point x="298" y="624" type="line"/>
			<point x="333" y="650"/>
			<point x="359" y="663"/>
			<point x="390" y="663" type="curve" smooth="yes"/>
			<point x="433" y="663"/>
			<point x="452" y="634"/>
			<point x="452" y="588" type="curve" smooth="yes"/>
			<point x="452" y="495"/>
			<point x="399" y="438"/>
		</contour>
	</outline>
</glyph>
<glyph name="Germandbls" format="2">
	<unicode hex="1E9E"/>
	<advance width="600"/>
	<outline>
		<contour>
			<point x="338" y="-12" type="curve" smooth="yes"/>
			<point x="467" y="-12"/>
			<point x="545" y="70"/>
			<point x="545" y="177" type="curve" smooth="yes"/>
			<point x="545" y="272"/>
			<point x="477" y="328"/>
			<point x="383" y="356" type="curve"/>
			<point x="385" y="332" type="line"/>
			<point x="558" y="515" type="line"/>
			<point x="538" y="611"/>
			<point x="469" y="667"/>
			<point x="372" y="667" type="curve" smooth="yes"/>
			<point x="222" y="667"/>
			<point x="131" y="579"/>
			<point x="103" y="439" type="curve" smooth="yes"/>
			<point x="15" y="0" type="line"/>
			<point x="108" y="0" type="line"/>
			<point x="192" y="421" type="line" smooth="yes"/>
			<point x="216" y="541"/>
			<point x="284" y="593"/>
			<point x="368" y="593" type="curve" smooth="yes"/>
			<point x="424" y="593"/>
			<point x="463" y="558"/>
			<point x="477" y="510" type="curve"/>
			<point x="483" y="543" type="line"/>
			<point x="316" y="363" type="line"/>
			<point x="310" y="305" type="line"/>
			<point x="401" y="282"/>
			<point x="453" y="245"/>
			<point x="453" y="176" type="curve" smooth="yes"/>
			<point x="453" y="113"/>
			<point x="404" y="65"/>
			<point x="333" y="65" type="curve" smooth="yes"/>
			<point x="287" y="65"/>
			<point x="256" y="84"/>
			<point x="232" y="117" type="curve"/>
			<point x="185" y="59" type="line"/>
			<point x="212" y="22"/>
			<point x="267" y="-12"/>
		</contour>
	</outline>
</glyph>
<glyph name="endash" format="1">
	<unicode hex="2013"/>
	<advance width="600"/>
	<outline>
		<contour>
			<point x="61" y="215" type="line"/>
			<point x="501" y="215" type="line"/>
			<point x="517" y="290" type="line"/>
			<point x="77" y="290" type="line"/>
		</contour>
	</outline>
</glyph>
<glyph name="quoteleft" format="2">
	<unicode hex="2018"/>
	<advance width="600"/>
	<outline>
		<contour>
			<point x="327" y="357" type="curve" smooth="yes"/>
			<point x="377" y="357"/>
			<point x="418" y="399"/>
			<point x="418" y="452" type="curve" smooth="yes"/>
			<point x="418" y="494"/>
			<point x="393" y="518"/>
			<point x="361" y="518" type="curve" smooth="yes"/>
			<point x="336" y="518"/>
			<point x="309" y="507"/>
			<point x="291" y="491" type="curve"/>
			<point x="328" y="410" type="line"/>
			<point x="332" y="502" type="line"/>
			<point x="343" y="567"/>
			<point x="398" y="621"/>
			<point x="483" y="645" type="curve"/>
			<point x="470" y="696" type="line"/>
			<point x="334" y="661"/>
			<point x="246" y="568"/>
			<point x="246" y="453" type="curve" smooth="yes"/>
			<point x="246" y="389"/>
			<point x="280" y="357"/>
		</contour>
	</outline>
</glyph>
<glyph name="dagger" format="2">
	<unicode hex="2020"/>
	<advance width="600"/>
	<outline>
		<contour>
			<point x="182" y="-80" type="line"/>
			<point x="260" y="-80" type="line"/>
			<point x="367" y="484" type="line"/>
			<point x="507" y="478" type="line"/>
			<point x="521" y="555" type="line"/>
			<point x="380" y="549" type="line"/>
			<point x="418" y="712" type="line"/>
			<point x="340" y="712" type="line"/>
			<point x="313" y="549" type="line"/>
			<point x="175" y="555" type="line"/>
			<point x="159" y="478" type="line"/>
			<point x="301" y="484" type="line"/>
		</contour>
	</outline>
</glyph>
<glyph name="daggerdbl" format="2">
	<unicode hex="2021"/>
	<advance width="600"/>
	<outline>
		<contour>
			<point x="186" y="-80" type="line"/>
			<point x="264" y="-80" type="line"/>
			<point x="290" y="82" type="line"/>
			<point x="429" y="76" type="line"/>
			<point x="445" y="153" type="line"/>
			<point x="303" y="147" type="line"/>
			<point x="342" y="316" type="line"/>
			<point x="370" y="485" type="line"/>
			<point x="510" y="478" type="line"/>
			<point x="524" y="555" type="line"/>
			<point x="383" y="549" type="line"/>
			<point x="420" y="712" type="line"/>
			<point x="343" y="712" type="line"/>
			<point x="316" y="549" type="line"/>
			<point x="177" y="555" type="line"/>
			<point x="162" y="478" type="line"/>
			<point x="304" y="485" type="line"/>
			<point x="264" y="316" type="line"/>
			<point x="237" y="147" type="line"/>
			<point x="97" y="153" type="line"/>
			<point x="82" y="76" type="line"/>
			<point x="223" y="82" type="line"/>
		</contour>
	</outline>
</glyph>
<glyph name="bullet" format="2">
	<unicode hex="2022"/>
	<advance width="600"/>
	<outline>
		<contour>
			<point x="266" y="113" type="curve" smooth="yes"/>
			<point x="361" y="113"/>
			<point x="444" y="182"/>
			<point x="444" y="287" type="curve" smooth="yes"/>
			<point x="444" y="361"/>
			<point x="390" y="411"/>
			<point x="318" y="411" type="curve" smooth="yes"/>
			<point x="222" y="411"/>
			<point x="138" y="342"/>
			<point x="138" y="237" type="curve" smooth="yes"/>
			<point x="138" y="163"/>
			<point x="194" y="113"/>
		</contour>
	</outline>
</glyph>
<glyph name="perthousand" format="2">
	<unicode hex="2030"/>
	<advance width="600"/>
	<outline>
		<contour>
			<point x="177" y="389" type="curve" smooth="yes"/>
			<point x="264" y="389"/>
			<point x="326" y="455"/>
			<point x="326" y="550" type="curve" smooth="yes"/>
			<point x="326" y="611"/>
			<point x="290" y="650"/>
			<point x="231" y="650" type="curve" smooth="yes"/>
			<point x="148" y="650"/>
			<point x="82" y="586"/>
			<point x="82" y="491" type="curve" smooth="yes"/>
			<point x="82" y="430"/>
			<point x="119" y="389"/>
		</contour>
		<contour>
			<point x="186" y="435" type="curve" smooth="yes"/>
			<point x="156" y="435"/>
			<point x="140" y="455"/>
			<point x="140" y="495" type="curve" smooth="yes"/>
			<point x="140" y="562"/>
			<point x="179" y="605"/>
			<point x="224" y="605" type="curve" smooth="yes"/>
			<point x="252" y="605"/>
			<point x="268" y="585"/>
			<point x="268" y="546" type="curve" smooth="yes"/>
			<point x="268" y="475"/>
			<point x="229" y="435"/>
		</contour>
		<contour>
			<point x="107" y="274" type="line"/>
			<point x="601" y="433" type="line"/>
			<point x="583" y="496" type="line"/>
			<point x="95" y="306" type="line"/>
		</contour>
		<contour>
			<point x="97" y="-12" type="curve" smooth="yes"/>
			<point x="183" y="-12"/>
			<point x="245" y="54"/>
			<point x="245" y="148" type="curve" smooth="yes"/>
			<point x="245" y="210"/>
			<point x="209" y="248"/>
			<point x="151" y="248" type="curve" smooth="yes"/>
			<point x="68" y="248"/>
			<point x="1" y="184"/>
			<point x="1" y="89" type="curve" smooth="yes"/>
			<point x="1" y="29"/>
			<point x="38" y="-12"/>
		</contour>
		<contour>
			<point x="105" y="33" type="curve" smooth="yes"/>
			<point x="76" y="33"/>
			<point x="60" y="54"/>
			<point x="60" y="93" type="curve" smooth="yes"/>
			<point x="60" y="160"/>
			<point x="99" y="203"/>
			<point x="143" y="203" type="curve" smooth="yes"/>
			<point x="172" y="203"/>
			<point x="187" y="183"/>
			<point x="187" y="144" type="curve" smooth="yes"/>
			<point x="187" y="73"/>
			<point x="148" y="33"/>
		</contour>
		<contour>
			<point x="370" y="-12" type="curve" smooth="yes"/>
			<point x="457" y="-12"/>
			<point x="518" y="54"/>
			<point x="518" y="148" type="curve" smooth="yes"/>
			<point x="518" y="210"/>
			<point x="483" y="248"/>
			<point x="424" y="248" type="curve" smooth="yes"/>
			<point x="341" y="248"/>
			<point x="275" y="184"/>
			<point x="275" y="89" type="curve" smooth="yes"/>
			<point x="275" y="29"/>
			<point x="311" y="-12"/>
		</contour>
		<contour>
			<point x="378" y="33" type="curve" smooth="yes"/>
			<point x="349" y="33"/>
			<point x="333" y="54"/>
			<point x="333" y="93" type="curve" smooth="yes"/>
			<point x="333" y="160"/>
			<point x="372" y="203"/>
			<point x="416" y="203" type="curve" smooth="yes"/>
			<point x="445" y="203"/>
			<point x="460" y="183"/>
			<point x="460" y="144" type="curve" smooth="yes"/>
			<point x="460" y="73"/>
			<point x="422" y="33"/>
		</contour>
	</outline>
</glyph>
<glyph name="prime" format="2">
	<unicode hex="2032"/>
	<advance width="600"/>
	<outline>
		<contour>
			<point x="279" y="422" type="line"/>
			<point x="339" y="422" type="line"/>
			<point x="408" y="583" type="line"/>
			<point x="446" y="690" type="line"/>
			<point x="356" y="690" type="line"/>
		</contour>
	</outline>
</glyph>
<glyph name="primereversed" format="2">
	<unicode hex="2035"/>
	<advance width="600"/>
	<outline>
		<contour>
			<point x="381" y="422" type="line"/>
			<point x="441" y="422" type="line"/>
			<point x="364" y="690" type="line"/>
			<point x="274" y="690" type="line"/>
			<point x="313" y="583" type="line"/>
		</contour>
	</outline>
</glyph>
<glyph name="overline" format="2">
	<unicode hex="203E"/>
	<advance width="600"/>
	<outline>
		<contour>
			<point x="122" y="580" type="line"/>
			<point x="588" y="580" type="line"/>
			<point x="599" y="636" type="line"/>
			<point x="133" y="636" type="line"/>
		</contour>
	</outline>
</glyph>
<glyph name="fraction" format="1">
	<unicode hex="2044"/>
	<advance width="600"/>
	<outline>
		<contour>
			<point x="7" y="27" type="line"/>
			<point x="215" y="230" type="line"/>
			<point x="187" y="263" type="line"/>
			<point x="-34" y="76" type="line"/>
		</contour>
		<contour>
			<point x="390" y="386" type="line"/>
			<point x="610" y="571" type="line"/>
			<point x="568" y="620" type="line"/>
			<point x="362" y="418" type="line"/>
		</contour>
	</outline>
</glyph>
<glyph name="questionexclam" format="1">
	<unicode hex="2048"/>
	<advance width="600"/>
	<outline>
		<contour>
			<point x="82" y="238" type="curve"/>
			<point x="160" y="238" type="line"/>
			<point x="164" y="377"/>
			<point x="341" y="412"/>
			<point x="341" y="563" type="curve" smooth="yes"/>
			<point x="341" y="638"/>
			<point x="281" y="682"/>
			<point x="207" y="682" type="curve" smooth="yes"/>
			<point x="157" y="682"/>
			<point x="109" y="661"/>
			<point x="71" y="623" type="curve"/>
			<point x="109" y="565" type="line"/>
			<point x="133" y="592"/>
			<point x="158" y="606"/>
			<point x="189" y="606" type="curve" smooth="yes"/>
			<point x="226" y="606"/>
			<point x="249" y="579"/>
			<point x="249" y="545" type="curve" smooth="yes"/>
			<point x="249" y="429"/>
			<point x="87" y="394"/>
		</contour>
		<contour>
			<point x="85" y="-12" type="curve" smooth="yes"/>
			<point x="135" y="-12"/>
			<point x="174" y="32"/>
			<point x="174" y="81" type="curve" smooth="yes"/>
			<point x="174" y="121"/>
			<point x="148" y="149"/>
			<point x="111" y="149" type="curve" smooth="yes"/>
			<point x="60" y="149"/>
			<point x="21" y="105"/>
			<point x="21" y="55" type="curve" smooth="yes"/>
			<point x="21" y="16"/>
			<point x="47" y="-12"/>
		</contour>
		<component base="exclam" xOffset="140"/>
	</outline>
</glyph>
<glyph name="i.sups" format="2">
	<unicode hex="2071"/>
	<advance width="600"/>
	<outline>
		<contour>
			<point x="375" y="382" type="curve" smooth="yes"/>
			<point x="413" y="382"/>
			<point x="440" y="389"/>
			<point x="468" y="402" type="curve"/>
			<point x="453" y="453" type="line"/>
			<point x="431" y="443"/>
			<point x="414" y="437"/>
			<point x="395" y="437" type="curve" smooth="yes"/>
			<point x="368" y="437"/>
			<point x="349" y="449"/>
			<point x="349" y="480" type="curve" smooth="yes"/>
			<point x="349" y="486"/>
			<point x="350" y="493"/>
			<point x="352" y="500" type="curve" smooth="yes"/>
			<point x="399" y="713" type="line"/>
			<point x="217" y="713" type="line"/>
			<point x="206" y="659" type="line"/>
			<point x="320" y="659" type="line"/>
			<point x="285" y="504" type="line" smooth="yes"/>
			<point x="282" y="492"/>
			<point x="280" y="479"/>
			<point x="280" y="468" type="curve" smooth="yes"/>
			<point x="280" y="412"/>
			<point x="320" y="382"/>
		</contour>
		<contour>
			<point x="372" y="771" type="curve" smooth="yes"/>
			<point x="404" y="771"/>
			<point x="430" y="796"/>
			<point x="430" y="826" type="curve" smooth="yes"/>
			<point x="430" y="854"/>
			<point x="410" y="868"/>
			<point x="383" y="868" type="curve" smooth="yes"/>
			<point x="351" y="868"/>
			<point x="325" y="843"/>
			<point x="325" y="813" type="curve" smooth="yes"/>
			<point x="325" y="786"/>
			<point x="347" y="771"/>
		</contour>
	</outline>
</glyph>
<glyph name="one.subs" format="2">
	<unicode hex="2081"/>
	<advance width="600"/>
	<outline>
		<contour>
			<point x="216" y="-180" type="line"/>
			<point x="287" y="-180" type="line"/>
			<point x="364" y="210" type="line"/>
			<point x="309" y="210" type="line"/>
			<point x="273" y="187"/>
			<point x="239" y="176"/>
			<point x="181" y="170" type="curve"/>
			<point x="172" y="125" type="line"/>
			<point x="277" y="125" type="line"/>
		</contour>
		<contour>
			<point x="96" y="-180" type="line"/>
			<point x="400" y="-180" type="line"/>
			<point x="412" y="-120" type="line"/>
			<point x="108" y="-120" type="line"/>
		</contour>
	</outline>
</glyph>
<glyph name="four.subs" format="2">
	<unicode hex="2084"/>
	<advance width="600"/>
	<outline>
		<contour>
			<point x="266" y="-180" type="line"/>
			<point x="328" y="-180" type="line"/>
			<point x="380" y="73" type="line"/>
			<point x="318" y="73" type="line"/>
		</contour>
		<contour>
			<point x="100" y="-78" type="line"/>
			<point x="406" y="-78" type="line"/>
			<point x="416" y="-29" type="line"/>
			<point x="184" y="-29" type="line"/>
			<point x="348" y="194" type="line"/>
			<point x="301" y="222" type="line"/>
			<point x="107" y="-40" type="line"/>
		</contour>
	</outline>
</glyph>
<glyph name="franc" format="1">
	<unicode hex="20A3"/>
	<advance width="600"/>
	<outline>
		<contour>
			<point x="78" y="0" type="line"/>
			<point x="171" y="0" type="line"/>
			<point x="230" y="294" type="line"/>
			<point x="477" y="294" type="line"/>
			<point x="493" y="372" type="line"/>
			<point x="245" y="372" type="line"/>
			<point x="281" y="559" type="line"/>
			<point x="577" y="559" type="line"/>
			<point x="593" y="637" type="line"/>
			<point x="205" y="637" type="line"/>
		</contour>
		<contour>
			<point x="23" y="121" type="line"/>
			<point x="351" y="121" type="line"/>
			<point x="364" y="181" type="line"/>
			<point x="117" y="181" type="line"/>
			<point x="33" y="176" type="line"/>
		</contour>
	</outline>
</glyph>
<glyph name="lira" format="1">
	<unicode hex="20A4"/>
	<advance width="600"/>
	<outline>
		<contour>
			<point x="25" y="0" type="line"/>
			<point x="462" y="0" type="line"/>
			<point x="477" y="78" type="line"/>
			<point x="176" y="78" type="line"/>
			<point x="177" y="82" type="line"/>
			<point x="246" y="132"/>
			<point x="279" y="190"/>
			<point x="279" y="279" type="curve" smooth="yes"/>
			<point x="278" y="325"/>
			<point x="268" y="383"/>
			<point x="268" y="426" type="curve" smooth="yes"/>
			<point x="268" y="531"/>
			<point x="322" y="575"/>
			<point x="395" y="575" type="curve" smooth="yes"/>
			<point x="442" y="575"/>
			<point x="478" y="550"/>
			<point x="503" y="512" type="curve"/>
			<point x="564" y="561" type="line"/>
			<point x="529" y="611"/>
			<point x="471" y="649"/>
			<point x="395" y="649" type="curve" smooth="yes"/>
			<point x="272" y="649"/>
			<point x="183" y="573"/>
			<point x="183" y="435" type="curve" smooth="yes"/>
			<point x="183" y="386"/>
			<point x="195" y="318"/>
			<point x="195" y="267" type="curve" smooth="yes"/>
			<point x="195" y="178"/>
			<point x="143" y="102"/>
			<point x="37" y="56" type="curve"/>
		</contour>
		<contour>
			<point x="92" y="344" type="line"/>
			<point x="459" y="344" type="line"/>
			<point x="470" y="394" type="line"/>
			<point x="189" y="394" type="line"/>
			<point x="101" y="389" type="line"/>
		</contour>
		<contour>
			<point x="69" y="234" type="line"/>
			<point x="436" y="234" type="line"/>
			<point x="447" y="284" type="line"/>
			<point x="167" y="284" type="line"/>
			<point x="78" y="279" type="line"/>
		</contour>
	</outline>
</glyph>
<glyph name="won" format="2">
	<unicode hex="20A9"/>
	<advance width="600"/>
	<outline>
		<contour>
			<point x="87" y="0" type="line"/>
			<point x="185" y="0" type="line"/>
			<point x="289" y="342" type="line"/>
			<point x="346" y="525" type="line"/>
			<point x="349" y="525" type="line"/>
			<point x="334" y="342" type="line"/>
			<point x="304" y="0" type="line"/>
			<point x="406" y="0" type="line"/>
			<point x="608" y="637" type="line"/>
			<point x="526" y="637" type="line"/>
			<point x="436" y="305" type="line"/>
			<point x="368" y="72" type="line"/>
			<point x="364" y="72" type="line"/>
			<point x="384" y="305" type="line"/>
			<point x="405" y="597" type="line"/>
			<point x="324" y="597" type="line"/>
			<point x="231" y="305" type="line"/>
			<point x="159" y="72" type="line"/>
			<point x="155" y="72" type="line"/>
			<point x="182" y="305" type="line"/>
			<point x="221" y="637" type="line"/>
			<point x="132" y="637" type="line"/>
		</contour>
		<contour>
			<point x="40" y="302" type="line"/>
			<point x="564" y="302" type="line"/>
			<point x="574" y="346" type="line"/>
			<point x="124" y="346" type="line"/>
			<point x="49" y="341" type="line"/>
		</contour>
	</outline>
</glyph>
<glyph name="guarani" format="1">
	<unicode hex="20B2"/>
	<advance width="600"/>
	<outline>
		<contour>
			<point x="272" y="-12" type="curve" smooth="yes"/>
			<point x="344" y="-12"/>
			<point x="413" y="7"/>
			<point x="474" y="51" type="curve"/>
			<point x="528" y="335" type="line"/>
			<point x="335" y="335" type="line"/>
			<point x="320" y="262" type="line"/>
			<point x="432" y="262" type="line"/>
			<point x="401" y="101" type="line"/>
			<point x="377" y="82"/>
			<point x="332" y="67"/>
			<point x="284" y="68" type="curve" smooth="yes"/>
			<point x="206" y="69"/>
			<point x="162" y="134"/>
			<point x="162" y="242" type="curve" smooth="yes"/>
			<point x="162" y="424"/>
			<point x="260" y="575"/>
			<point x="395" y="575" type="curve" smooth="yes"/>
			<point x="449" y="575"/>
			<point x="480" y="549"/>
			<point x="507" y="508" type="curve"/>
			<point x="567" y="556" type="line"/>
			<point x="532" y="609"/>
			<point x="482" y="649"/>
			<point x="407" y="649" type="curve" smooth="yes"/>
			<point x="207" y="649"/>
			<point x="68" y="480"/>
			<point x="68" y="240" type="curve" smooth="yes"/>
			<point x="68" y="85"/>
			<point x="140" y="-12"/>
		</contour>
		<contour>
			<point x="368" y="617" type="line"/>
			<point x="433" y="617" type="line"/>
			<point x="460" y="748" type="line"/>
			<point x="395" y="748" type="line"/>
		</contour>
		<contour>
			<point x="220" y="-112" type="line"/>
			<point x="285" y="-112" type="line"/>
			<point x="312" y="19" type="line"/>
			<point x="247" y="19" type="line"/>
		</contour>
	</outline>
</glyph>
<glyph name="cedi" format="1">
	<unicode hex="20B5"/>
	<advance width="600"/>
	<outline>
		<contour>
			<point x="289" y="-12" type="curve" smooth="yes"/>
			<point x="376" y="-12"/>
			<point x="449" y="24"/>
			<point x="508" y="83" type="curve"/>
			<point x="464" y="142" type="line"/>
			<point x="418" y="97"/>
			<point x="367" y="67"/>
			<point x="308" y="67" type="curve" smooth="yes"/>
			<point x="227" y="67"/>
			<point x="180" y="131"/>
			<point x="180" y="242" type="curve" smooth="yes"/>
			<point x="180" y="426"/>
			<point x="284" y="575"/>
			<point x="413" y="575" type="curve" smooth="yes"/>
			<point x="469" y="575"/>
			<point x="498" y="549"/>
			<point x="527" y="506" type="curve"/>
			<point x="587" y="553" type="line"/>
			<point x="553" y="606"/>
			<point x="507" y="650"/>
			<point x="422" y="650" type="curve" smooth="yes"/>
			<point x="237" y="650"/>
			<point x="85" y="488"/>
			<point x="85" y="235" type="curve" smooth="yes"/>
			<point x="85" y="81"/>
			<point x="167" y="-12"/>
		</contour>
		<contour>
			<point x="241" y="-110" type="line"/>
			<point x="297" y="-110" type="line"/>
			<point x="468" y="743" type="line"/>
			<point x="411" y="743" type="line"/>
		</contour>
	</outline>
</glyph>
<glyph name="rupeeindian" format="1">
	<unicode hex="20B9"/>
	<advance width="600"/>
	<outline>
		<contour>
			<point x="88" y="247" type="line"/>
			<point x="183" y="247" type="line" smooth="yes"/>
			<point x="349" y="247"/>
			<point x="480" y="321"/>
			<point x="480" y="471" type="curve" smooth="yes"/>
			<point x="480" y="522"/>
			<point x="453" y="570"/>
			<point x="411" y="586" type="curve"/>
			<point x="576" y="586" type="line"/>
			<point x="585" y="638" type="line"/>
			<point x="166" y="638" type="line"/>
			<point x="152" y="564" type="line"/>
			<point x="240" y="564" type="line" smooth="yes"/>
			<point x="342" y="564"/>
			<point x="391" y="536"/>
			<point x="391" y="469" type="curve" smooth="yes"/>
			<point x="391" y="368"/>
			<point x="313" y="319"/>
			<point x="182" y="319" type="curve" smooth="yes"/>
			<point x="103" y="319" type="line"/>
		</contour>
		<contour>
			<point x="125" y="432" type="line"/>
			<point x="545" y="432" type="line"/>
			<point x="554" y="483" type="line"/>
			<point x="208" y="483" type="line"/>
			<point x="134" y="476" type="line"/>
		</contour>
		<contour>
			<point x="322" y="0" type="line"/>
			<point x="425" y="0" type="line"/>
			<point x="240" y="306" type="line"/>
			<point x="167" y="261" type="line"/>
		</contour>
	</outline>
</glyph>
<glyph name="ruble" format="2">
	<unicode hex="20BD"/>
	<advance width="600"/>
	<outline>
		<contour>
			<point x="112" y="0" type="line"/>
			<point x="203" y="0" type="line"/>
			<point x="258" y="274" type="line"/>
			<point x="335" y="274" type="line" smooth="yes"/>
			<point x="497" y="275"/>
			<point x="603" y="355"/>
			<point x="603" y="495" type="curve" smooth="yes"/>
			<point x="603" y="593"/>
			<point x="523" y="637"/>
			<point x="410" y="637" type="curve" smooth="yes"/>
			<point x="239" y="637" type="line"/>
		</contour>
		<contour>
			<point x="268" y="327" type="line"/>
			<point x="317" y="572" type="line"/>
			<point x="388" y="572" type="line" smooth="yes"/>
			<point x="470" y="572"/>
			<point x="514" y="546"/>
			<point x="514" y="482" type="curve" smooth="yes"/>
			<point x="514" y="381"/>
			<point x="443" y="327"/>
			<point x="339" y="327" type="curve" smooth="yes"/>
		</contour>
		<contour>
			<point x="37" y="274" type="line"/>
			<point x="210" y="274" type="line"/>
			<point x="221" y="327" type="line"/>
			<point x="187" y="327" type="line"/>
			<point x="48" y="323" type="line"/>
		</contour>
		<contour>
			<point x="16" y="158" type="line"/>
			<point x="484" y="158" type="line"/>
			<point x="496" y="211" type="line"/>
			<point x="166" y="211" type="line"/>
			<point x="26" y="206" type="line"/>
		</contour>
	</outline>
</glyph>
<glyph name="litre" format="2">
	<unicode hex="2113"/>
	<advance width="600"/>
	<outline>
		<contour>
			<point x="296" y="-12" type="curve" smooth="yes"/>
			<point x="365" y="-12"/>
			<point x="417" y="18"/>
			<point x="461" y="53" type="curve"/>
			<point x="428" y="112" type="line"/>
			<point x="400" y="89"/>
			<point x="369" y="66"/>
			<point x="326" y="66" type="curve" smooth="yes"/>
			<point x="279" y="66"/>
			<point x="248" y="100"/>
			<point x="268" y="200" type="curve" smooth="yes"/>
			<point x="332" y="514" type="line" smooth="yes"/>
			<point x="351" y="610"/>
			<point x="386" y="652"/>
			<point x="421" y="652" type="curve" smooth="yes"/>
			<point x="445" y="652"/>
			<point x="459" y="631"/>
			<point x="459" y="590" type="curve" smooth="yes"/>
			<point x="459" y="467"/>
			<point x="316" y="298"/>
			<point x="89" y="180" type="curve"/>
			<point x="114" y="121" type="line"/>
			<point x="399" y="271"/>
			<point x="537" y="452"/>
			<point x="537" y="601" type="curve" smooth="yes"/>
			<point x="537" y="676"/>
			<point x="497" y="721"/>
			<point x="430" y="721" type="curve" smooth="yes"/>
			<point x="344" y="721"/>
			<point x="269" y="655"/>
			<point x="238" y="498" type="curve" smooth="yes"/>
			<point x="176" y="192" type="line" smooth="yes"/>
			<point x="148" y="53"/>
			<point x="207" y="-12"/>
		</contour>
	</outline>
</glyph>
<glyph name="numero" format="1">
	<unicode hex="2116"/>
	<advance width="600"/>
	<outline>
		<contour>
			<point x="-41" y="-12" type="curve" smooth="yes"/>
			<point x="9" y="-12"/>
			<point x="42" y="24"/>
			<point x="56" y="94" type="curve" smooth="yes"/>
			<point x="83" y="228" type="line" smooth="yes"/>
			<point x="100" y="316"/>
			<point x="109" y="402"/>
			<point x="126" y="528" type="curve"/>
			<point x="130" y="528" type="line"/>
			<point x="143" y="378" type="line" smooth="yes"/>
			<point x="175" y="0" type="line"/>
			<point x="270" y="0" type="line"/>
			<point x="376" y="531" type="line" smooth="yes"/>
			<point x="382" y="564"/>
			<point x="395" y="573"/>
			<point x="414" y="573" type="curve"/>
			<point x="421" y="646" type="line"/>
			<point x="413" y="648"/>
			<point x="405" y="649"/>
			<point x="398" y="649" type="curve" smooth="yes"/>
			<point x="348" y="649"/>
			<point x="315" y="614"/>
			<point x="301" y="543" type="curve" smooth="yes"/>
			<point x="275" y="409" type="line" smooth="yes"/>
			<point x="258" y="321"/>
			<point x="248" y="235"/>
			<point x="232" y="109" type="curve"/>
			<point x="228" y="109" type="line"/>
			<point x="215" y="259" type="line" smooth="yes"/>
			<point x="183" y="637" type="line"/>
			<point x="87" y="637" type="line"/>
			<point x="-18" y="107" type="line" smooth="yes"/>
			<point x="-25" y="73"/>
			<point x="-38" y="64"/>
			<point x="-57" y="64" type="curve"/>
			<point x="-63" y="-9" type="line"/>
			<point x="-56" y="-12"/>
			<point x="-47" y="-12"/>
		</contour>
		<contour>
			<point x="494" y="274" type="curve" smooth="yes"/>
			<point x="578" y="274"/>
			<point x="641" y="368"/>
			<point x="641" y="488" type="curve" smooth="yes"/>
			<point x="641" y="563"/>
			<point x="604" y="599"/>
			<point x="551" y="599" type="curve" smooth="yes"/>
			<point x="466" y="599"/>
			<point x="403" y="506"/>
			<point x="403" y="387" type="curve" smooth="yes"/>
			<point x="403" y="311"/>
			<point x="440" y="274"/>
		</contour>
		<contour>
			<point x="506" y="333" type="curve" smooth="yes"/>
			<point x="478" y="333"/>
			<point x="466" y="354"/>
			<point x="466" y="395" type="curve" smooth="yes"/>
			<point x="466" y="466"/>
			<point x="498" y="540"/>
			<point x="538" y="540" type="curve" smooth="yes"/>
			<point x="566" y="540"/>
			<point x="578" y="520"/>
			<point x="578" y="479" type="curve" smooth="yes"/>
			<point x="578" y="408"/>
			<point x="546" y="333"/>
		</contour>
		<contour>
			<point x="383" y="163" type="line"/>
			<point x="556" y="163" type="line"/>
			<point x="568" y="221" type="line"/>
			<point x="394" y="221" type="line"/>
		</contour>
	</outline>
</glyph>
<glyph name="onetenth" format="2">
	<unicode hex="2152"/>
	<advance width="600"/>
	<outline>
		<contour>
			<point x="175" y="401" type="line"/>
			<point x="244" y="401" type="line"/>
			<point x="293" y="638" type="line"/>
			<point x="237" y="638" type="line"/>
			<point x="206" y="621"/>
			<point x="182" y="611"/>
			<point x="136" y="605" type="curve"/>
			<point x="126" y="560" type="line"/>
			<point x="207" y="560" type="line"/>
		</contour>
		<contour>
			<point x="107" y="274" type="line"/>
			<point x="601" y="433" type="line"/>
			<point x="583" y="496" type="line"/>
			<point x="95" y="306" type="line"/>
		</contour>
		<contour>
			<point x="96" y="0" type="line"/>
			<point x="165" y="0" type="line"/>
			<point x="214" y="237" type="line"/>
			<point x="158" y="237" type="line"/>
			<point x="127" y="220"/>
			<point x="103" y="210"/>
			<point x="57" y="204" type="curve"/>
			<point x="47" y="159" type="line"/>
			<point x="128" y="159" type="line"/>
		</contour>
		<contour>
			<point x="370" y="-12" type="curve" smooth="yes"/>
			<point x="457" y="-12"/>
			<point x="518" y="54"/>
			<point x="518" y="148" type="curve" smooth="yes"/>
			<point x="518" y="210"/>
			<point x="483" y="248"/>
			<point x="424" y="248" type="curve" smooth="yes"/>
			<point x="341" y="248"/>
			<point x="275" y="184"/>
			<point x="275" y="89" type="curve" smooth="yes"/>
			<point x="275" y="29"/>
			<point x="311" y="-12"/>
		</contour>
		<contour>
			<point x="333" y="93" type="curve" smooth="yes"/>
			<point x="333" y="160"/>
			<point x="372" y="203"/>
			<point x="416" y="203" type="curve" smooth="yes"/>
			<point x="445" y="203"/>
			<point x="460" y="183"/>
			<point x="460" y="144" type="curve" smooth="yes"/>
			<point x="460" y="73"/>
			<point x="422" y="33"/>
			<point x="378" y="33" type="curve" smooth="yes"/>
			<point x="349" y="33"/>
			<point x="333" y="54"/>
		</contour>
	</outline>
</glyph>
<glyph name="arrowleft" format="1">
	<unicode hex="2190"/>
	<advance width="600"/>
	<outline>
		<contour>
			<point x="290" y="-16" type="line"/>
			<point x="336" y="36" type="line"/>
			<point x="143" y="214" type="line"/>
			<point x="569" y="214" type="line"/>
			<point x="569" y="290" type="line"/>
			<point x="143" y="290" type="line"/>
			<point x="336" y="468" type="line"/>
			<point x="290" y="520" type="line"/>
			<point x="17" y="254" type="line"/>
			<point x="17" y="250" type="line"/>
		</contour>
	</outline>
</glyph>
<glyph name="arrowup" format="1">
	<unicode hex="2191"/>
	<advance width="600"/>
	<outline>
		<contour>
			<point x="262" y="-25" type="line"/>
			<point x="338" y="-25" type="line"/>
			<point x="338" y="400" type="line"/>
			<point x="516" y="208" type="line"/>
			<point x="568" y="255" type="line"/>
			<point x="302" y="528" type="line"/>
			<point x="298" y="528" type="line"/>
			<point x="32" y="255" type="line"/>
			<point x="84" y="208" type="line"/>
			<point x="262" y="400" type="line"/>
		</contour>
	</outline>
</glyph>
<glyph name="arrowright" format="2">
	<unicode hex="2192"/>
	<advance width="600"/>
	<outline>
		<contour>
			<point x="309" y="-16" type="line"/>
			<point x="582" y="250" type="line"/>
			<point x="582" y="254" type="line"/>
			<point x="309" y="520" type="line"/>
			<point x="263" y="468" type="line"/>
			<point x="456" y="290" type="line"/>
			<point x="30" y="290" type="line"/>
			<point x="30" y="214" type="line"/>
			<point x="456" y="214" type="line"/>
			<point x="263" y="36" type="line"/>
		</contour>
	</outline>
</glyph>
<glyph name="arrowupdn" format="1">
	<unicode hex="2195"/>
	<advance width="600"/>
	<outline>
		<contour>
			<point x="302" y="-57" type="line"/>
			<point x="517" y="122" type="line"/>
			<point x="475" y="173" type="line"/>
			<point x="338" y="52" type="line"/>
			<point x="338" y="451" type="line"/>
			<point x="475" y="330" type="line"/>
			<point x="517" y="381" type="line"/>
			<point x="302" y="560" type="line"/>
			<point x="298" y="560" type="line"/>
			<point x="83" y="381" type="line"/>
			<point x="125" y="330" type="line"/>
			<point x="262" y="451" type="line"/>
			<point x="262" y="52" type="line"/>
			<point x="125" y="173" type="line"/>
			<point x="83" y="122" type="line"/>
			<point x="298" y="-57" type="line"/>
		</contour>
	</outline>
</glyph>
<glyph name="arrowupright" format="2">
	<unicode hex="2197"/>
	<advance width="600"/>
	<outline>
		<contour>
			<point x="131" y="29" type="line"/>
			<point x="432" y="330" type="line"/>
			<point x="423" y="68" type="line"/>
			<point x="492" y="65" type="line"/>
			<point x="497" y="445" type="line"/>
			<point x="494" y="448" type="line"/>
			<point x="113" y="443" type="line"/>
			<point x="117" y="374" type="line"/>
			<point x="379" y="384" type="line"/>
			<point x="78" y="83" type="line"/>
		</contour>
	</outline>
</glyph>
<glyph name="arrowdownleft" format="2">
	<unicode hex="2199"/>
	<advance width="600"/>
	<outline>
		<contour>
			<point x="106" y="55" type="line"/>
			<point x="487" y="60" type="line"/>
			<point x="483" y="129" type="line"/>
			<point x="221" y="119" type="line"/>
			<point x="522" y="420" type="line"/>
			<point x="469" y="473" type="line"/>
			<point x="168" y="173" type="line"/>
			<point x="177" y="435" type="line"/>
			<point x="108" y="438" type="line"/>
			<point x="103" y="58" type="line"/>
		</contour>
	</outline>
</glyph>
<glyph name="arrowdblleft" format="2">
	<unicode hex="21D0"/>
	<advance width="600"/>
	<outline>
		<contour>
			<point x="290" y="-16" type="line"/>
			<point x="336" y="36" type="line"/>
			<point x="102" y="250" type="line"/>
			<point x="102" y="254" type="line"/>
			<point x="336" y="468" type="line"/>
			<point x="290" y="520" type="line"/>
			<point x="17" y="254" type="line"/>
			<point x="17" y="250" type="line"/>
		</contour>
		<contour>
			<point x="148" y="312" type="line"/>
			<point x="569" y="312" type="line"/>
			<point x="569" y="370" type="line"/>
			<point x="148" y="370" type="line"/>
		</contour>
		<contour>
			<point x="148" y="134" type="line"/>
			<point x="569" y="134" type="line"/>
			<point x="569" y="192" type="line"/>
			<point x="148" y="192" type="line"/>
		</contour>
	</outline>
</glyph>
<glyph name="arrowdblup" format="1">
	<unicode hex="21D1"/>
	<advance width="600"/>
	<outline>
		<contour>
			<point x="84" y="208" type="line"/>
			<point x="298" y="441" type="line"/>
			<point x="302" y="441" type="line"/>
			<point x="516" y="208" type="line"/>
			<point x="568" y="255" type="line"/>
			<point x="302" y="528" type="line"/>
			<point x="298" y="528" type="line"/>
			<point x="32" y="255" type="line"/>
		</contour>
		<contour>
			<point x="360" y="-25" type="line"/>
			<point x="418" y="-25" type="line"/>
			<point x="418" y="396" type="line"/>
			<point x="360" y="396" type="line"/>
		</contour>
		<contour>
			<point x="182" y="-25" type="line"/>
			<point x="240" y="-25" type="line"/>
			<point x="240" y="396" type="line"/>
			<point x="182" y="396" type="line"/>
		</contour>
	</outline>
</glyph>
<glyph name="existential" format="1">
	<unicode hex="2203"/>
	<advance width="600"/>
	<outline>
		<contour>
			<point x="-5" y="0" type="line"/>
			<point x="414" y="0" type="line"/>
			<point x="545" y="655" type="line"/>
			<point x="137" y="655" type="line"/>
			<point x="121" y="577" type="line"/>
			<point x="437" y="577" type="line"/>
			<point x="397" y="382" type="line"/>
			<point x="133" y="382" type="line"/>
			<point x="117" y="304" type="line"/>
			<point x="382" y="304" type="line"/>
			<point x="338" y="78" type="line"/>
			<point x="11" y="78" type="line"/>
		</contour>
	</outline>
</glyph>
<glyph name="Delta.math" format="1">
	<unicode hex="2206"/>
	<advance width="600"/>
	<outline>
		<contour>
			<point x="-26" y="0" type="line"/>
			<point x="508" y="0" type="line"/>
			<point x="519" y="54" type="line"/>
			<point x="424" y="656" type="line"/>
			<point x="319" y="656" type="line"/>
			<point x="-16" y="54" type="line"/>
		</contour>
		<contour>
			<point x="88" y="78" type="line"/>
			<point x="244" y="367" type="line"/>
			<point x="353" y="576" type="line"/>
			<point x="357" y="576" type="line"/>
			<point x="382" y="367" type="line"/>
			<point x="422" y="78" type="line"/>
		</contour>
	</outline>
</glyph>
<glyph name="product" format="2">
	<unicode hex="220F"/>
	<advance width="600"/>
	<outline>
		<contour>
			<point x="45" y="-120" type="line"/>
			<point x="138" y="-120" type="line"/>
			<point x="138" y="556" type="line"/>
			<point x="455" y="556" type="line"/>
			<point x="455" y="-120" type="line"/>
			<point x="548" y="-120" type="line"/>
			<point x="548" y="637" type="line"/>
			<point x="45" y="637" type="line"/>
		</contour>
	</outline>
</glyph>
<glyph name="minus" format="2">
	<unicode hex="2212"/>
	<advance width="600"/>
	<outline>
		<contour>
			<point x="83" y="296" type="line"/>
			<point x="517" y="296" type="line"/>
			<point x="517" y="364" type="line"/>
			<point x="83" y="364" type="line"/>
		</contour>
	</outline>
</glyph>
<glyph name="intersection" format="2">
	<unicode hex="2229"/>
	<advance width="600"/>
	<outline>
		<contour>
			<point x="92" y="102" type="line"/>
			<point x="164" y="102" type="line"/>
			<point x="164" y="342" type="line" smooth="yes"/>
			<point x="164" y="443"/>
			<point x="218" y="499"/>
			<point x="300" y="499" type="curve" smooth="yes"/>
			<point x="382" y="499"/>
			<point x="436" y="443"/>
			<point x="436" y="342" type="curve" smooth="yes"/>
			<point x="436" y="102" type="line"/>
			<point x="508" y="102" type="line"/>
			<point x="508" y="354" type="line" smooth="yes"/>
			<point x="508" y="485"/>
			<point x="421" y="572"/>
			<point x="300" y="572" type="curve" smooth="yes"/>
			<point x="179" y="572"/>
			<point x="92" y="485"/>
			<point x="92" y="354" type="curve" smooth="yes"/>
		</contour>
	</outline>
</glyph>
<glyph name="integral" format="2">
	<unicode hex="222B"/>
	<advance width="600"/>
	<outline>
		<contour>
			<point x="229" y="-158" type="curve" smooth="yes"/>
			<point x="350" y="-158"/>
			<point x="374" y="-58"/>
			<point x="374" y="74" type="curve" smooth="yes"/>
			<point x="374" y="224"/>
			<point x="334" y="414"/>
			<point x="334" y="561" type="curve" smooth="yes"/>
			<point x="334" y="662"/>
			<point x="345" y="718"/>
			<point x="399" y="718" type="curve" smooth="yes"/>
			<point x="413" y="718"/>
			<point x="425" y="716"/>
			<point x="434" y="714" type="curve"/>
			<point x="445" y="783" type="line"/>
			<point x="436" y="786"/>
			<point x="416" y="790"/>
			<point x="397" y="790" type="curve" smooth="yes"/>
			<point x="275" y="790"/>
			<point x="250" y="689"/>
			<point x="250" y="558" type="curve" smooth="yes"/>
			<point x="250" y="407"/>
			<point x="291" y="217"/>
			<point x="291" y="70" type="curve" smooth="yes"/>
			<point x="291" y="-33"/>
			<point x="281" y="-86"/>
			<point x="225" y="-86" type="curve" smooth="yes"/>
			<point x="211" y="-86"/>
			<point x="199" y="-84"/>
			<point x="190" y="-82" type="curve"/>
			<point x="180" y="-151" type="line"/>
			<point x="189" y="-155"/>
			<point x="208" y="-158"/>
		</contour>
	</outline>
</glyph>
